<?xml version="1.0" encoding="UTF-8"?>
<svg id="_レイヤー_2" data-name="レイヤー 2" xmlns="http://www.w3.org/2000/svg" width="496.90977" height="382.82157" xmlns:xlink="http://www.w3.org/1999/xlink" viewBox="0 0 496.90977 382.82157">
  <defs>
    <linearGradient id="_名称未設定グラデーション" data-name="名称未設定グラデーション" x1="928.33352" y1="43.85803" x2="929.33354" y2="43.85803" gradientTransform="translate(-126178.26853 14721.68717) scale(136.27693 -331.30257)" gradientUnits="userSpaceOnUse">
      <stop offset="0" stop-color="#007b40"/>
      <stop offset="1" stop-color="#55b330"/>
    </linearGradient>
    <linearGradient id="_名称未設定グラデーション_2" data-name="名称未設定グラデーション 2" x1="928.34884" y1="43.88899" x2="929.34884" y2="43.88899" gradientTransform="translate(-127021.02967 14731.94358) scale(136.85128 -331.30257)" gradientUnits="userSpaceOnUse">
      <stop offset="0" stop-color="#1d2970"/>
      <stop offset="1" stop-color="#006dba"/>
    </linearGradient>
    <linearGradient id="_名称未設定グラデーション_3" data-name="名称未設定グラデーション 3" x1="928.33468" y1="43.86772" x2="929.33467" y2="43.86772" gradientTransform="translate(-126416.0935 14725.34623) scale(136.36925 -331.31284)" gradientUnits="userSpaceOnUse">
      <stop offset="0" stop-color="#6e2b2f"/>
      <stop offset="1" stop-color="#e30138"/>
    </linearGradient>
  </defs>
  <g id="_レイヤー_1-2" data-name="レイヤー 1">
    <g>
      <path d="M496.90977,305.52924c0,42.68204-34.59385,77.29233-77.28923,77.29233H0V77.3036C0,34.61026,34.59487,0,77.29641,0h419.61029l-.001,305.52824.00407.001Z" fill="#fff"/>
      <path d="M360.10976,198.11387c11.98565.26051,24.03896-.52922,35.97644.41025,12.08922,2.25539,15.00307,20.55692,4.26257,26.55076-7.32823,3.94872-16.03384,1.47076-23.97849,2.16719h-16.26052v-29.1282ZM403.01641,165.14463c2.66257,9.39898-6.39792,17.83795-15.45028,16.5436h-27.4564c.19281-8.86359-.37641-18.48411.27898-26.88103,10.99897.30975,22.09949-.63179,33.03486.4923,4.69846,1.18051,8.63075,5.04308,9.59285,9.84513ZM469.09333,25.76001c.51075,17.94974.07387,36.84821.22054,55.16206-.03387,74.45745.0718,148.91283-.05847,223.37435-.48202,27.90462-25.21234,52.15179-52.92412,52.70871-27.73845.11281-55.48102.01743-83.2236.0482v-112.56411c30.22668-.15591,60.46875.31691,90.6831-.23591,14.01643-.88,29.36924-10.12821,30.02154-25.55282,1.65027-15.49129-12.95485-26.20615-26.82154-27.89847-5.33028-.13846-5.17434-1.55385,0-2.17129,13.22566-2.85846,23.61128-16.54666,19.71999-30.25539-3.31587-14.41846-19.2523-19.99897-32.5077-19.97128-27.02768-.18359-54.0605-.02563-81.08925-.07897.17437-21.01436-.36411-42.05128.29025-63.05026,2.14155-27.40103,27.49437-49.99795,54.81643-49.5077,26.96101-.0041,53.91796-.0041,80.87284-.00513v-.002Z" fill="url(#_名称未設定グラデーション)"/>
      <path d="M27.67899,78.11385c.69026-27.86052,25.52616-51.90872,53.20205-52.3159,27.63591-.08513,55.27591-.01231,82.91179-.03693-.0759,93.21539.14974,186.44104-.11384,279.65131-1.06461,27.52204-25.62976,51.11178-53.00411,51.59897-27.68821.1005-55.37949.01437-83.06871.04204v-116.35899c26.89538,6.35385,55.09949,9.05846,82.53744,4.84409,16.40102-2.63897,34.34564-10.69333,39.89846-27.70871,4.08616-14.55488,1.78564-29.87283,2.39386-44.81129v-34.69231h-47.4841c-.21333,22.94462.43692,45.92922-.3436,68.84614-1.28,14.08616-15.22974,23.03589-28.51488,22.55794-16.47589.17437-49.12513-11.94051-49.12513-11.94051-.08205-42.98872.47795-96.82565.71076-139.6718v-.00405Z" fill="url(#_名称未設定グラデーション_2)"/>
      <path d="M181.50464,152.31898c-2.4995.53025-.50255-8.51384-1.14155-11.94461.17024-21.6923-.35588-43.40821.29025-65.08512,2.13539-27.51693,27.68308-50.17026,55.11591-49.52615h80.7877c-.0759,93.2154.14871,186.44103-.11384,279.6513-1.06564,27.52204-25.63283,51.11078-53.00822,51.59897-27.68924.1046-55.38155.0164-83.07283.04307v-127.48721c18.91179,15.51692,44.61539,17.93232,68.17643,17.97435,17.76205-.00617,35.42052-2.74461,52.66974-6.84104v-23.3559c-19.43898,9.68822-42.29026,15.84207-63.83899,10.27591-15.0318-3.74155-25.9436-18.26873-25.70053-33.78154-1.74154-16.13231,7.71488-33.16411,23.56821-37.96,19.68309-6.16205,41.13538-1.44923,59.58565,6.56205,3.95282,2.06975,7.96512,4.63692,6.38462-1.97026v-18.35795c-30.85744-7.34154-63.69642-10.04309-94.69746-2.05642-8.97333,2.53128-17.71591,6.37026-25.00513,12.26256l.00003-.002Z" fill="url(#_名称未設定グラデーション_3)"/>
    </g>
  </g>
</svg>