<?xml version="1.0" encoding="UTF-8"?>
<svg id="_アイコン_step-来店予約" data-name="★アイコン_step-来店予約" xmlns="http://www.w3.org/2000/svg" width="500" height="500" viewBox="0 0 500 500">
  <path d="M389.13949,136.48975h-55.38184v-27.35156c0-2.20898-1.79102-4-4-4s-4,1.79102-4,4v27.35156h-151.51465v-27.35156c0-2.20898-1.79102-4-4-4s-4,1.79102-4,4v27.35156h-55.38184c-13.2334,0-24,10.76611-24,24v214.15039c0,13.23389,10.7666,24,24,24h278.27832c13.2334,0,24-10.76611,24-24v-214.15039c0-13.23389-10.7666-24-24-24ZM110.86117,144.48975h55.38184v20.54297c0,2.20898,1.79102,4,4,4s4-1.79102,4-4v-20.54297h151.51465v20.54297c0,2.20898,1.79102,4,4,4s4-1.79102,4-4v-20.54297h55.38184c8.82227,0,16,7.17773,16,16v30.00879H94.86117v-30.00879c0-8.82227,7.17773-16,16-16ZM389.13949,390.64014H110.86117c-8.82227,0-16-7.17773-16-16v-176.1416h310.27832v176.1416c0,8.82227-7.17773,16-16,16Z" fill="#a57e66"/>
  <path d="M297.15902,241.69287l-63.26562,50.61133-16.8877-25.04346c-3.0127-4.46826-7.58594-7.49561-12.87891-8.52393-5.28711-1.02686-10.66211.06396-15.12793,3.07617-4.46875,3.01318-7.49609,7.58594-8.52539,12.87598-1.02832,5.28955.06445,10.66309,3.07812,15.13086l29.12793,43.19092c3.14062,4.65918,8.12793,7.81738,13.68066,8.66455,1.00391.15332,2.0293.23145,3.0459.23145,4.5625,0,9.03906-1.56982,12.60449-4.42041l80.35742-64.28564c4.20703-3.36621,6.85156-8.16992,7.44727-13.52588.59473-5.35693-.93262-10.62402-4.2998-14.83008-6.9502-8.68652-19.66895-10.1001-28.35645-3.15186ZM321.8641,258.7915c-.35938,3.23242-1.95508,6.13135-4.49414,8.1626l-80.35645,64.28467c-2.63086,2.10352-6.11621,3.03711-9.44434,2.52832-3.35254-.51123-6.36133-2.41699-8.25684-5.22803v-.00049l-29.12793-43.19189c-1.81836-2.69629-2.47852-5.93896-1.85742-9.13086.62012-3.19189,2.44727-5.95117,5.14453-7.77002,2.0332-1.37158,4.37891-2.08301,6.7793-2.08301.78027,0,1.56738.0752,2.35059.22705,3.19336.62061,5.95312,2.44727,7.77148,5.14355l19.31445,28.6416c.625.92676,1.6084,1.54932,2.71289,1.71777,1.1084.17041,2.22949-.1333,3.10254-.83057l66.6543-53.32227c5.24219-4.19385,12.91992-3.33789,17.1123,1.90381,2.03223,2.5376,2.95312,5.71582,2.59473,8.94775Z" fill="#a57e66"/>
</svg>