<?xml version="1.0" encoding="UTF-8"?>
<svg id="_アイコン_メディカルのコピー_2" data-name="★★アイコン_メディカルのコピー 2" xmlns="http://www.w3.org/2000/svg" width="500" height="500" viewBox="0 0 500 500">
  <g>
    <path d="M311.4559,148.47803h-122.91211c-1.65723,0-3-1.34326-3-3v-19.71094c0-1.65674,1.34277-3,3-3h122.91211c1.65723,0,3,1.34326,3,3v19.71094c0,1.65674-1.34277,3-3,3ZM191.54379,142.47803h116.91211v-13.71094h-116.91211v13.71094Z" fill="#262626"/>
    <path d="M291.77718,73.31006h-83.55371c-1.65723,0-3-1.34326-3-3v-19.71094c0-1.65674,1.34277-3,3-3h83.55371c1.65723,0,3,1.34326,3,3v19.71094c0,1.65674-1.34277,3-3,3ZM211.22347,67.31006h77.55371v-13.71094h-77.55371v13.71094Z" fill="#262626"/>
    <path d="M273.49398,128.76709h-46.98828c-.85156,0-1.66309-.3623-2.23242-.99609s-.8418-1.47949-.75-2.32666l6-55.45703c.16504-1.52295,1.4502-2.67725,2.98242-2.67725h34.98828c1.53223,0,2.81738,1.1543,2.98242,2.67725l6,55.45703c.0918.84717-.18066,1.69287-.75,2.32666s-1.38086.99609-2.23242.99609ZM229.8475,122.76709h40.30469l-5.35156-49.45703h-29.60156l-5.35156,49.45703Z" fill="#262626"/>
    <g>
      <path d="M229.60772,370.91277v19.37347c13.59521,8.10974,27.18994,8.10962,40.78466,0v-19.37354c-12.46728,4.77661-28.31738,4.77667-40.78466.00005Z" fill="#e8d7c1"/>
      <path d="M249.99984,399.37256c-7.32617,0-14.65332-2.16992-21.92969-6.50977-.90723-.5415-1.46289-1.52002-1.46289-2.57666v-19.37354c0-.98779.48633-1.91211,1.2998-2.47168.81543-.56055,1.85059-.68359,2.77344-.32959,11.73633,4.49609,26.90234,4.49609,38.63867,0,.92188-.354,1.95801-.23096,2.77344.32959.81348.55957,1.2998,1.48389,1.2998,2.47168v19.37354c0,1.05664-.55566,2.03516-1.46289,2.57617-7.27539,4.34033-14.60254,6.51025-21.92969,6.51025ZM232.60726,388.5498c11.69043,6.44922,23.09863,6.44824,34.78516,0v-13.46289c-11.04883,3.24219-23.73633,3.24219-34.78516,0v13.46289Z" fill="#262626"/>
    </g>
    <path d="M249.99984,452.40088c-1.65723,0-3-1.34326-3-3v-53.03223c0-1.65674,1.34277-3,3-3s3,1.34326,3,3v53.03223c0,1.65674-1.34277,3-3,3Z" fill="#262626"/>
    <path d="M290.95492,261.04883h-81.91016c-1.65723,0-3-1.34326-3-3v-112.5708c0-1.65674,1.34277-3,3-3h81.91016c1.65723,0,3,1.34326,3,3v112.5708c0,1.65674-1.34277,3-3,3ZM212.04476,255.04883h75.91016v-106.5708h-75.91016v106.5708Z" fill="#262626"/>
    <g>
      <path d="M209.04499,258.04863v86.47937c-.00002,39.95856,81.90989,39.95857,81.9099.00001v-86.47937s-81.9099-.00001-81.9099-.00001Z" fill="#e8d7c1"/>
      <path d="M249.99984,377.49707c-11.30273,0-21.88379-2.8335-29.79199-7.97754-9.26562-6.02686-14.16309-14.66846-14.16309-24.9917v-86.479c0-1.65674,1.34277-3,3-3h81.91016c1.65723,0,3,1.34326,3,3v86.479c0,10.32324-4.89746,18.96484-14.16309,24.9917-7.9082,5.14404-18.48926,7.97754-29.79199,7.97754ZM212.04476,261.04883v83.479c0,12.98926,11.87793,26.96924,37.95508,26.96924s37.95508-13.97998,37.95508-26.96924v-83.479h-75.91016Z" fill="#262626"/>
    </g>
    <g>
      <line x1="229.4501" y1="228.04862" x2="270.5498" y2="228.04863" fill="#d53365"/>
      <path d="M270.54965,231.04883h-41.09961c-1.65723,0-3-1.34326-3-3s1.34277-3,3-3h41.09961c1.65723,0,3,1.34326,3,3s-1.34277,3-3,3Z" fill="#262626"/>
    </g>
    <g>
      <line x1="229.45009" y1="288.04865" x2="270.54979" y2="288.04866" fill="#d53365"/>
      <path d="M270.54965,291.04883h-41.09961c-1.65723,0-3-1.34326-3-3s1.34277-3,3-3h41.09961c1.65723,0,3,1.34326,3,3s-1.34277,3-3,3Z" fill="#262626"/>
    </g>
    <g>
      <line x1="229.45009" y1="318.04867" x2="270.54979" y2="318.04868" fill="#d53365"/>
      <path d="M270.54965,321.04883h-41.09961c-1.65723,0-3-1.34326-3-3s1.34277-3,3-3h41.09961c1.65723,0,3,1.34326,3,3s-1.34277,3-3,3Z" fill="#262626"/>
    </g>
    <g>
      <line x1="229.4501" y1="198.04862" x2="270.54981" y2="198.04863" fill="#d53365"/>
      <path d="M270.54965,201.04883h-41.09961c-1.65723,0-3-1.34326-3-3s1.34277-3,3-3h41.09961c1.65723,0,3,1.34326,3,3s-1.34277,3-3,3Z" fill="#262626"/>
    </g>
  </g>
  <path d="M168.99203,400.18213c-.17773,0-.35742-.01562-.53613-.04834-1.12012-.20312-2.02832-1.02295-2.3457-2.1167l-49.47852-170.74268-27.16016,35.27881c-.57422.74609-1.4248,1.17334-2.40625,1.16992l-36.19727-.35303c-1.65625-.01611-2.98633-1.37256-2.9707-3.0293.0166-1.64648,1.35645-2.9707,2.99902-2.9707h.03027l34.70312.33838,29.85938-38.78467c.68945-.89502,1.82227-1.32764,2.93457-1.11768,1.11133.21045,2.00879,1.02686,2.32422,2.11279l49.44727,170.63672,24.43262-32.72852c.99121-1.32812,2.87109-1.60059,4.19922-.60889,1.32715.99121,1.60059,2.87061.60938,4.19824l-28.04004,37.56006c-.57227.7666-1.46777,1.20557-2.4043,1.20557Z" fill="#262626"/>
  <path d="M376.65316,305.43066c-.16602,0-.33203-.01367-.5-.0415-1.25488-.21191-2.24023-1.19287-2.45703-2.44727l-24.56836-142.04346-40.50977,54.26514c-.99219,1.32861-2.87207,1.59961-4.19922.60938-1.32715-.99072-1.60059-2.87061-.60938-4.19824l44.68164-59.85352c.7168-.96143,1.94043-1.40381,3.10254-1.12305,1.16602.27881,2.05371,1.2251,2.25781,2.40625l24.30371,140.51172,19.13574-34.59521c.52832-.95508,1.5332-1.54785,2.625-1.54785h49.1875c1.65723,0,3,1.34326,3,3s-1.34277,3-3,3h-47.41895l-22.40723,40.50977c-.53418.96582-1.5459,1.54785-2.62402,1.54785Z" fill="#262626"/>
</svg>