<?xml version="1.0" encoding="UTF-8"?>
<svg id="_アイコン_お迎えまで流れのコピー_2" data-name="★★アイコン_お迎えまで流れのコピー 2" xmlns="http://www.w3.org/2000/svg" width="1100" height="500" viewBox="0 0 1100 500">
  <path d="M682.18246,444.86482h-38.21387c-1.65723,0-3-1.34277-3-3v-114.58691c0-1.65723,1.34277-3,3-3h38.21387c1.65723,0,3,1.34277,3,3v114.58691c0,1.65723-1.34277,3-3,3ZM646.96859,438.86482h32.21387v-108.58691h-32.21387v108.58691Z" fill="#262626"/>
  <path d="M840.89144,427.21638c-5.83398,0-11.6875-.57715-17.4707-1.74707l-52.22754-10.56152c-5.3584-1.08301-10.84473-1.63281-16.30664-1.63281h-72.7041v-6h72.7041c5.86035,0,11.74707.58984,17.49609,1.75195l52.22754,10.56152c19.07031,3.85645,38.95215.81152,55.99121-8.57227l95.30273-58.33008c.08301-.05078.16797-.09668.25488-.13965,4.2998-2.08984,5.66113-6.21387,5.50195-9.37598-.19922-3.94531-2.49902-7.10059-6.15234-8.44141-9.18359-3.37109-20.43457-2.2373-33.43848,3.37012-77.63574,33.48047-89.76758,35.56738-92.65234,35.05762h-66.04199v-6h66.55469c.26758,0,.52734.03516.77637.10156,2.0127-.19434,15.18359-2.84082,88.9873-34.66895,14.46289-6.23535,27.20703-7.41016,37.88281-3.49316,5.89551,2.16406,9.75684,7.44141,10.07617,13.77246.32422,6.42773-3.01953,12.16309-8.7334,15.00684l-95.24414,58.29395c-.03906.02344-.07812.0459-.11719.06836-13.13086,7.24512-27.83789,10.97852-42.66699,10.97852ZM852.84164,369.43123c0,.00195.00098.00293.00098.00488,0-.00195-.00098-.00293-.00098-.00488ZM852.83871,369.42049c.00098.00293.00098.00488.00195.00781-.00098-.00293-.00098-.00488-.00195-.00781ZM852.51156,368.62654c.14355.24316.25488.50977.32715.79395-.0752-.29785-.18848-.5625-.32715-.79395Z" fill="#262626"/>
  <path d="M849.9305,373.15681h-102.62207v-6h102.62207c9.75684,0,17.69434-7.9375,17.69434-17.69434v-1.49023c0-9.75684-7.9375-17.69434-17.69434-17.69434h-81.58301c-12.46191,0-14.9668.73633-27.00781,4.27344l-3.21777.94336c-1.43262.41797-2.80566.8291-4.14453,1.22949-12.72852,3.80566-22.78223,6.8125-51.79492,6.8125v-6c28.13477,0,37.33789-2.75195,50.0752-6.56152,1.35156-.40332,2.73633-.81738,4.18262-1.24023l3.20801-.94043c12.42285-3.64941,15.375-4.5166,28.69922-4.5166h81.58301c13.06543,0,23.69434,10.62891,23.69434,23.69434v1.49023c0,13.06543-10.62891,23.69434-23.69434,23.69434Z" fill="#262626"/>
  <path d="M871.68539,350.77888l-2.12109-5.61328c.13086-.04883,13.33008-5.0166,30.81934-9.68164,23.58594-6.29297,43.375-9.08594,58.81055-8.31348l-.30078,5.99219c-35.40332-1.77051-86.69434,17.42188-87.20801,17.61621Z" fill="#262626"/>
  <path d="M1007.57334,152.34511c0-23.61299-19.14206-42.75512-42.75512-42.75512-15.14281,0-28.4368,7.87934-36.03284,19.75454-7.59635-11.8752-20.89034-19.75454-36.03299-19.75454-23.61306,0-42.75512,19.14214-42.75512,42.75512,0,12.05103,4.99341,22.92984,13.0147,30.70163l-.01386.00162,65.78727,64.81506,65.78712-64.81506-.01386-.00162c8.02145-7.77179,13.0147-18.6506,13.0147-30.70163ZM928.78538,175.34578h-.00015.00015Z" fill="#e8d7c1"/>
  <path d="M928.785,250.86385c-.76074,0-1.52148-.28809-2.10547-.86328l-65.78711-64.81543c-.05762-.05664-.1123-.11523-.16406-.1748-8.85645-8.68164-13.73145-20.27148-13.73145-32.66504,0-25.22949,20.52637-45.75488,45.75586-45.75488,14.21289,0,27.38672,6.49316,36.03223,17.56641,8.64648-11.07324,21.82129-17.56641,36.0332-17.56641,25.22949,0,45.75488,20.52539,45.75488,45.75488,0,12.39551-4.87402,23.98535-13.73242,32.66602-.05176.05957-.10645.11816-.16309.17383l-65.78711,64.81543c-.58398.5752-1.34473.86328-2.10547.86328ZM865.29281,181.09724l63.49219,62.55566,63.49316-62.55664c.06055-.07031.125-.13867.19238-.2041,7.80469-7.56152,12.10254-17.69922,12.10254-28.54688,0-21.9209-17.83398-39.75488-39.75488-39.75488-13.62207,0-26.14746,6.86719-33.50586,18.37012-.55176.8623-1.50391,1.38379-2.52734,1.38379h0c-1.02344,0-1.97559-.52148-2.52734-1.38379-7.35742-11.50293-19.88281-18.37012-33.50488-18.37012-21.92188,0-39.75586,17.83398-39.75586,39.75488,0,10.84668,4.29785,20.98438,12.10254,28.54688.06738.06543.13184.13477.19336.20508Z" fill="#262626"/>
  <path d="M788.97933,288.19588c-21.79004,0-43.00879-11.29883-54.66406-31.4873l-40.42773-70.02246h0c-17.36914-30.08398-7.02441-68.68945,23.05957-86.05859l11.12305-6.42188c1.43652-.8291,3.26953-.33691,4.09766,1.09766l28.2666,48.95898c.8291,1.43457.33691,3.26953-1.09766,4.09766l-17.32031,10c-3.93262,2.27148-6.74609,5.9375-7.9209,10.32324-1.17578,4.38574-.57227,8.9668,1.69824,12.89941l23.89355,41.38574c4.68848,8.11816,15.10645,10.90918,23.22266,6.22168l17.32031-9.99902c.68848-.39746,1.50488-.50586,2.27637-.2998.76855.20605,1.42383.70801,1.82129,1.39746l28.2666,48.95898c.39844.68945.50586,1.50781.2998,2.27637s-.70801,1.42383-1.39746,1.82129l-11.12305,6.42188c-9.89551,5.71387-20.71387,8.42871-31.39453,8.42871ZM699.08285,183.68611l40.42773,70.02246c7.61328,13.18555,19.9043,22.61719,34.61133,26.55762,14.7041,3.94043,30.06738,1.91699,43.25195-5.69434l8.52539-4.92188-25.2666-43.76367-14.72266,8.5c-10.9834,6.34473-25.07812,2.56348-31.41797-8.41797l-23.89355-41.38574c-3.07227-5.32031-3.88867-11.51855-2.29883-17.45215,1.58984-5.93457,5.39648-10.89453,10.7168-13.96582l14.72266-8.5-25.2666-43.76367-8.52539,4.92188c-13.18555,7.61328-22.61719,19.9043-26.55762,34.61133-3.94043,14.70508-1.91797,30.06738,5.69336,43.25195h0Z" fill="#262626"/>
  <rect x="793.22579" y="229.11876" width="5.99927" height="55.92181" transform="translate(-21.86573 432.55542) rotate(-30.00004)" fill="#262626"/>
  <rect x="721.52169" y="104.92254" width="5.99927" height="55.92265" transform="translate(30.62353 380.05814) rotate(-29.99954)" fill="#262626"/>
  <path d="M357.96078,224.22713l-26.86426-82.47461H115.13754l-26.86426,82.47461-5.70508-1.85742,27.53906-84.5459c.40234-1.23535,1.55371-2.07129,2.85254-2.07129h220.31445c1.29883,0,2.4502.83594,2.85254,2.07129l27.53906,84.5459-5.70508,1.85742Z" fill="#262626"/>
  <path d="M112.9598,253.83846c-16.83887,0-30.53906-13.7002-30.53906-30.54004h6c0,13.53125,11.00781,24.54004,24.53906,24.54004s24.53906-11.00879,24.53906-24.54004h6c0,16.83984-13.7002,30.54004-30.53906,30.54004Z" fill="#262626"/>
  <rect x="105.58905" y="178.02504" width="86.09892" height="6.00085" transform="translate(-57.22851 292.75012) rotate(-79.09968)" fill="#262626"/>
  <path d="M168.03793,253.83846c-16.83887,0-30.53906-13.7002-30.53906-30.54004h6c0,13.53125,11.00781,24.54004,24.53906,24.54004s24.54004-11.00879,24.54004-24.54004h6c0,16.83984-13.7002,30.54004-30.54004,30.54004Z" fill="#262626"/>
  <rect x="155.34138" y="178.0257" width="84.64896" height="5.99954" transform="translate(7.08106 369.4915) rotate(-87.16368)" fill="#262626"/>
  <rect x="294.59512" y="137.97601" width="6.00085" height="86.09892" transform="translate(-28.85976 59.53365) rotate(-10.8989)" fill="#262626"/>
  <rect x="245.56843" y="138.70099" width="5.99954" height="84.64896" transform="translate(-8.62746 12.48241) rotate(-2.82758)" fill="#262626"/>
  <path d="M223.11703,253.83846c-16.83887,0-30.53906-13.7002-30.53906-30.54004h6c0,13.53125,11.00781,24.54004,24.53906,24.54004s24.53906-11.00879,24.53906-24.54004h6c0,16.83984-13.7002,30.54004-30.53906,30.54004Z" fill="#262626"/>
  <path d="M278.19613,253.83846c-16.83984,0-30.54004-13.7002-30.54004-30.54004h6c0,13.53125,11.00879,24.54004,24.54004,24.54004s24.53906-11.00879,24.53906-24.54004h6c0,16.83984-13.7002,30.54004-30.53906,30.54004Z" fill="#262626"/>
  <path d="M333.27425,253.83846c-16.83887,0-30.53906-13.7002-30.53906-30.54004h6c0,13.53125,11.00781,24.54004,24.53906,24.54004s24.53906-11.00879,24.53906-24.54004h6c0,16.83984-13.7002,30.54004-30.53906,30.54004Z" fill="#262626"/>
  <path d="M333.27425,360.9908H112.9598c-1.65723,0-3-1.34277-3-3v-107.15234h6v104.15234h214.31445v-104.15234h6v107.15234c0,1.65723-1.34277,3-3,3Z" fill="#262626"/>
  <path d="M200.49789,360.9908h-51.85938c-1.65723,0-3-1.34277-3-3v-83.00195c0-1.65723,1.34277-3,3-3h51.85938c1.65723,0,3,1.34277,3,3v83.00195c0,1.65723-1.34277,3-3,3ZM151.63851,354.9908h45.85938v-77.00195h-45.85938v77.00195Z" fill="#262626"/>
  <path d="M297.59554,329.84822h-51.85938c-1.65723,0-3-1.34277-3-3v-51.85938c0-1.65723,1.34277-3,3-3h51.85938c1.65723,0,3,1.34277,3,3v51.85938c0,1.65723-1.34277,3-3,3ZM248.73617,323.84822h45.85938v-45.85938h-45.85938v45.85938Z" fill="#262626"/>
  <path d="M485.01156,304.59334c-.57715,0-1.16016-.16602-1.6748-.5127-1.37305-.92676-1.73633-2.79102-.80957-4.16504l24.72168-36.65137-24.72168-36.65039c-.92676-1.37402-.56348-3.23828.80957-4.16504,1.375-.92578,3.2373-.56445,4.16504.80957l25.85352,38.32812c.68359,1.01367.68359,2.3418,0,3.35547l-25.85352,38.3291c-.58008.85938-1.52637,1.32227-2.49023,1.32227Z" fill="#262626"/>
  <path d="M529.10824,304.59334c-.57715,0-1.16016-.16602-1.6748-.5127-1.37305-.92676-1.73633-2.79102-.80957-4.16504l24.72168-36.65137-24.72168-36.65039c-.92676-1.37402-.56348-3.23828.80957-4.16504,1.37402-.92578,3.23828-.56445,4.16504.80957l25.85352,38.32812c.68359,1.01367.68359,2.3418,0,3.35547l-25.85352,38.3291c-.58008.85938-1.52637,1.32227-2.49023,1.32227Z" fill="#262626"/>
</svg>