<?xml version="1.0" encoding="UTF-8"?>
<svg id="_アイコン_step-来店予約" data-name="★アイコン_step-来店予約" xmlns="http://www.w3.org/2000/svg" width="500" height="500" viewBox="0 0 500 500">
  <path d="M438.36508,219.42969c0-.07031-.01709-.13586-.02075-.20532-.00708-.14087-.01978-.28058-.04248-.42206-.02197-.1377-.05225-.27081-.08789-.40344-.01855-.06921-.02271-.13898-.04517-.20795l-36.87305-113.20166c-.53711-1.64697-2.07227-2.76123-3.80371-2.76123H102.50765c-1.73145,0-3.2666,1.11426-3.80371,2.76123l-36.87305,113.20166c-.02246.06903-.02686.13885-.04541.20813-.0354.13263-.06567.26562-.08765.40326-.02271.14148-.0354.28119-.04248.42206-.00366.06946-.02075.13501-.02075.20532,0,21.18781,16.20654,38.65771,36.87305,40.6748v139.66748c0,2.20898,1.79102,4,4,4h294.98438c2.20898,0,4-1.79102,4-4v-139.66748c20.6665-2.01709,36.87305-19.487,36.87305-40.6748ZM214.51522,110.22803l-5.38354,109.00439c-.00171.03369.00586.06531.00513.09882-.00098.03351-.01001.0647-.01001.09845,0,18.12646-14.74707,32.87305-32.87305,32.87305-18.01318,0-32.68237-14.56506-32.8645-32.53638l21.09058-109.53833h50.0354ZM222.52499,110.22803h54.94971l5.39648,109.26666c-.0354,18.09656-14.76709,32.80804-32.87134,32.80804s-32.83594-14.71149-32.87134-32.80804l5.39648-109.26666ZM290.86288,219.33124c-.00073-.03351.00684-.06512.00513-.09882l-5.38354-109.00439h50.0354l21.09058,109.53833c-.18213,17.97131-14.85132,32.53638-32.8645,32.53638-18.12598,0-32.87305-14.74658-32.87305-32.87305,0-.03375-.00903-.06494-.01001-.09845ZM69.6495,220.0199l35.76245-109.79187h50.92114l-20.86963,108.39093c-.00073.00348-.00122.00702-.0022.01056l-.0083.04382c-.02417.12518-.02148.24823-.03369.37262-.01221.12817-.03857.25226-.03857.38373,0,18.12646-14.74707,32.87305-32.87305,32.87305-17.92798,0-32.54102-14.42865-32.85815-32.28284ZM154.27914,395.77197v-103.13379h61.43555v103.13379h-61.43555ZM223.71468,395.77197v-107.13379c0-2.20898-1.79102-4-4-4h-69.43555c-2.20898,0-4,1.79102-4,4v107.13379h-39.77148v-135.66748c14.51465-1.41663,26.82788-10.45447,32.87305-23.05145,6.59351,13.73962,20.64307,23.24969,36.87305,23.24969s30.27954-9.51007,36.87305-23.24969c6.59351,13.73962,20.64307,23.24969,36.87305,23.24969s30.27954-9.51007,36.87305-23.24969c6.59351,13.73962,20.64307,23.24969,36.87305,23.24969s30.27954-9.51007,36.87305-23.24969c6.04517,12.59698,18.3584,21.63483,32.87305,23.05145v135.66748h-169.77734ZM397.49203,252.30273c-18.12598,0-32.87305-14.74658-32.87305-32.87305,0-.13147-.02637-.25555-.03857-.38373-.01221-.12439-.00952-.24744-.03369-.37262l-.0083-.04382c-.00098-.00354-.00146-.00708-.0022-.01056l-20.86963-108.39093h50.92114l35.76245,109.79187c-.31714,17.85419-14.93018,32.28284-32.85815,32.28284Z" fill="#a57e66"/>
  <path d="M349.72152,284.63818h-69.43555c-2.20898,0-4,1.79102-4,4v69.43555c0,2.20898,1.79102,4,4,4h69.43555c2.20898,0,4-1.79102,4-4v-69.43555c0-2.20898-1.79102-4-4-4ZM345.72152,354.07373h-61.43555v-61.43555h61.43555v61.43555Z" fill="#a57e66"/>
</svg>