<?xml version="1.0" encoding="UTF-8"?>
<svg id="_レイヤー_2" data-name="レイヤー 2" xmlns="http://www.w3.org/2000/svg" width="1920.01001" height="620.08002" viewBox="0 0 1920.01001 620.08002">
  <g id="Layer_1" data-name="Layer 1">
    <path d="M729,10.95996l-251.37,599.74005h-164l-123.70001-478.62c-7.51001-29.47998-14.03998-40.28003-36.88-52.70001C115.76001,59.15002,54.17999,40.16998,0,28.39001L3.67999,10.96002h263.98999c33.64996,0,63.89996,22.40002,71.53998,61.15002l65.32996,347.04004L565.99988,10.95007h163.00012v.00989ZM1371.58008,414.88995c.65991-158.28998-218.88-167.01001-217.37-237.71997.46997-21.52002,20.95996-44.40002,65.80994-50.23999,22.22998-2.90997,83.47998-5.13,152.94995,26.84003l27.25-127.17999c-37.33008-13.54999-85.35999-26.59003-145.12-26.59003-153.34998,0-261.27002,81.52002-262.18005,198.25-.98999,86.34003,77.03003,134.51996,135.81006,163.21002,60.46997,29.38,80.76001,48.26001,80.53003,74.54004-.43005,40.22998-48.22998,57.98999-92.90002,58.68994-77.97998,1.19995-123.22998-21.09998-159.30005-37.87l-28.12,131.39001c36.25,16.63,103.16003,31.14001,172.53003,31.87,162.98999-.00012,269.61011-80.51013,270.11011-205.19006M1776.52002,610.69989h143.48999L1794.76001,10.9599h-132.43994c-29.78003,0-54.8999,17.34003-66.02002,44l-232.81006,555.73999h162.90991l32.34009-89.57996h199.05005l18.72998,89.57996ZM1603.40991,398.19989l81.65991-225.17999,47,225.17999h-128.65991ZM950.67004,10.95996l-128.29004,599.74005h-155.14001L795.57996,10.96002h155.09009v-.00006Z" fill="#1434cb"/>
  </g>
</svg>