<?xml version="1.0" encoding="UTF-8"?>
<svg id="_アイコン_step-ホームステイ" data-name="★アイコン_step-ホームステイ" xmlns="http://www.w3.org/2000/svg" width="500" height="500" viewBox="0 0 500 500">
  <path d="M249.99984,128.69922c-83.05566,0-150.62598,54.41504-150.62598,121.30078,0,24.88428,9.21777,48.66895,26.69727,68.98584-25.33398,33.49268-34.00391,37.77686-36.08984,38.28662-2.00684.49072-3.30957,2.42871-3.00684,4.47266.30371,2.04395,2.12012,3.5249,4.17578,3.40723,2.03223-.11133,48.38574-2.80322,69.96484-17.19971,25.91602,15.28271,56.58594,23.34814,88.88477,23.34814,83.05566,0,150.62598-54.41504,150.62598-121.30078s-67.57031-121.30078-150.62598-121.30078ZM249.99984,363.30078c-31.77637,0-61.85645-8.14062-86.9873-23.5415-.64355-.39453-1.36719-.58936-2.08984-.58936-.86816,0-1.7334.28223-2.45117.83887-12.03809,9.33447-37.05078,13.78271-53.08789,15.75244,6.41602-6.20557,15.66406-16.69824,29.04688-34.58105,1.14746-1.5332,1.04785-3.66406-.23828-5.08301-17.54492-19.35449-26.81836-42.21045-26.81836-66.09717,0-62.47412,63.98145-113.30078,142.62598-113.30078s142.62598,50.82666,142.62598,113.30078-63.98145,113.30078-142.62598,113.30078Z" fill="#a57e66"/>
  <circle cx="214.15707" cy="253.7196" r="8" fill="#a57e66"/>
  <circle cx="250.00009" cy="253.7196" r="8" fill="#a57e66"/>
  <circle cx="285.84298" cy="253.7196" r="8" fill="#a57e66"/>
</svg>