<?xml version="1.0" encoding="UTF-8"?>
<svg id="_アイコン_わんにゃんサポートのコピー_2" data-name="★★アイコン_わんにゃんサポートのコピー 2" xmlns="http://www.w3.org/2000/svg" width="500" height="500" viewBox="0 0 500 500">
  <path d="M365.57967,250c11.81116-37.80634,17.71985-73.17963,20.49146-94.40869-59.58325-4.98962-114.51135-28.87268-136.07031-39.28864v133.69733h115.57886Z" fill="#c6bdb7"/>
  <g>
    <path d="M250.61752,113.37128c-.0708-.01489-.14209-.01428-.21338-.02399-.04285-.00586-.08569-.0105-.12866-.01447-.08862-.00824-.17603-.02948-.26501-.02979-.03528-.00012-.06995.00812-.10535.00922-.08496.00269-.16748.01843-.25195.02832-.04456.00519-.08911.00781-.13354.01501-.05957.00964-.12012.00684-.1792.02008-.04773.01074-.09253.0343-.13989.04742-.08813.02448-.17212.05792-.25806.09052-.0824.03119-.16833.04834-.24829.08698-5.86304,2.83252-14.41895,6.76385-25.00781,11.06232-27.06055,10.98499-67.39917,24.3678-110.00684,27.93768-.81641.06885-1.56934.46826-2.08398,1.10645-.51465.6377-.74609,1.4585-.63965,2.27148.09668.74121.19702,1.49689.30029,2.26373.0387.2879.07983.58411.11938.87524.06396.47028.12769.9389.19421,1.41833.06213.44775.12695.90479.19104,1.35968.04492.31769.08887.6319.13477.95331.07959.55725.16199,1.12335.24463,1.69086.03345.22906.06616.45575.10022.68658.0957.65076.19409,1.31012.29395,1.97369.02063.13715.04089.27313.06189.41089.11304.74786.22913,1.50446.34766,2.26807.00769.04987.01538.09937.02307.14923,3.71948,23.935,10.12219,55.4837,21.00061,88.36884,12.10352,36.58496,27.33789,67.5127,45.2793,91.92334,1.55103,2.11029,3.13062,4.15436,4.72339,6.16699,4.10767,5.19019,8.35571,10.04834,12.73438,14.58295,15.75781,16.31897,33.22681,28.38885,52.18188,35.96246.03198.01276.0658.01709.09802.02875.11206.04041.22546.07312.34094.09985.05591.01294.11084.02795.16711.03766.15881.02728.31897.04401.48035.04553.00903.00006.01782.00256.02686.00256.00659,0,.01318-.00183.0199-.00189.16479-.00104.32849-.01855.4906-.04651.05298-.00916.10474-.02332.15723-.0354.12036-.02747.23877-.06183.35547-.10419.02966-.0108.06079-.01465.09009-.02637,1.6416-.65588,3.27222-1.3454,4.8916-2.0683,4.81226-2.14813,9.52429-4.59424,14.13403-7.32941.04309-.02557.08716-.04852.13013-.0741,7.46509-4.44,14.65332-9.6604,21.55811-15.61743,2.42834-2.09497,4.81689-4.29224,7.17297-6.57239,1.39087-1.34607,2.76892-2.72424,4.13416-4.13452,2.03784-2.10486,4.0564-4.25714,6.03613-6.50433,3.98083-4.51837,7.84338-9.32355,11.5835-14.41193,4.4856-6.10315,8.80188-12.61346,12.94226-19.51752,12.42114-20.71222,23.25916-44.9682,32.33606-72.40582,10.87476-32.87311,17.2782-64.41986,21-88.3576.00854-.05554.01709-.11072.02576-.1662.11755-.7572.23279-1.50745.34485-2.24915.02246-.1474.04419-.29279.06616-.43958.09839-.65308.19531-1.30206.28955-1.94257.03723-.25275.073-.50104.10962-.75165.07898-.54205.15796-1.08344.23401-1.61615.04797-.3349.09375-.66266.1405-.99347.06433-.45575.12915-.91333.19141-1.36194.05859-.42212.1145-.83411.17114-1.24908.04749-.34778.09631-.70032.14258-1.04352.10242-.76105.20203-1.5108.2981-2.24658.10645-.8125-.125-1.6333-.63965-2.27148s-1.26758-1.0376-2.08496-1.10645c-1.85242-.15515-3.70068-.3288-5.54358-.52002-7.10681-.73737-14.13318-1.74091-21.03369-2.94275-2.49768-.43506-4.97595-.89838-7.4375-1.38397-45.40662-8.95764-84.22742-26.04944-101.00281-34.15424-.10742-.05194-.22192-.07843-.3335-.11682-.09753-.03363-.19165-.07898-.29163-.10223-.02014-.0047-.04065-.00598-.06091-.01025ZM136.54257,246.7099c-.25854-.84332-.51392-1.68518-.76685-2.52563-.0614-.2041-.12329-.40833-.18433-.61218-.29187-.97485-.58032-1.94781-.8645-2.91833-.01489-.05084-.02991-.10187-.0448-.15271-8.09619-27.68353-13.07703-53.55249-16.09253-73.38458-.01501-.099-.02991-.19714-.0448-.2959-.09827-.64838-.19458-1.29083-.28857-1.92609-.02954-.19897-.05811-.3952-.08716-.59296-.08081-.5495-.16089-1.09705-.23865-1.63629-.04346-.30194-.08533-.59851-.12781-.8974-.06201-.43439-.12451-.87097-.18433-1.29834-.10254-.73224-.203-1.45715-.30005-2.17017,1.77026-.16815,3.53564-.35352,5.29614-.55322.59534-.0675,1.18677-.14581,1.78076-.21686,1.16431-.13916,2.3291-.27667,3.48828-.42883.70154-.09204,1.39819-.19464,2.0979-.29132,1.04529-.14441,2.09155-.28644,3.1322-.44086.74475-.11053,1.48425-.23053,2.22644-.34601.99048-.15411,1.98169-.30609,2.96753-.46869.75952-.12531,1.51392-.25885,2.27051-.38904.96094-.16541,1.92249-.32941,2.87842-.50238.76733-.13892,1.52917-.28467,2.29297-.42828.93616-.17603,1.87244-.35126,2.80322-.53412.77075-.15143,1.53601-.30865,2.30298-.4646.91638-.18634,1.83228-.37262,2.74304-.56519.76672-.16217,1.52844-.32898,2.29102-.49536.90125-.19666,1.80139-.39368,2.69653-.59595.76038-.17188,1.51587-.34729,2.27173-.52301.8866-.20612,1.77112-.41315,2.65112-.62433.75427-.18103,1.50403-.36481,2.2533-.54938.87024-.21442,1.73792-.43011,2.60132-.64911.74487-.1889,1.4856-.37964,2.2251-.57178.85767-.22278,1.71167-.44727,2.56201-.67413.7312-.19507,1.45886-.39136,2.18433-.58923.8479-.23126,1.69092-.46436,2.53101-.69928.71399-.19971,1.42554-.3999,2.13379-.60205.83667-.23877,1.66748-.47949,2.49585-.72144.69934-.20422,1.39697-.40857,2.09021-.61493.82458-.24542,1.64185-.49274,2.4574-.74078.68042-.20691,1.36011-.41357,2.03394-.62219.81665-.25281,1.62476-.50726,2.43188-.76221.65674-.20752,1.31433-.41455,1.96472-.62341.81152-.26056,1.61267-.52252,2.41394-.78479.63013-.20624,1.26196-.41193,1.8855-.61908.80664-.26801,1.60132-.53705,2.39673-.80634.60181-.20367,1.20703-.40686,1.80225-.61115.8092-.27771,1.60449-.55591,2.40137-.83429.56226-.19653,1.12964-.39258,1.68579-.58929.81787-.28937,1.62012-.57861,2.42407-.86816.51965-.18707,1.0459-.37402,1.55957-.56104.84814-.30878,1.6781-.61682,2.50977-.92505.44897-.16632.90601-.33295,1.34998-.49902.93518-.34991,1.8501-.69818,2.76318-1.04633.32532-.12408.65991-.2489.98254-.37268,2.46777-.94733,4.85107-1.88599,7.14404-2.80945.27393-.11035.5354-.21838.80664-.32825.85669-.34686,1.70996-.69318,2.54028-1.03503.40088-.1651.78503-.32648,1.17969-.49023.68396-.28387,1.37012-.56812,2.03503-.84778.42542-.17889.83374-.3537,1.25122-.5307.61218-.25964,1.22681-.51978,1.82166-.77509.42554-.18262.83423-.3606,1.25073-.54089.56323-.24371,1.12781-.48767,1.67419-.72675.41467-.18146.81335-.35803,1.21814-.53668.52295-.23071,1.04614-.46136,1.55273-.68713.40649-.18121.79761-.3573,1.19312-.53516.47437-.21313.94775-.42578,1.40625-.63379.3999-.18146.78516-.35785,1.17285-.53522.43091-.19714.8595-.39325,1.27515-.58508.37842-.17462.74341-.3443,1.10901-.51434.23743-.11047.48962-.22626.72156-.33472v125.95215h-110.36841c-.02979-.09662-.06018-.19348-.08984-.2901ZM165.44613,317.1944c-9.71338-17.89465-18.34106-38.19073-25.78125-60.68219-.38794-1.17255-.77002-2.34332-1.14648-3.51221h108.48242l-.00098,146.7088c-.27673-.12201-.55579-.23688-.83191-.3609-.69617-.31281-1.38818-.63812-2.08008-.96387-.80176-.3775-1.60217-.75891-2.39819-1.15387-.68555-.34015-1.36755-.69086-2.04895-1.04388-.79297-.41101-1.58398-.82758-2.37109-1.25598-.67407-.36676-1.34509-.74219-2.01465-1.1217-.78528-.44507-1.56787-.89771-2.34717-1.36029-.66113-.39252-1.32007-.79156-1.97681-1.19672-.7771-.47931-1.55103-.9679-2.32202-1.46478-.64978-.4187-1.29785-.84216-1.94324-1.27332-.76819-.51331-1.53235-1.0376-2.29431-1.56848-.63745-.44403-1.27393-.89093-1.90686-1.34729-.76038-.54816-1.51599-1.10938-2.2699-1.67529-.62427-.46857-1.24817-.93787-1.86792-1.41858-.75244-.58344-1.49927-1.18158-2.24512-1.7829-.61133-.49274-1.2229-.98444-1.82971-1.48914-.74377-.61859-1.48132-1.25372-2.21838-1.8902-.59839-.51685-1.198-1.03076-1.79224-1.55945-.73633-.65527-1.46594-1.32892-2.19556-2.00238-.58301-.53802-1.16772-1.07123-1.74634-1.62079-.73193-.69531-1.45618-1.41077-2.18115-2.12445-.56567-.55695-1.13379-1.10706-1.69519-1.67517-.7312-.73999-1.45374-1.50201-2.17761-2.26099-.54321-.56976-1.08997-1.1308-1.62915-1.71118-.73584-.79205-1.46204-1.60809-2.18994-2.41998-.51685-.57635-1.03772-1.14203-1.55054-1.72833-.75293-.86084-1.49512-1.74768-2.2395-2.62994-.47607-.56458-.9574-1.11652-1.43005-1.68982-.81262-.9856-1.61353-1.99963-2.41565-3.01105-.39343-.49622-.79272-.97845-1.18359-1.4809-1.18701-1.52557-2.36292-3.07794-3.52612-4.66058-6.58777-8.9632-12.80664-18.83545-18.63477-29.5722ZM315.91976,346.7666c-1.16394,1.58344-2.34058,3.13672-3.5282,4.66302-.38171.49054-.77161.9613-1.15588,1.44592-.81104,1.02332-1.62146,2.04877-2.44336,3.04565-.46802.56757-.94458,1.11395-1.41602,1.67291-.74902.88806-1.49622,1.78052-2.25391,2.64691-.50952.58258-1.02734,1.14459-1.54077,1.71735-.73096.81531-1.46021,1.6347-2.19922,2.43005-.53784.57904-1.08325,1.13873-1.62537,1.70715-.72522.76044-1.4491,1.52386-2.18176,2.2652-.55908.56592-1.12512,1.11389-1.68848,1.66864-.72766.71637-1.45459,1.43445-2.18921,2.13226-.57544.54651-1.15698,1.07666-1.73657,1.61176-.73328.67676-1.46631,1.35364-2.20654,2.01215-.59131.52612-1.18799,1.0376-1.78369,1.55206-.73914.63837-1.47876,1.27527-2.22461,1.89557-.60596.50397-1.2168.99493-1.82715,1.487-.74634.60175-1.4939,1.20038-2.24683,1.7843-.62012.4809-1.24438.9505-1.8689,1.41925-.75305.56525-1.50781,1.12573-2.26709,1.67328-.63428.45728-1.27197.90503-1.91064,1.34991-.76025.52979-1.52295,1.0531-2.28955,1.56531-.64746.43262-1.29773.85742-1.94958,1.2774-.76843.49518-1.53967.98224-2.31433,1.45996-.65894.40637-1.31982.80682-1.98315,1.2005-.77759.46161-1.55847.91321-2.34204,1.3573-.67139.38055-1.34412.7569-2.01978,1.12463-.78442.42688-1.57275.84198-2.36279,1.25153-.68457.35474-1.36963.70703-2.05835,1.04871-.79199.39288-1.5885.77234-2.38623,1.14801-.69604.32776-1.39233.65509-2.09265.96973-.27429.12323-.55139.23724-.82629.3584v-146.70844h108.48047c-.37646,1.16888-.75854,2.33966-1.14648,3.51221-11.90332,35.98486-26.84668,66.35059-44.41504,90.25439ZM382.38082,160.4881c-.04919.35132-.10095.71088-.15149,1.06696-.05469.38477-.10889.76794-.16504,1.15771-.06714.46503-.13647.93768-.20581,1.4104-.04102.27881-.08154.55646-.12305.83771-.08093.54529-.16382,1.09729-.2478,1.65234-.03101.20532-.06177.41034-.09326.61688-.09717.63849-.19653,1.2829-.29785,1.93372-.01636.10529-.03271.21069-.04932.31628-.11414.7309-.23047,1.46814-.34998,2.21405-.00195.01221-.00403.02454-.00598.0368-3.06763,19.14337-7.88623,43.16174-15.36035,68.72473-.02563.08746-.05127.17499-.0769.26245-.27539.93945-.55444,1.88116-.83691,2.82465-.06921.23108-.13928.46259-.20898.69391-.2478.82306-.49768,1.64722-.75098,2.47302-.02966.09662-.06006.1936-.08984.29028h-110.36646v-125.9502c.2373.11102.49524.22937.73828.34247.35547.16534.70996.33014,1.07764.49982.42822.19769.86987.39978,1.31421.60309.37646.17218.75037.34332,1.13831.51935.46118.20929.93726.42316,1.41443.63763.39758.17871.79089.35583,1.19946.53796.50281.22418,1.02234.45312,1.5415.68219.40601.1792.80603.35638,1.22192.53839.53662.23486,1.09106.4743,1.6438.71362.43188.18695.85645.37189,1.2981.5614.57056.24487,1.16028.49432,1.74683.74316.43945.18652.87012.37067,1.31836.5592.63538.26721,1.2915.53888,1.94434.81.42627.177.84229.35168,1.27588.53027.72266.29755,1.46753.59924,2.21008.90057.38477.15619.75818.31018,1.14832.46729,2.27905.91772,4.64722,1.85046,7.09888,2.79175.43408.16669.88342.33453,1.32275.50171.80078.30469,1.59863.60913,2.4165.9151.52417.19617,1.06323.39288,1.59436.58942.75305.27869,1.50208.55701,2.26868.83612.56946.20734,1.15234.41461,1.72913.62207.74719.2688,1.49133.53735,2.25037.80597.604.21368,1.21985.4267,1.83118.64014.74951.26166,1.49658.52325,2.25696.78424.63599.21826,1.28223.4353,1.92566.65295.7533.25482,1.505.50952,2.26843.76318.66162.21997,1.33228.43829,2.00146.65717.76318.24976,1.526.49921,2.29858.74731.68359.21954,1.37463.43719,2.06543.65527.77344.2442,1.54712.48798,2.32935.73016.70435.21814,1.41479.43414,2.12622.65039.78625.23907,1.57373.47729,2.36816.71387.71729.2135,1.43921.42505,2.16296.63635.80481.23499,1.61169.46863,2.42432.70068.73035.20856,1.46423.41504,2.20081.62097.81812.2287,1.63916.45569,2.46472.68097.74463.20325,1.4917.40466,2.24231.60486.8313.22174,1.66602.44104,2.50439.65887.75818.19702,1.51782.39264,2.28162.5863.84192.2135,1.68774.42371,2.53625.63287.77112.19006,1.54297.37909,2.31934.56543.85693.20557,1.71838.40717,2.58154.60791.77747.18085,1.55481.36127,2.33716.53802.87317.19727,1.75122.38947,2.63013.5813.78296.1709,1.56494.34204,2.35205.50842.89233.18866,1.78992.37103,2.68774.55371.78394.15948,1.56641.32013,2.35449.47491.91138.17902,1.82837.35052,2.74487.52301.78247.14716,1.56274.29645,2.34863.43866.94226.17047,1.89014.33197,2.83716.49506.76782.1322,1.53345.26764,2.30444.39478.9762.16101,1.95801.31146,2.93884.46411.75159.11694,1.50073.2384,2.255.35028,1.02612.15222,2.05786.29211,3.0885.43463.71411.09875,1.42542.20337,2.14172.2973,1.15527.15155,2.31616.28864,3.47656.42731.5957.07117,1.18896.14966,1.78589.21735,1.76099.19971,3.52686.38501,5.29761.55316-.0979.71881-.1991,1.4494-.30261,2.18781Z" fill="#262626"/>
    <path d="M410.41097,134.46289c-.56641-.60449-1.3584-.94727-2.1875-.94727-.19727.00195-.37988.00098-.57715.00098-77.21777,0-155.43555-41.83105-156.21875-42.25439-.89062-.48242-1.96484-.48242-2.85547,0-.7832.42334-78.99609,42.25488-156.21777,42.25439-.19238,0-.39941.00586-.57715-.00098-.8291,0-1.62109.34277-2.1875.94727-.56934.60693-.86133,1.42236-.80566,2.25195.04004.60596,4.28223,61.33447,25.93164,127.16113,12.74512,38.75195,28.94629,71.70117,48.15332,97.93164,24.14648,32.97656,53.1377,55.38184,86.16699,66.59229.3125.10596.6377.15918.96387.15918s.65137-.05322.96387-.15918c33.0293-11.21045,62.02051-33.61572,86.16797-66.59229,19.20703-26.23047,35.4082-59.17969,48.15332-97.93164,21.64941-65.82666,25.8916-126.55518,25.93164-127.16113.05566-.82959-.23633-1.64502-.80566-2.25195ZM379.54672,262.11914c-12.55078,38.12744-28.46289,70.49219-47.29395,96.19531-23.16016,31.61084-50.83008,53.16357-82.25293,64.07275-31.42188-10.90918-59.09277-32.46191-82.25195-64.07275-18.83105-25.70312-34.74316-58.06787-47.29395-96.19531-18.62402-56.58008-24.24316-109.35498-25.42285-122.61914,72.0752-.875,144.0166-36.55811,154.96875-42.21289,10.95312,5.65527,82.88867,41.34277,154.96973,42.21289-1.17969,13.26416-6.79883,66.03906-25.42285,122.61914Z" fill="#262626"/>
  </g>
</svg>