<?xml version="1.0" encoding="UTF-8"?>
<svg id="_レイヤー_21" data-name="レイヤー 21" xmlns="http://www.w3.org/2000/svg" width="500" height="500" viewBox="0 0 500 500">
  <path d="M257.02267,334.33581c-32.96426,0-63.66582-17.70986-80.1254-46.21914-12.34024-21.37393-15.61875-46.27451-9.22988-70.11485,6.3875-23.83965,21.67676-43.76504,43.05137-56.10528,14.04785-8.11152,29.98789-12.39834,46.09473-12.39834,32.96426,0,63.66582,17.70986,80.1254,46.21846,25.47481,44.12393,10.30313,100.746-33.82012,126.22081-14.04785,8.11084-29.98789,12.39834-46.0961,12.39834Z" fill="#e8d7c1"/>
  <g>
    <path d="M257.02278,338.53594c16.84375,0,33.50977-4.48164,48.1961-12.96094,46.12891-26.63281,61.98965-85.82862,35.35684-131.95821-17.20742-29.80401-49.30215-48.31846-83.76211-48.31846-16.84512,0-33.50977,4.48164-48.19473,12.96094-22.34668,12.90147-38.33047,33.73194-45.00782,58.65577-6.68008,24.92315-3.25254,50.95576,9.64961,73.30176,17.20606,29.80401,49.30215,48.31914,83.76211,48.31914ZM171.72394,219.08886c6.09766-22.75615,20.69238-41.77578,41.09492-53.55479,13.40938-7.74307,28.62207-11.83574,43.99473-11.83574,31.46856,0,60.77696,16.90527,76.48868,44.11846,24.3168,42.11826,9.83418,96.16661-32.2834,120.48341-13.41074,7.74307-28.62481,11.83574-43.9961,11.83574-31.46856,0-60.77696-16.90527-76.48868-44.11914-11.77969-20.40322-14.90781-44.17178-8.81016-66.92793Z" fill="#262626"/>
    <path d="M402.9181,447.19796l-38.98809-67.53044v-92.46939c2.06411-4.90632,3.82676-9.97611,5.22813-15.20663,6.7833-25.31579,4.8665-51.57168-5.22813-75.31597v-99.99781c0-17.75498-14.44434-32.2-32.2-32.2h-149.68106c-17.75567,0-32.2,14.44502-32.2,32.2v100.25108c-11.78311,28.13655-12.42774,60.59965,0,90.06365v101.29954c0,17.75498,14.44434,32.2,32.2,32.2h149.68106c.26455,0,.52979-.01555.79502-.02205l29.17237,50.52801c.55645.96455,1.47383,1.66865,2.5498,1.95713.3582.0957.72324.14287,1.08691.14287.73145,0,1.45605-.19072,2.1-.5626l33.94727-19.6c2.0084-1.16006,2.69746-3.72832,1.53672-5.7374ZM355.53001,365.118l-9.67832-16.7636c-.40947-.70974-1.0165-1.27482-1.73633-1.64071v-27.95215c4.21436-4.77336,8.04624-9.86708,11.41465-15.27772v61.63418ZM304.62962,372.1544l9.46777,16.39873h-134.05548c-1.09102,0-1.97832-.88799-1.97832-1.979v-59.25288c13.66572,12.64862,30.28047,21.87919,48.77989,26.83618,10.01055,2.68242,20.17012,4.00928,30.26406,4.00928,15.07632,0,30.00498-2.96193,44.07095-8.78905l8.62559,14.93909-3.63774,2.10026c-.96523.55713-1.66797,1.47451-1.95645,2.55049s-.13809,2.22236.41973,3.18691ZM311.85691,344.30633c1.06743-.57234,2.12256-1.15758,3.1606-1.75701,1.43145-.82655,2.85161-1.70343,4.26357-2.60193.3958-.25122.79194-.5015,1.18398-.75708.16885-.11031.34077-.21431.50928-.32556l8.22773,14.25225-12.12422,7-8.22773-14.25156c.30693-.15347.60669-.31693.91191-.47288.7-.35829,1.40068-.71307,2.09487-1.08623ZM335.71536,347.59843l-7.8791-13.64607c2.73472-2.09838,5.36006-4.31014,7.8791-6.62531v20.27138ZM158.24894,96.67772c0-13.12363,10.67637-23.8,23.8-23.8h149.68106c13.12363,0,23.8,10.67637,23.8,23.8v83.83039c-3.41626-5.49524-7.22046-10.66663-11.41465-15.44503v-66.66748c0-5.72305-4.65527-10.379-10.37832-10.379h-40.54395c-2.32012,0-4.2,1.88057-4.2,4.2v7.08408c0,1.09102-.88867,1.979-1.97969,1.979h-60.24786c-1.09102,0-1.97969-.88799-1.97969-1.979v-7.08408c0-2.31943-1.87988-4.2-4.2-4.2h-40.54395c-5.72305,0-10.37832,4.65596-10.37832,10.379v66.81924c-4.24717,4.83976-8.06914,9.97996-11.41465,15.38334v-83.92045ZM226.76555,109.67968h60.24786c5.72305,0,10.37969-4.65596,10.37969-10.379v-2.88408h36.34395c1.09102,0,1.97832.88799,1.97832,1.979v58.06745c-13.65581-12.62264-30.24971-21.83698-48.72246-26.78688-29.98242-8.03223-61.29375-3.91016-88.1754,11.60811-7.62754,4.40388-14.54038,9.57014-20.75391,15.31182v-58.20049c0-1.09102.8873-1.979,1.97832-1.979h36.34395v2.88408c0,5.72305,4.65664,10.379,10.37969,10.379ZM203.0175,148.55907c16.61133-9.59082,35.04375-14.48877,53.725-14.48877,9.3625,0,18.79063,1.23115,28.07656,3.71943,27.8127,7.45254,51.05899,25.29024,65.45684,50.22705,14.39649,24.93682,18.22188,53.9875,10.76934,81.8002-6.50884,24.29185-20.9419,45.09796-41.10586,59.56956-.01606.01119-.03452.01743-.05059.02888-2.93945,2.10957-5.99238,4.08105-9.07129,5.85908s-6.31231,3.43506-9.60859,4.92529c-.01914.00854-.03452.02239-.05332.03119-22.61431,10.22571-47.84746,12.32101-72.13829,5.81285-27.8127-7.45322-51.05899-25.29024-65.45684-50.22705-29.71992-51.47735-12.02031-117.53712,39.45703-147.25772ZM182.04894,412.092c-13.12363,0-23.8-10.67637-23.8-23.8v-85.06009c3.41592,5.5066,7.21841,10.69013,11.41465,15.47802v67.8642c0,5.72305,4.65527,10.379,10.37832,10.379h138.90557l8.74043,15.13887h-145.63897ZM366.87083,463.16056l-52.86778-91.56876,3.63604-2.09923c.00068-.00034.00137-.00043.00205-.00077l9.69951-5.6,13.3376-7.7,52.86641,91.56876-26.67383,15.4Z" fill="#262626"/>
    <circle cx="222.99758" cy="223.05277" r="11.2" fill="#262626"/>
    <path d="M238.43176,293.27656c6.71426,0,12.44551-2.42061,16.57305-7,.68906-.76469,1.31113-1.57295,1.88467-2.40779.57354.83484,1.19526,1.6431,1.88467,2.40779,4.12754,4.57939,9.85879,7,16.57305,7,3.09258,0,5.6-2.50742,5.6-5.6s-2.50742-5.6-5.6-5.6c-3.59434,0-6.2125-1.04316-8.23867-3.28193-2.62603-2.90126-3.87598-7.4234-4.41978-11.61434,3.2334-1.96422,5.40073-5.50857,5.40073-9.56826,0-6.18558-5.0145-11.2-11.2-11.2-6.18584,0-11.2,5.01442-11.2,11.2,0,4.05952,2.16699,7.60387,5.40005,9.56809-.54346,4.19094-1.79307,8.71309-4.41909,11.61451-2.02617,2.23945-4.64434,3.28193-8.23867,3.28193-3.09258,0-5.6,2.50742-5.6,5.6s2.50742,5.6,5.6,5.6Z" fill="#262626"/>
    <circle cx="290.78137" cy="223.05277" r="11.2" fill="#262626"/>
  </g>
</svg>