<?xml version="1.0" encoding="UTF-8"?>
<svg id="_アイコン_step-採用" data-name="★アイコン_step-採用" xmlns="http://www.w3.org/2000/svg" width="500" height="500" viewBox="0 0 500 500">
  <path d="M329.99984,178.35498h-160c-32.5332,0-59,26.46729-59,59s26.4668,59,59,59h47.05981l-8.20923,12.46338c-.80859,1.22852-.87891,2.80225-.18066,4.09766.69824,1.29492,2.0498,2.10254,3.52148,2.10254h23.49023v68.5249c0,2.20898,1.79102,4,4,4s4-1.79102,4-4v-72.5249c0-2.20898-1.79102-4-4-4h-20.06543l30.38379-46.12939,22.19702,33.69904c.00122.00177.00244.0036.00366.00537l8.18408,12.42499h-20.06641c-2.20898,0-4,1.79102-4,4v72.5249c0,2.20898,1.79102,4,4,4s4-1.79102,4-4v-68.5249h23.49121c1.47168,0,2.82324-.80762,3.52148-2.10303.69824-1.29492.62793-2.86865-.18066-4.09717l-8.20947-12.46338h47.05908c32.5332,0,59-26.46729,59-59.00049s-26.4668-58.99951-59-58.99951ZM329.99984,288.35498h-52.32861l-24.33057-36.93799c-.74023-1.12354-1.99512-1.7998-3.34082-1.7998s-2.60059.67627-3.34082,1.7998l-24.32996,36.93799h-52.32922c-28.12109,0-51-22.87891-51-51.00049s22.87891-50.99951,51-50.99951h160c28.12109,0,51,22.87842,51,51s-22.87891,51-51,51Z" fill="#a57e66"/>
  <path d="M129.31918,180.20703c.48047,1.78613,2.0957,2.96338,3.86035,2.96338.34375,0,.69336-.04443,1.04102-.1377,2.13281-.57324,3.39844-2.76758,2.8252-4.90088l-12.70508-47.29443c-.57422-2.13428-2.77148-3.40186-4.90137-2.8252-2.13281.57275-3.39844,2.76709-2.8252,4.90039l12.70508,47.29443Z" fill="#a57e66"/>
  <path d="M113.78207,204.29785c.70801-2.09277-.41504-4.36279-2.50781-5.0708l-46.38867-15.69092c-2.0918-.70752-4.3623.41504-5.07031,2.50732-.70801,2.09277.41504,4.36279,2.50781,5.0708l46.38867,15.69092c.4248.14355.85645.21191,1.28125.21191,1.66797,0,3.22461-1.05176,3.78906-2.71924Z" fill="#a57e66"/>
</svg>