<svg width="78" height="150" viewBox="0 0 78 150" fill="none" xmlns="http://www.w3.org/2000/svg">
<path d="M17.5004 13.2643C21.2779 10.4395 19.1076 7.72445 19.5718 5.8462C20.0361 3.96796 16.5228 -1.31529 11.9116 4.04687L10.2531 5.28707C3.80813 8.19285 7.87423 13.0627 9.80548 13.1496C11.7367 13.2364 13.7228 16.0892 17.5004 13.2643Z" fill="#8C7A6F"/>
<path d="M22.4299 10.711C21.1002 9.78602 20.6248 8.16877 21.3682 7.09874C22.1115 6.02874 23.792 5.91112 25.1217 6.83608C26.4514 7.76102 26.5963 9.1484 25.8529 10.2184C25.1096 11.2884 23.7596 11.6359 22.4299 10.711Z" fill="#8C7A6F"/>
<path d="M20.8701 16.7602C19.3974 15.7358 18.8557 13.9666 19.6602 12.8085C20.4647 11.6504 22.3107 11.5421 23.7834 12.5665C25.2561 13.5909 25.4318 15.1056 24.6273 16.2636C23.8228 17.4217 22.3428 17.7846 20.8701 16.7602Z" fill="#8C7A6F"/>
<path d="M13.6579 17.2712C13.1487 15.7327 11.7339 14.818 10.4979 15.2281C9.26194 15.6382 8.67283 17.2178 9.18212 18.7563C9.69138 20.2948 10.9796 20.8271 12.2156 20.417C13.4515 20.0069 14.1672 18.8096 13.6579 17.2712Z" fill="#8C7A6F"/>
<path d="M19.895 17.4902C19.331 15.7863 17.7894 14.7648 16.4517 15.2086C15.1141 15.6525 14.4869 17.3936 15.051 19.0975C15.615 20.8014 17.0165 21.3994 18.3541 20.9555C19.6918 20.5117 20.4591 19.1941 19.895 17.4902Z" fill="#8C7A6F"/>
<path d="M13.2904 54.6276C17.068 51.8027 14.8976 49.0877 15.3619 47.2095C15.8262 45.3312 12.3129 40.048 7.7016 45.4102L6.04316 46.6504C-0.401828 49.5561 3.66427 54.426 5.59552 54.5128C7.52677 54.5997 9.51285 57.4525 13.2904 54.6276Z" fill="#8C7A6F"/>
<path d="M18.2199 52.0742C16.8902 51.1493 16.4149 49.5321 17.1582 48.462C17.9015 47.392 19.582 47.2744 20.9117 48.1994C22.2414 49.1243 22.3863 50.5117 21.643 51.5817C20.8997 52.6517 19.5496 52.9992 18.2199 52.0742Z" fill="#8C7A6F"/>
<path d="M16.6601 58.1235C15.1874 57.0991 14.6458 55.3298 15.4503 54.1718C16.2547 53.0137 18.1007 52.9054 19.5734 53.9298C21.0461 54.9542 21.2218 56.4689 20.4173 57.6269C19.6128 58.785 18.1328 59.1479 16.6601 58.1235Z" fill="#8C7A6F"/>
<path d="M9.44797 58.6345C8.93871 57.096 7.52391 56.1813 6.28793 56.5914C5.05197 57.0015 4.46287 58.5811 4.97216 60.1196C5.48141 61.658 6.76965 62.1904 8.00563 61.7803C9.24158 61.3702 9.95726 60.1729 9.44797 58.6345Z" fill="#8C7A6F"/>
<path d="M15.6841 58.8539C15.1201 57.15 13.5784 56.1286 12.2408 56.5724C10.9031 57.0162 10.276 58.7573 10.84 60.4612C11.4041 62.1651 12.8055 62.7632 14.1432 62.3193C15.4808 61.8755 16.2481 60.5578 15.6841 58.8539Z" fill="#8C7A6F"/>
<path d="M38.8197 79.4797C42.5973 76.6548 40.4269 73.9398 40.8912 72.0615C41.3555 70.1833 37.8422 64.9 33.2309 70.2622L31.5725 71.5024C25.1275 74.4082 29.1936 79.278 31.1248 79.3649C33.0561 79.4517 35.0421 82.3045 38.8197 79.4797Z" fill="#8C7A6F"/>
<path d="M43.7502 76.9258C42.4205 76.0009 41.9452 74.3836 42.6885 73.3136C43.4318 72.2436 45.1123 72.126 46.442 73.0509C47.7717 73.9759 47.9166 75.3632 47.1733 76.4332C46.4299 77.5033 45.0799 77.8508 43.7502 76.9258Z" fill="#8C7A6F"/>
<path d="M42.1904 82.9755C40.7177 81.9511 40.176 80.1819 40.9805 79.0238C41.785 77.8658 43.631 77.7574 45.1037 78.7818C46.5764 79.8062 46.7521 81.3209 45.9476 82.479C45.1431 83.637 43.6631 83.9999 42.1904 82.9755Z" fill="#8C7A6F"/>
<path d="M34.9773 83.486C34.468 81.9476 33.0532 81.0328 31.8172 81.4429C30.5813 81.8531 29.9922 83.4327 30.5015 84.9711C31.0107 86.5096 32.2989 87.042 33.5349 86.6319C34.7709 86.2218 35.4866 85.0245 34.9773 83.486Z" fill="#8C7A6F"/>
<path d="M41.2154 83.705C40.6513 82.0011 39.1097 80.9796 37.7721 81.4235C36.4344 81.8673 35.8073 83.6084 36.3713 85.3123C36.9353 87.0162 38.3368 87.6142 39.6744 87.1704C41.0121 86.7265 41.7794 85.4089 41.2154 83.705Z" fill="#8C7A6F"/>
<path d="M32.2504 119.893C36.0279 117.068 33.8576 114.353 34.3219 112.475C34.7861 110.596 31.2728 105.313 26.6616 110.675L25.0031 111.915C18.5581 114.821 22.6242 119.691 24.5555 119.778C26.4867 119.865 28.4728 122.718 32.2504 119.893Z" fill="#8C7A6F"/>
<path d="M37.1789 117.34C35.8492 116.415 35.3739 114.798 36.1172 113.728C36.8605 112.658 38.541 112.54 39.8707 113.465C41.2004 114.39 41.3453 115.777 40.602 116.847C39.8587 117.917 38.5086 118.265 37.1789 117.34Z" fill="#8C7A6F"/>
<path d="M35.6211 123.389C34.1484 122.364 33.6067 120.595 34.4112 119.437C35.2157 118.279 37.0617 118.171 38.5344 119.195C40.0071 120.219 40.1827 121.734 39.3782 122.892C38.5738 124.05 37.0938 124.413 35.6211 123.389Z" fill="#8C7A6F"/>
<path d="M28.407 123.9C27.8977 122.362 26.4829 121.447 25.2469 121.857C24.011 122.267 23.4219 123.847 23.9311 125.385C24.4404 126.924 25.7286 127.456 26.9646 127.046C28.2006 126.636 28.9162 125.439 28.407 123.9Z" fill="#8C7A6F"/>
<path d="M34.645 124.119C34.081 122.415 32.5394 121.393 31.2017 121.837C29.8641 122.281 29.2369 124.022 29.801 125.726C30.365 127.43 31.7665 128.028 33.1041 127.584C34.4418 127.14 35.2091 125.822 34.645 124.119Z" fill="#8C7A6F"/>
<path d="M67.6029 139.731C71.3805 136.906 69.2101 134.191 69.6744 132.313C70.1387 130.435 66.6254 125.152 62.0141 130.514L60.3557 131.754C53.9107 134.66 57.9768 139.529 59.908 139.616C61.8393 139.703 63.8253 142.556 67.6029 139.731Z" fill="#8C7A6F"/>
<path d="M72.5324 137.178C71.2027 136.253 70.7274 134.636 71.4707 133.566C72.214 132.496 73.8945 132.378 75.2242 133.303C76.5539 134.228 76.6988 135.615 75.9555 136.685C75.2122 137.755 73.8621 138.103 72.5324 137.178Z" fill="#8C7A6F"/>
<path d="M70.9726 143.227C69.5 142.203 68.9583 140.433 69.7628 139.275C70.5672 138.117 72.4132 138.009 73.8859 139.033C75.3586 140.058 75.5343 141.572 74.7298 142.73C73.9253 143.888 72.4453 144.251 70.9726 143.227Z" fill="#8C7A6F"/>
<path d="M63.7595 143.738C63.2502 142.2 61.8354 141.285 60.5995 141.695C59.3635 142.105 58.7744 143.685 59.2837 145.223C59.7929 146.762 61.0812 147.294 62.3171 146.884C63.5531 146.474 64.2688 145.276 63.7595 143.738Z" fill="#8C7A6F"/>
<path d="M69.9976 143.957C69.4336 142.253 67.8919 141.232 66.5543 141.675C65.2166 142.119 64.5895 143.86 65.1535 145.564C65.7175 147.268 67.119 147.866 68.4567 147.422C69.7943 146.978 70.5616 145.661 69.9976 143.957Z" fill="#8C7A6F"/>
</svg>
