<?xml version="1.0" encoding="UTF-8"?>
<svg id="_レイヤー_1" data-name="レイヤー_1" xmlns="http://www.w3.org/2000/svg" xmlns:xlink="http://www.w3.org/1999/xlink" version="1.1" viewBox="0 0 36 36">
  <!-- Generator: Adobe Illustrator 29.5.1, SVG Export Plug-In . SVG Version: 2.1.0 Build 141)  -->
  <defs>
    <style>
      .st0 {
        fill: none;
      }

      .st1 {
        fill: #06c755;
      }

      .st2 {
        fill: #fff;
      }

      .st3 {
        clip-path: url(#clippath);
      }
    </style>
    <clipPath id="clippath">
      <rect class="st0" width="36" height="36"/>
    </clipPath>
  </defs>
  <g class="st3">
    <g>
      <path class="st1" d="M27.9,0H8.1C3.6,0,0,3.6,0,8.1v19.8c0,4.5,3.6,8.1,8.1,8.1h19.8c4.5,0,8.1-3.6,8.1-8.1V8.1C36,3.6,32.4,0,27.9,0Z"/>
      <path class="st2" d="M30,16.3c0-5.4-5.4-9.7-12-9.7s-12,4.4-12,9.7,4.3,8.8,10,9.6c.4,0,.9.3,1.1.6.1.3,0,.8,0,1.1,0,0-.1.8-.2,1,0,.3-.2,1.2,1,.6,1.3-.5,6.9-4.1,9.4-7h0c1.7-1.9,2.6-3.8,2.6-6Z"/>
      <path class="st1" d="M26,19.4h-3.4c-.1,0-.2-.1-.2-.2v-5.2c0-.1.1-.2.2-.2h3.4c.1,0,.2.1.2.2v.9c0,.1-.1.2-.2.2h-2.3v.9h2.3c.1,0,.2.1.2.2v.9c0,.1-.1.2-.2.2h-2.3v.9h2.3c.1,0,.2.1.2.2v.9c0,.1-.1.2-.2.2Z"/>
      <path class="st1" d="M13.5,19.4c.1,0,.2-.1.2-.2v-.9c0-.1-.1-.2-.2-.2h-2.3v-4.2c0-.1-.1-.2-.2-.2h-.9c-.1,0-.2.1-.2.2v5.2c0,.1.1.2.2.2h3.4Z"/>
      <path class="st1" d="M15.6,13.7h-.9c-.1,0-.2.1-.2.2v5.2c0,.1.1.2.2.2h.9c.1,0,.2-.1.2-.2v-5.2c0-.1-.1-.2-.2-.2Z"/>
      <path class="st1" d="M21.4,13.7h-.9c-.1,0-.2.1-.2.2v3.1l-2.4-3.2s0,0,0,0c0,0,0,0,0,0,0,0,0,0,0,0,0,0,0,0,0,0,0,0,0,0,0,0,0,0,0,0,0,0,0,0,0,0,0,0,0,0,0,0,0,0,0,0,0,0,0,0,0,0,0,0,0,0,0,0,0,0,0,0,0,0,0,0,0,0,0,0,0,0,0,0,0,0,0,0,0,0,0,0,0,0,0,0,0,0,0,0,0,0,0,0,0,0,0,0,0,0,0,0,0,0,0,0,0,0,0,0h-.8c-.1,0-.2.1-.2.2v5.2c0,.1.1.2.2.2h.9c.1,0,.2-.1.2-.2v-3.1l2.4,3.2s0,0,0,0c0,0,0,0,0,0,0,0,0,0,0,0,0,0,0,0,0,0,0,0,0,0,0,0,0,0,0,0,0,0,0,0,0,0,0,0,0,0,0,0,0,0,0,0,0,0,0,0,0,0,0,0,0,0h.8c.1,0,.2-.1.2-.2v-5.2c0-.1-.1-.2-.2-.2Z"/>
    </g>
  </g>
</svg>