<?xml version="1.0" encoding="UTF-8"?>
<svg id="_レイヤー_21" data-name="レイヤー 21" xmlns="http://www.w3.org/2000/svg" width="500" height="500" viewBox="0 0 500 500">
  <path d="M221.28872,100.73319h57.42256l5.6417,114.22844c-.03486,18.91419-15.43076,34.29189-34.35298,34.29189s-34.31812-15.3777-34.35298-34.29189l5.6417-114.22844Z" fill="#e8d7c1"/>
  <path d="M61.4409,215.51568l37.3878-114.78249h53.21043l-21.82937,113.36993-.0752.79434c0,18.94375-15.41094,34.35606-34.35469,34.35606-18.73645,0-34.00674-15.07922-34.33897-33.73783Z" fill="#e8d7c1"/>
  <path d="M404.22013,249.25352c-18.94375,0-34.35469-15.41231-34.35469-34.35606l-.0752-.79434-21.82937-113.36993h53.21043l37.3878,114.78249c-.33223,18.65861-15.60252,33.73783-34.33897,33.73783Z" fill="#e8d7c1"/>
  <g>
    <path d="M446.97482,214.89746l-.20645-1.3002-38.55469-118.36427c-.56328-1.72949-2.1752-2.8998-3.99356-2.8998H95.77987c-1.81836,0-3.43027,1.17031-3.99356,2.8998l-38.55469,118.36427-.20645,1.3002c0,22.15835,16.94441,40.43004,38.55469,42.54748v146.02187c0,2.32012,1.87988,4.2,4.2,4.2h308.44026c2.32012,0,4.2-1.87988,4.2-4.2v-146.02187c21.61028-2.11743,38.55469-20.38913,38.55469-42.54748ZM207.24531,214.89746c0,18.94375-15.41231,34.35606-34.35606,34.35606-18.82412,0-34.15269-15.21996-34.34563-33.99922l22.05103-114.5211h52.2845l-5.62837,113.95645-.00547.20781ZM221.28872,100.73319h57.42256l5.6417,114.22844c-.03486,18.91419-15.43076,34.29189-34.35298,34.29189s-34.31812-15.3777-34.35298-34.29189l5.6417-114.22844ZM287.12085,100.73319h52.2845l22.05103,114.5211c-.19294,18.77926-15.52151,33.99922-34.34563,33.99922-18.94375,0-34.35606-15.41231-34.35606-34.35606l-.00547-.20781-5.62837-113.95645ZM61.4409,215.51568l37.3878-114.78249h53.21043l-21.82937,113.36993-.0752.79434c0,18.94375-15.41094,34.35606-34.35469,34.35606-18.73645,0-34.00674-15.07922-34.33897-33.73783ZM149.93007,399.26681v-107.80274h64.20313v107.80274h-64.20313ZM222.5332,399.26681v-112.00274c0-2.32012-1.87988-4.2-4.2-4.2h-72.60313c-2.32012,0-4.2,1.87988-4.2,4.2v112.00274h-41.5502v-141.82187c15.16262-1.48571,28.02769-10.92263,34.35469-24.07737,6.90396,14.35402,21.59114,24.28595,38.55469,24.28595,16.96458,0,31.6521-9.93193,38.55606-24.28595,6.90396,14.35402,21.59114,24.28595,38.55469,24.28595s31.65074-9.93193,38.55469-24.28595c6.90396,14.35402,21.59148,24.28595,38.55606,24.28595,16.96355,0,31.65074-9.93193,38.55469-24.28595,6.327,13.15474,19.19207,22.59166,34.35469,24.07737v141.82187h-177.48693ZM404.22013,249.25352c-18.94375,0-34.35469-15.41231-34.35469-34.35606l-.0752-.79434-21.82937-113.36993h53.21043l37.3878,114.78249c-.33223,18.65861-15.60252,33.73783-34.33897,33.73783Z" fill="#262626"/>
    <path d="M354.26993,283.06407h-72.60313c-2.32012,0-4.2,1.87988-4.2,4.2v72.60313c0,2.32012,1.87988,4.2,4.2,4.2h72.60313c2.32012,0,4.2-1.87988,4.2-4.2v-72.60313c0-2.32012-1.87988-4.2-4.2-4.2ZM350.06993,355.6672h-64.20313v-64.20313h64.20313v64.20313Z" fill="#262626"/>
  </g>
</svg>