<?xml version="1.0" encoding="UTF-8"?>
<svg id="_レイヤー_2" data-name="レイヤー 2" xmlns="http://www.w3.org/2000/svg" width="116.49624" height="72.01569" viewBox="0 0 116.49624 72.01569">
  <g id="_レイヤー_1-2" data-name="レイヤー 1">
    <g>
      <rect x="40.92623" y="7.70069" width="34.66" height="56.61" fill="#ff5f00"/>
      <path d="M44.49623,36.01069c-.0087-11.045,5.06161-21.48062,13.75-28.3C42.61382-4.57472,19.98194-1.86144,7.69653,13.77098-4.58888,29.4034-1.8756,52.03528,13.75682,64.32069c13.05521,10.26,31.4342,10.26,44.48941,0-8.69116-6.82154-13.76178-17.26149-13.75-28.31Z" fill="#eb001b"/>
      <path d="M113.05623,58.32069v-1.16h.5v-.24h-1.19v.24h.47v1.16h.22ZM115.36623,58.32069v-1.4h-.36l-.42,1-.42-1h-.36v1.4h.26v-1.06001l.39.91h.27l.39-.91v1.06h.25Z" fill="#f79e1b"/>
      <path d="M116.49624,36.01069c-.00047,19.88225-16.11859,35.99962-36.00084,35.99916-8.06969-.00018-15.9053-2.71165-22.24916-7.69916,15.63242-12.28541,18.3457-34.91729,6.0603-50.54971-1.77157-2.25421-3.80608-4.28872-6.0603-6.06029,15.63012-12.28834,38.2625-9.57928,50.55084,6.05084,4.98751,6.34386,7.69897,14.17947,7.69916,22.24916v.01Z" fill="#f79e1b"/>
    </g>
  </g>
</svg>