<?xml version="1.0" encoding="UTF-8"?>
<svg id="_アイコン_step-採用" data-name="★アイコン_step-採用" xmlns="http://www.w3.org/2000/svg" width="500" height="500" viewBox="0 0 500 500">
  <path d="M316.12093,136.5957c-26.25977-.34717-50.5752,11.78613-66.12109,32.65479-15.54395-20.86719-39.80176-32.99072-66.11816-32.65479-43.76074.53223-79.75586,36.57031-80.23828,80.33398-.24609,22.3833,8.4248,43.30615,24.42383,58.96436.08008.09521.16504.18701.25488.27588l106.37598,104.80371c4.21973,4.15674,9.75977,6.23486,15.30273,6.23438,5.54004-.00049,11.08301-2.07861,15.2998-6.23438,5.11426-5.0376,7.23633-11.99805,6.3457-18.63086,1.19043.2251,2.40918.3457,3.64551.35742,5.42578.07324,10.62012-2.03271,14.51367-5.86816,5.99512-5.90625,8.21484-14.29199,6.61328-22.02979,1.5293.31445,3.09961.48682,4.69727.50977,6.66504.08838,13.00488-2.4375,17.77441-7.13477,4.51367-4.44775,7.00879-10.38672,7.02441-16.72363.00391-1.57422-.14551-3.12451-.44043-4.63428,7.5625,1.50781,15.72754-.625,21.59277-6.40332l.73926-.72754c4.74707-4.67676,7.35059-11.1792,7.14453-17.83984-.0166-.53564-.05078-1.06934-.10352-1.6001,5.77051,1.76807,12.30664.37891,16.83008-4.0791.08789-.08643.16992-.17578.24902-.26855,16.00195-15.65869,24.67578-36.58398,24.42969-58.96875-.48535-43.75977-36.47656-79.80225-80.23535-80.33643ZM342.19222,293.98877l-.73926.72754c-6.2207,6.13086-16.32129,6.10645-22.51465-.05615l-28.34863-28.20947c-1.56445-1.55762-4.09766-1.55127-5.65625.01416-1.55859,1.56592-1.55273,4.09814.01367,5.65674l28.38379,28.24463c2.9668,2.95215,4.59473,6.88232,4.58398,11.06738s-1.6582,8.10742-4.63965,11.04443c-3.23047,3.18311-7.48242,4.875-12.04395,4.83496-4.53516-.06592-8.75977-1.90576-11.89746-5.18164l-26.36816-27.52832c-1.5293-1.59424-4.06152-1.64941-5.65527-.12158-1.5957,1.52832-1.65039,4.06006-.12207,5.65576l27.32812,28.53076c6.01758,6.28223,5.87109,16.35986-.32617,22.46533-2.36621,2.33203-5.51758,3.63379-8.82227,3.56738-3.32324-.03125-6.43164-1.35742-8.75488-3.73389l-29.4502-30.13184c-1.54297-1.58057-4.07617-1.6084-5.65625-.06445s-1.6084,4.07617-.06445,5.65625l28.43164,29.08984c5.37402,5.49902,5.29004,14.3623-.1875,19.7583-5.33789,5.26221-14.0293,5.26367-19.37305-.00049l-106.08008-104.51221c-.0918-.11035-.19043-.21631-.29492-.31738-14.60059-14.14648-22.51855-33.12061-22.29492-53.42725.43457-39.45361,32.88477-71.94238,72.33594-72.42285,24.58496-.27057,47.19531,11.44714,61.11426,31.54401l-34.46777,45.5556c-2.21387,2.92578-3.09082,6.67139-2.4043,10.27588.68652,3.604,2.87695,6.76514,6.01172,8.67285l5.13281,3.12402c12.89551,7.85059,29.1123,6.35645,40.35742-3.71191l23.02441-20.61426,20.80078,18.09515,37.99512,33.05377c3.35156,2.95361,5.27246,7.03564,5.41113,11.50635.13965,4.50586-1.55176,8.72949-4.7627,11.89258ZM366.06234,270.44482c-.08496.08252-.16602.16797-.24219.25684-3.29297,3.00586-8.40723,3.08984-11.7959.14209l-7.2168-6.27881c-.03125-.02686-.06152-.05371-.09277-.08057l-51.81836-45.07861q0-.00006-.00024-.00012l-9.56128-8.31775c-1.52148-1.32373-3.79102-1.30713-5.29297.03809l-25.6543,22.96924c-8.60156,7.7002-21.00391,8.83984-30.86133,2.83838l-5.13379-3.12451c-1.22363-.74414-2.04395-1.92871-2.31152-3.33545-.26855-1.40674.06055-2.81006.92383-3.95215l36.18457-47.82471c.01855-.02448.02881-.05212.04688-.07684.04395-.06085.09204-.11774.13281-.18146,13.75586-21.50293,37.20312-34.11475,62.6543-33.84375,39.45117.48193,71.90039,32.97168,72.33301,72.42529.22363,20.30518-7.69434,39.27832-22.29395,53.4248Z" fill="#a57e66"/>
</svg>