<?xml version="1.0" encoding="UTF-8"?>
<svg id="_アイコン_メディカルのコピー_2" data-name="★★アイコン_メディカルのコピー 2" xmlns="http://www.w3.org/2000/svg" width="500" height="500" viewBox="0 0 500 500">
  <path d="M249.37386,208.17773c-16.26172,0-29.49219-9.51562-29.49219-21.21289,0-3.9834,1.51074-8.37402,4.27832-12.49121-1.11621-5.7373-.43848-13.37012-.40625-13.71875.08203-.89844.56445-1.71289,1.31348-2.2168.75-.50293,1.68262-.64355,2.54883-.37891.77051.23438,6.92969,2.14453,11.02441,4.39355,6.98926-2.91406,14.47461-2.91406,21.46582,0,4.09473-2.24902,10.25391-4.15918,11.02441-4.39355.86523-.26465,1.79883-.12402,2.54883.37891.74902.50391,1.23145,1.31836,1.31348,2.2168.03223.34863.70996,7.98145-.40625,13.71875,2.76758,4.11816,4.2793,8.50879,4.2793,12.49121,0,11.69727-13.23047,21.21289-29.49219,21.21289ZM229.535,165.13672c-.0625,2.78906.02637,6.52734.74414,9.19336.2373.88281.05859,1.82617-.48438,2.5625-2.4873,3.36426-3.91309,7.03613-3.91309,10.07227,0,8.24609,10.75781,15.21289,23.49219,15.21289s23.49219-6.9668,23.49219-15.21289c0-3.03516-1.42676-6.70703-3.91406-10.07227-.54297-.73633-.72168-1.67969-.48438-2.5625.71777-2.66602.80664-6.4043.74414-9.19336-2.5459.92578-5.5625,2.16016-7.22461,3.28125-.88379.59473-2.0166.67871-2.97754.2168-6.28711-3.02246-12.99023-3.02148-19.27148,0-.95801.46094-2.09277.37891-2.97656-.2168-1.66309-1.12109-4.68066-2.35547-7.22656-3.28125Z" fill="#262626"/>
  <path d="M249.37289,229.10352c-11.64258,0-22.54395-2.43164-30.69531-6.84668-9.73145-5.27051-14.875-12.91016-14.875-22.09277,0-.03516.00098-.07031.00195-.10645l2.13086-60.20996c.05664-1.61426,1.38281-2.89355,2.99805-2.89355h80.87988c1.61523,0,2.94141,1.2793,2.99805,2.89355l2.13086,60.20996c.00098.03613.00195.07129.00195.10645,0,9.18262-5.14355,16.82227-14.875,22.09277-8.15137,4.41504-19.05273,6.84668-30.69629,6.84668ZM209.80258,200.21582c.0459,15.02539,19.92969,22.8877,39.57031,22.8877,19.64258,0,39.52734-7.86133,39.57129-22.88867l-2.02637-57.26074h-75.08887l-2.02637,57.26172Z" fill="#262626"/>
  <path d="M269.42953,129.43457h-40.11133c-1.23242,0-2.33984-.75391-2.79199-1.90137l-10.18164-25.87695c-.45898-1.16699-.14355-2.49512.78906-3.33203.93359-.83691,2.28906-1.00391,3.39746-.42285l17.90137,9.40234,8.10352-23.62793c.41602-1.21191,1.55566-2.02637,2.83789-2.02637s2.42188.81445,2.83789,2.02637l8.10352,23.62793,17.89941-9.40234c1.11035-.58105,2.46484-.41406,3.39844.42285.93262.83691,1.24805,2.16504.78906,3.33203l-10.18066,25.87695c-.45215,1.14746-1.55859,1.90137-2.79199,1.90137ZM231.36215,123.43457h36.02344l6.48047-16.47168-13.8584,7.28027c-.77637.40625-1.69141.4541-2.50391.13184-.81348-.32422-1.44531-.98633-1.72949-1.81445l-6.40039-18.66309-6.40039,18.66309c-.28418.82812-.91602,1.49023-1.72949,1.81445-.81348.32227-1.72852.27539-2.50293-.13184l-13.86035-7.28027,6.48145,16.47168Z" fill="#262626"/>
  <path d="M389.76254,421.73633H110.23812c-1.65723,0-3-1.34277-3-3V49.92578c0-1.65723,1.34277-3,3-3h279.52441c1.65723,0,3,1.34277,3,3v368.81055c0,1.65723-1.34277,3-3,3ZM113.23812,415.73633h273.52441V52.92578H113.23812v362.81055Z" fill="#262626"/>
  <g>
    <g>
      <path d="M406.84916,403.90804c1.10254-2.94507,1.92969-6.02185,2.46143-9.19824l14.34644-8.28284-14.34644-8.28284c-.53198-3.17639-1.35889-6.25317-2.46143-9.19812l8.28076-14.34265h-16.58472c-2.021-2.44287-4.26904-4.69092-6.71191-6.71191v-16.58472l-14.34253,8.28076c-2.94507-1.10278-6.02197-1.92969-9.19824-2.46167l-8.28296-14.34619-8.28271,14.34595c-3.17651.53198-6.25342,1.35889-9.19849,2.46167l-14.34253-8.28052v16.58423c-2.44287,2.021-4.69116,4.26929-6.7124,6.7124h-16.58423l8.28052,14.34204c-1.10278,2.94531-1.92969,6.02222-2.46167,9.19897l-14.3457,8.28259,14.34546,8.28247c.53198,3.17676,1.35913,6.25391,2.46191,9.19922l-8.28052,14.34192h16.58398c2.02124,2.44312,4.26953,4.69165,6.71265,6.71265v16.58398l14.34204-8.2804c2.94531,1.10291,6.02246,1.92969,9.19922,2.46179l8.28247,14.3457,8.28271-14.34595c3.17651-.53198,6.25342-1.35889,9.19873-2.46167l14.34229,8.28052v-16.58447c2.44287-2.021,4.69116-4.26917,6.71216-6.71216h16.58447l-8.28076-14.34253Z" fill="#e8d7c1"/>
      <path d="M360.00961,453.07422c-1.07227,0-2.0625-.57227-2.59766-1.5l-7.58789-13.14258c-2.38281-.46484-4.72754-1.0918-7-1.87207l-13.13867,7.58496c-.92773.53711-2.07227.53711-3,0-.92773-.53516-1.5-1.52539-1.5-2.59766v-15.19727c-1.80957-1.58105-3.51758-3.28906-5.09863-5.09863h-15.19727c-1.07227,0-2.0625-.57227-2.59766-1.5-.53613-.92773-.53613-2.07129,0-3l7.58496-13.13867c-.78027-2.27539-1.40723-4.62012-1.87207-7l-13.14258-7.58789c-.92773-.53516-1.5-1.52539-1.5-2.59766s.57227-2.0625,1.5-2.59766l13.14258-7.58789c.46484-2.37988,1.0918-4.72461,1.87207-6.99902l-7.58496-13.13867c-.53613-.92773-.53613-2.07227,0-3,.53516-.92773,1.52539-1.5,2.59766-1.5h15.19727c1.58105-1.80957,3.28809-3.51758,5.09863-5.09961v-15.19727c0-1.07227.57227-2.0625,1.5-2.59766.92773-.53711,2.07227-.53711,3,0l13.13867,7.58496c2.27637-.78027,4.62012-1.40723,6.99902-1.87207l7.58887-13.14258c.53516-.92773,1.52539-1.5,2.59766-1.5s2.0625.57227,2.59766,1.5l7.58887,13.14355c2.38281.46484,4.72656,1.0918,6.99902,1.87207l13.1377-7.58594c.92773-.53711,2.07227-.53711,3,0,.92773.53516,1.5,1.52539,1.5,2.59766v15.19824c1.81055,1.58105,3.51758,3.28809,5.09863,5.09863h15.19824c1.07227,0,2.0625.57227,2.59766,1.5.53613.92773.53613,2.07129,0,3l-7.58496,13.13867c.7793,2.27246,1.40625,4.61719,1.87109,6.99902l13.14355,7.58789c.92773.53516,1.5,1.52539,1.5,2.59766,0,1.07129-.57129,2.0625-1.5,2.59766l-13.14258,7.58887c-.46484,2.37891-1.0918,4.72266-1.87207,6.99902l7.58496,13.13867c.53613.92871.53613,2.07227,0,3-.53516.92773-1.52539,1.5-2.59766,1.5h-15.19727c-1.58203,1.81055-3.29004,3.51758-5.09961,5.09863v15.19727c0,1.07227-.57227,2.0625-1.5,2.59766-.92773.53711-2.07227.53711-3,0l-13.13867-7.58496c-2.27441.78027-4.61914,1.40723-6.99902,1.87207l-7.58789,13.14258c-.53516.92773-1.52539,1.5-2.59766,1.5ZM342.52816,430.2666c.35547,0,.71191.06348,1.05273.19043,2.76953,1.03809,5.67676,1.81641,8.64258,2.3125.88281.14844,1.6543.68359,2.10156,1.45898l5.68457,9.8457,5.68457-9.8457c.44727-.77539,1.21875-1.31055,2.10156-1.45898,2.96094-.49609,5.86914-1.27441,8.64355-2.3125.84082-.3125,1.77441-.23633,2.55176.21191l9.8418,5.68164v-11.3877c0-.89453.39844-1.74121,1.08789-2.31152,2.29199-1.89648,4.41602-4.02051,6.31348-6.31348.57031-.68848,1.41797-1.08691,2.31152-1.08691h11.3877l-5.68164-9.84277c-.44824-.77637-.52637-1.71191-.21191-2.55176,1.03906-2.77539,1.81641-5.68262,2.31152-8.6416.14746-.88379.68262-1.65527,1.45898-2.10254l9.84668-5.68555-9.84668-5.68457c-.77539-.44727-1.31055-1.21875-1.45898-2.10156-.49609-2.96484-1.27441-5.87207-2.31152-8.64258-.31445-.83887-.23633-1.77539.21191-2.55176l5.68164-9.84277h-11.38867c-.89453,0-1.74219-.39941-2.31152-1.08789-1.89648-2.29297-4.01953-4.41602-6.3125-6.3125-.68848-.56934-1.08789-1.41699-1.08789-2.31152v-11.38867l-9.8418,5.68262c-.77539.44922-1.71191.52539-2.55273.21191-2.76953-1.03809-5.67676-1.81543-8.6416-2.3125-.88281-.14844-1.6543-.68359-2.10156-1.45898l-5.68555-9.84668-5.68555,9.84668c-.44727.77637-1.21875,1.31152-2.10254,1.45898-2.95898.49512-5.86621,1.27246-8.6416,2.31152-.83887.3125-1.77441.2373-2.55176-.21191l-9.84277-5.68164v11.3877c0,.89355-.39844,1.74121-1.08691,2.31152-2.29297,1.89746-4.41699,4.02148-6.31348,6.31348-.57031.68945-1.41699,1.08789-2.31152,1.08789h-11.3877l5.68164,9.8418c.44824.77637.52637,1.71191.21191,2.55176-1.03809,2.77441-1.81641,5.68262-2.3125,8.64355-.14844.88281-.68359,1.6543-1.45898,2.10156l-9.8457,5.68457,9.8457,5.68457c.77539.44727,1.31055,1.21875,1.45898,2.10156.49609,2.96094,1.27441,5.86914,2.3125,8.64355.31445.83984.23633,1.77539-.21191,2.55176l-5.68164,9.84277h11.3877c.89453,0,1.74121.39844,2.31152,1.08789,1.89648,2.29199,4.02051,4.41602,6.3125,6.3125.68945.57031,1.08789,1.41699,1.08789,2.31152v11.3877l9.84277-5.68164c.46191-.2666.97949-.40234,1.5-.40234Z" fill="#262626"/>
    </g>
    <g>
      <circle cx="360.0096" cy="386.42696" r="36.18067" fill="#e8d7c1"/>
      <path d="M360.00961,425.60742c-21.60449,0-39.18066-17.57617-39.18066-39.18066s17.57617-39.18066,39.18066-39.18066,39.18066,17.57617,39.18066,39.18066-17.57617,39.18066-39.18066,39.18066ZM360.00961,353.24609c-18.2959,0-33.18066,14.88477-33.18066,33.18066s14.88477,33.18066,33.18066,33.18066,33.18066-14.88477,33.18066-33.18066-14.88477-33.18066-33.18066-33.18066Z" fill="#262626"/>
    </g>
    <path d="M353.25179,401.24512c-.09863,0-.19727-.00488-.2959-.01465-.81543-.08105-1.5625-.49219-2.06738-1.1377l-8.76172-11.20703c-1.02051-1.30566-.79004-3.19043.51562-4.21094s3.19043-.79004,4.21094.51562l6.82617,8.73145,25.125-21.58887c1.25586-1.0791,3.14941-.93652,4.23047.32031,1.08008,1.25684.93652,3.15039-.32031,4.23047l-27.50781,23.63672c-.54688.46973-1.24121.72461-1.95508.72461Z" fill="#262626"/>
  </g>
  <path d="M344.99984,257.05566h-190c-1.65723,0-3-1.34277-3-3s1.34277-3,3-3h190c1.65723,0,3,1.34277,3,3s-1.34277,3-3,3Z" fill="#262626"/>
  <path d="M344.99984,285.00781h-190c-1.65723,0-3-1.34277-3-3s1.34277-3,3-3h190c1.65723,0,3,1.34277,3,3s-1.34277,3-3,3Z" fill="#262626"/>
  <path d="M344.99984,312.95996h-190c-1.65723,0-3-1.34277-3-3s1.34277-3,3-3h190c1.65723,0,3,1.34277,3,3s-1.34277,3-3,3Z" fill="#262626"/>
  <path d="M313.01547,340.91211h-158.01562c-1.65723,0-3-1.34277-3-3s1.34277-3,3-3h158.01562c1.65723,0,3,1.34277,3,3s-1.34277,3-3,3Z" fill="#262626"/>
  <path d="M296.36215,368.86426h-141.3623c-1.65723,0-3-1.34277-3-3s1.34277-3,3-3h141.3623c1.65723,0,3,1.34277,3,3s-1.34277,3-3,3Z" fill="#262626"/>
</svg>