<?xml version="1.0" encoding="UTF-8"?>
<svg id="_レイヤー_2" xmlns="http://www.w3.org/2000/svg" version="1.1" viewBox="0 0 17 20">
  <!-- Generator: Adobe Illustrator 29.7.1, SVG Export Plug-In . SVG Version: 2.1.1 Build 8)  -->
  <defs>
    <style>
      .st0 {
        fill: #698dcc;
      }
    </style>
  </defs>
  <g id="_性別アイコン">
    <path class="st0" d="M9.5,1.5v1h5.8l-6.3,6.3c-1-.8-2.2-1.3-3.5-1.3C2.5,7.5,0,10,0,13s2.5,5.5,5.5,5.5,5.5-2.5,5.5-5.5-.5-2.6-1.3-3.5l6.3-6.3v5.8h1V1.5h-7.5ZM5.5,17.5c-2.5,0-4.5-2-4.5-4.5s2-4.5,4.5-4.5,4.5,2,4.5,4.5-2,4.5-4.5,4.5ZM16,2.5h0s0,0,0,0Z"/>
  </g>
</svg>