<?xml version="1.0" encoding="UTF-8"?>
<svg id="_レイヤー_1" data-name="レイヤー_1" xmlns="http://www.w3.org/2000/svg" version="1.1" viewBox="0 0 19.8 17">
  <!-- Generator: Adobe Illustrator 29.5.1, SVG Export Plug-In . SVG Version: 2.1.0 Build 141)  -->
  <defs>
    <style>
      .st0 {
        fill: #1a1a1a;
      }
    </style>
  </defs>
  <path class="st0" d="M7.2,17c-.6,0-1.2,0-1.7-.3-.8-.3-1.5-.9-1.8-1.7-.3-.7-.4-1.5-.3-2.2,0-.6.3-1.1.6-1.5h.1c.4-.5.7-.9.9-1.4v-.3c.3-.4.6-.8.8-1.2.4-.6.9-1,1.4-1.3.6-.3,1.3-.5,2.2-.6h.4c1.1,0,2,0,2.7.4.6.3,1.1.7,1.5,1.2.3.4.6.8.8,1.2l.2.3c.2.4.5.7.8,1h.2c.4.4.7,1,.8,1.7.2.8.1,1.6,0,2.2-.3.8-.9,1.4-1.7,1.8-1,.5-2.3.5-3.8.3h-2c0,0-.3.2-.3.2-.7.2-1.3.2-1.9.2ZM10.3,7.5c-.1,0-.2,0-.3,0h-.4c-.7,0-1.3.2-1.8.5-.4.2-.8.6-1.1,1-.2.3-.4.7-.6,1.1v.3c-.4.5-.7,1.1-1.2,1.5h0c-.1.2-.3.5-.3,1,0,.6,0,1.2.2,1.7h0c.2.6.7,1,1.3,1.2.7.3,1.7.3,2.9,0h.4c0,0,2.1-.2,2.1-.2h.1c1.4.3,2.5.2,3.3-.2.6-.3.9-.7,1.1-1.3.2-.5.2-1.1,0-1.7-.1-.6-.4-.9-.5-1h-.2c-.5-.5-.8-1-1-1.4l-.2-.3c-.2-.4-.4-.7-.7-1.1-.4-.4-.7-.7-1.2-.9-.5-.2-1.2-.3-1.9-.3Z"/>
  <path class="st0" d="M2.7,9.4c-.9,0-1.9-.6-2.4-1.6v-.3c-.5-.9-.3-1.5-.1-1.9.2-.5.6-.8,1.1-1h.2c.6-.3,1.2-.3,1.8,0,.5.2.9.6,1.2,1.2v.2c.6,1.3.2,2.8-.8,3.3h-.2c-.2.2-.5.2-.7.2ZM1.1,7.1v.2c.5.9,1.4,1.2,1.9,1h.1c.5-.3.8-1.2.4-2.1v-.2c-.3-.3-.5-.6-.8-.7-.3-.1-.6-.1-1,0h-.2c-.3.2-.5.4-.6.6-.1.3-.1.7,0,1.1Z"/>
  <path class="st0" d="M7.2,5.9c-1,0-2.1-.7-2.6-1.8v-.3c-.5-.9-.4-1.7-.2-2.1.2-.5.6-.9,1.2-1.2h.2c.7-.3,1.3-.3,1.9,0,.5.2,1,.7,1.3,1.3v.3c.7,1.5.3,3-.8,3.6h-.2c-.2.2-.5.2-.7.2ZM5.4,3.4v.3c.6,1,1.6,1.4,2.2,1.2h.1c.6-.4.9-1.4.5-2.5v-.2c-.3-.4-.6-.7-.9-.8-.3-.2-.7-.2-1.1,0h-.2c-.3.2-.5.4-.7.7-.2.4-.1.8,0,1.4Z"/>
  <path class="st0" d="M17.2,8.8c0,0-.2,0-.3,0h-.2c-1.1-.4-1.8-1.7-1.5-3v-.3c.3-.9.8-1.3,1.2-1.5.5-.2,1-.3,1.5-.2h.2c.6.2,1.1.6,1.4,1.1.3.5.3,1,.2,1.6v.3c-.4,1.3-1.5,2.1-2.6,2.1ZM17,7.8h.1c.6.1,1.4-.4,1.7-1.4v-.2c.1-.3,0-.7,0-.9-.2-.3-.4-.5-.8-.6h-.2c-.3,0-.6,0-.8,0-.3.2-.6.5-.7.9v.2c-.3.9.2,1.7.7,1.9Z"/>
  <path class="st0" d="M12.4,5.7c0,0-.2,0-.3,0h-.2c-1.2-.4-1.9-1.8-1.6-3.4v-.3c.4-1,.9-1.5,1.3-1.7.5-.3,1.1-.4,1.7-.2h.2c.7.2,1.2.6,1.5,1.2.3.5.4,1.1.2,1.8v.3c-.5,1.4-1.6,2.4-2.8,2.4ZM12.1,4.7h.2c.7.1,1.6-.5,1.9-1.6v-.2c.1-.4.1-.8,0-1.1-.2-.3-.5-.5-.9-.7h-.2c-.3-.1-.7,0-.9.1-.4.2-.6.6-.8,1.1v.3c-.3,1.1.2,2,.8,2.2Z"/>
</svg>