<?xml version="1.0" encoding="UTF-8"?>
<svg id="_レイヤー_2" xmlns="http://www.w3.org/2000/svg" version="1.1" viewBox="0 0 207.1 213.6">
  <!-- Generator: Adobe Illustrator 29.7.1, SVG Export Plug-In . SVG Version: 2.1.1 Build 8)  -->
  <defs>
    <style>
      .st0 {
        fill: #c30d23;
      }

      .st1 {
        fill: #40220f;
      }
    </style>
  </defs>
  <g>
    <path class="st1" d="M195.9,89.4c2.9,3.4,3.7,7.7,2.3,11.8-2.3,6.6-9.9,11.8-20.9,14.2-10.8,2.3-20,7.9-22.5,9.6-.5.4-1.2.5-1.8.5s-1.1-.1-1.7-.4c-1.1-.6-1.7-1.8-1.6-3,.9-16.9,2.5-35.5,11.4-43,3-2.6,6.6-3.6,10.7-3.1,3.3.4,5.9,1.9,7.5,4.3,1.2,1.8,1.8,3.9,1.8,6.3,5.8-2.4,11.2-1.4,14.8,2.9ZM193,99.4c.8-2.3.3-4.5-1.3-6.4-3.2-3.9-8-2-11.4.2-1.2.8-2.7.7-3.9,0s-1.7-2.3-1.3-3.7c.7-2.5.5-4.7-.4-6.1-.7-1.1-1.9-1.7-3.5-1.9-.4,0-.8,0-1.2,0-2,0-3.7.6-5.3,1.9-6.8,5.8-8.5,23.4-9.2,34.8,4.5-2.6,12.1-6.2,20.6-8.1,9-1.9,15.3-5.9,16.9-10.6h0Z"/>
    <path class="st0" d="M191.6,93c1.6,2,2.1,4.2,1.3,6.4-1.6,4.7-7.9,8.6-16.9,10.6-8.5,1.8-16.1,5.5-20.6,8.1.7-11.4,2.4-29,9.2-34.8,1.5-1.3,3.3-1.9,5.3-1.9s.8,0,1.2,0c1.6.2,2.8.8,3.5,1.9,1,1.4,1.1,3.6.4,6.1-.4,1.4.1,2.8,1.3,3.7s2.7.9,3.9,0c3.4-2.2,8.2-4.1,11.4-.2h0Z"/>
  </g>
  <g>
    <path class="st1" d="M136.5,35.5c13.1,3.1,20.4,20,16.2,37.6-1.9,7.9-5.7,14.7-10.5,19.4-4.8,4.8-10.7,7.6-16.6,7.6s-2.8-.1-4.2-.5c-6.5-1.5-11.8-6.4-14.8-13.7-2.9-7-3.4-15.5-1.4-23.9,2-8.4,6.2-15.8,11.9-20.8,6-5.2,12.8-7.3,19.4-5.7Z"/>
    <path class="st1" d="M142.1,125.3c8.6,10.9,12.3,23.3,10,33.1-2.2,9-6.2,14.8-12,17.2-2,.9-4.1,1.2-6,1.2-5,0-9-2.3-9.6-2.6-1.5-.9-9.7-5.5-22.1-5.5s-19.8,4.1-22.1,5.5c-.8.5-8,4.6-15.6,1.5-5.7-2.4-9.8-8.2-12-17.2-2.4-9.8,1.3-22.1,9.9-33.1,10.5-13.4,25.8-21.7,39.7-21.7s29.2,8.3,39.7,21.7h0Z"/>
    <path class="st1" d="M96,61.7c1.4,4.3,2,8.6,2,12.8,0,12.4-5.8,23-15.4,26-1.8.6-3.6.8-5.5.8-11.3,0-22.9-10.1-27.6-25-5.4-17.3.6-34.7,13.5-38.7,12.8-4,27.7,6.8,33.1,24.2Z"/>
    <path class="st1" d="M54.2,109.8c0,6.4-1.8,11.6-5,13.9-1.7,1.2-4.1,1.9-6.8,1.9s-5.1-.5-8-1.5c-6.3-2.2-12-6.4-15.9-11.8-4.1-5.7-6.6-12.1-7-18.1-.4-6.4,1.7-11.6,5.8-14.6,4.2-3,9.7-3.3,15.7-.9,5.5,2.2,10.9,6.6,15,12.3,3.9,5.4,6.1,12.1,6.1,18.9h0Z"/>
  </g>
</svg>