<?xml version="1.0" encoding="UTF-8"?>
<svg id="_アイコン_step-採用" data-name="★アイコン_step-採用" xmlns="http://www.w3.org/2000/svg" width="500" height="500" viewBox="0 0 500 500">
  <path d="M268.60629,326.77771c12.2168-6.62988,20.53027-19.57349,20.53027-34.42273,0-21.57959-17.55664-39.13623-39.13672-39.13623s-39.13574,17.55664-39.13574,39.13623c0,14.84912,8.31348,27.79266,20.52979,34.42261-20.79102,7.61047-35.66943,27.59442-35.66943,50.98901v38.26123c0,2.20898,1.79102,4,4,4s4-1.79102,4-4v-38.26123c0-25.51611,20.75879-46.27539,46.27539-46.27539s46.27637,20.75928,46.27637,46.27539v38.26123c0,2.20898,1.79102,4,4,4s4-1.79102,4-4v-38.26123c0-23.39447-14.87866-43.37842-35.66992-50.98889ZM218.8641,292.35498c0-17.16846,13.96777-31.13623,31.13574-31.13623,17.16895,0,31.13672,13.96777,31.13672,31.13623s-13.96777,31.13623-31.13672,31.13623c-17.16797,0-31.13574-13.96777-31.13574-31.13623Z" fill="#a57e66"/>
  <path d="M339.20785,237.5083c-.60449-1.52344-2.07812-2.52393-3.71777-2.52393h-41.49023v-26.44043c0-18.36139-11.30908-34.12384-27.32446-40.70856,9.15771-5.62543,15.27954-15.73334,15.27954-27.24603,0-17.62012-14.33496-31.95508-31.95508-31.95508-17.61914,0-31.9541,14.33496-31.9541,31.95508,0,11.51257,6.12158,21.62036,15.27905,27.24585-16.01562,6.58453-27.32495,22.34717-27.32495,40.70874v26.44043h-41.49023c-1.63965,0-3.11328,1.00049-3.71777,2.52393l-43.68848,110.05176c-.48926,1.23193-.33594,2.62646.4082,3.72314.74512,1.09619,1.98438,1.75293,3.30957,1.75293h65.80957c2.20898,0,4-1.79102,4-4s-1.79102-4-4-4h-59.91797l40.5127-102.05176h165.54883l40.51367,102.05176h-59.91895c-2.20898,0-4,1.79102-4,4s1.79102,4,4,4h65.81055c1.3252,0,2.56445-.65674,3.30957-1.75342.74414-1.09619.89746-2.49072.4082-3.72266l-43.68945-110.05176ZM226.04574,140.58936c0-13.20898,10.74609-23.95508,23.9541-23.95508,13.20898,0,23.95508,10.74609,23.95508,23.95508s-10.74609,23.95459-23.95508,23.95459c-13.20801,0-23.9541-10.74609-23.9541-23.95459ZM213.99984,208.54395c0-19.85059,16.14941-36,36-36s36,16.14941,36,36v26.44043h-72v-26.44043Z" fill="#a57e66"/>
  <path d="M358.95199,79.97217c-34.00684,0-60.64551,14.70801-60.64551,33.48438,0,6.64404,3.29199,12.91162,9.56445,18.28662-4.1582,7.12939-7.17969,10.50049-8.70508,11.26318-1.76855.88428-2.625,2.92822-2.0166,4.80908.54102,1.67139,2.09473,2.76904,3.80273,2.76904.21484,0,.43164-.01758.64941-.05322.69824-.11426,16.13477-2.69678,25.23828-8.55664,9.60352,3.25293,20.6543,4.96582,32.1123,4.96582,34.00684,0,60.64551-14.70801,60.64551-33.48389s-26.63867-33.48438-60.64551-33.48438ZM358.95199,138.94043c-11.32715,0-22.16504-1.79053-31.34082-5.17822-1.2998-.47852-2.75879-.25342-3.85254.60352-2.74219,2.14795-7.07031,3.93604-11.3623,5.30615,1.25781-1.94873,2.6416-4.26807,4.1543-7.03125.9707-1.77197.46777-3.98926-1.17188-5.16846-4.13867-2.97705-9.07227-7.82471-9.07227-14.01562,0-13.81396,24.1084-25.48438,52.64551-25.48438s52.64551,11.67041,52.64551,25.48438-24.1084,25.48389-52.64551,25.48389Z" fill="#a57e66"/>
</svg>