<?xml version="1.0" encoding="UTF-8"?>
<svg id="_アイコン_step-来店予約" data-name="★アイコン_step-来店予約" xmlns="http://www.w3.org/2000/svg" width="500" height="500" viewBox="0 0 500 500">
  <path d="M202.2225,334.84521c-.53027-.91895-1.4043-1.58936-2.42871-1.86377-1.02637-.2749-2.11719-.13184-3.03516.3999l-17.32031,9.99951c-7.64062,4.41211-17.44434,1.78418-21.85742-5.85645l-23.89355-41.38477c-4.41113-7.64062-1.7832-17.44531,5.85645-21.85693l17.32031-10c1.91309-1.10449,2.56836-3.55078,1.46387-5.46387l-28.2666-48.95947c-.53027-.91895-1.4043-1.58936-2.42871-1.86377-1.02539-.2749-2.11719-.13135-3.03516.3999l-11.12207,6.42188c-3.01941,1.74323-5.85303,3.7157-8.50525,5.87445-.02869.02441-.05872.047-.08655.07214-10.30676,8.41907-17.71582,19.80682-21.22754,32.91473-4.4248,16.51221-2.1543,33.75928,6.39355,48.56396l40.42676,70.02197c11.8418,20.50977,33.39746,31.98828,55.5332,31.9873,7.59534,0,15.25879-1.35706,22.62207-4.15918.06262-.02344.125-.04657.18701-.07336,3.09021-1.18713,6.12817-2.62299,9.0835-4.32947l11.12305-6.42188c.91895-.53027,1.58887-1.40381,1.86328-2.42871.27539-1.02441.13086-2.11621-.39941-3.03516l-28.2666-48.95898ZM117.47543,221.74512l7.6582-4.42139,24.2666,42.03125-12.48206,7.20648-24.13062-41.79572c1.50256-1.07593,3.06628-2.08435,4.68787-3.02063ZM185.99593,396.25391c-19.36719-.00146-38.23145-10.04492-48.5918-27.98926l-40.42676-70.02197c-7.47852-12.9541-9.46582-28.04541-5.59375-42.49365,2.67163-9.97113,7.91479-18.81061,15.16455-25.79108l23.88062,41.36298c-7.36475,7.50031-9.17493,19.28137-3.66919,28.81873l23.89355,41.38477c5.50586,9.53668,16.61377,13.86017,26.79272,11.23157l23.87097,41.34552c-5.04382,1.44379-10.19885,2.15265-15.32092,2.1524ZM213.90218,388.76221c-1.62769.93976-3.28345,1.78705-4.96094,2.54584l-24.12891-41.7923,12.48242-7.20667,24.2666,42.03125-7.65918,4.42188Z" fill="#a57e66"/>
  <path d="M394.535,95.72559h-170c-13.2334,0-24,10.76611-24,24v118c0,13.23389,10.7666,24,24,24h170c13.2334,0,24-10.76611,24-24v-118c0-13.23389-10.7666-24-24-24ZM224.535,103.72559h170c8.82227,0,16,7.17773,16,16v27.72632l-101.00195,42.97192-100.99805-42.84357v-27.85468c0-8.82227,7.17773-16,16-16ZM394.535,253.72559h-170c-8.82227,0-16-7.17773-16-16v-81.45447l99.4375,42.18152c.5.21143,1.03125.31738,1.5625.31738.5332,0,1.06543-.10645,1.56641-.31934l99.43359-42.30457v81.57947c0,8.82227-7.17773,16-16,16Z" fill="#a57e66"/>
</svg>