<?xml version="1.0" encoding="UTF-8"?>
<svg id="_アイコン_ベースのコピー" data-name="アイコン_ベースのコピー" xmlns="http://www.w3.org/2000/svg" width="250" height="250" viewBox="0 0 250 250">
  <path d="M124.99965,233.99996c-1.09375,0-2.13965-.44824-2.89453-1.23926-3.3418-3.50488-81.84668-86.35059-81.84668-132.01953,0-46.72656,38.01465-84.74121,84.74121-84.74121s84.74121,38.01465,84.74121,84.74121c0,45.66895-78.50488,128.51465-81.84668,132.01953-.75488.79102-1.80078,1.23926-2.89453,1.23926ZM124.99965,23.99996c-42.31543,0-76.74121,34.42578-76.74121,76.74121,0,17.3457,13.66504,44.62207,39.51758,78.88184,15.38574,20.38867,30.94141,37.69238,37.22363,44.51074,6.28223-6.81836,21.83789-24.12207,37.22363-44.51074,25.85254-34.25977,39.51758-61.53613,39.51758-78.88184,0-42.31543-34.42578-76.74121-76.74121-76.74121ZM124.99965,135.48335c-19.15625,0-34.74121-15.58496-34.74121-34.74219,0-19.15625,15.58496-34.74121,34.74121-34.74121s34.74121,15.58496,34.74121,34.74121c0,19.15723-15.58496,34.74219-34.74121,34.74219ZM124.99965,73.99996c-14.74512,0-26.74121,11.99609-26.74121,26.74121,0,14.74609,11.99609,26.74219,26.74121,26.74219s26.74121-11.99609,26.74121-26.74219c0-14.74512-11.99609-26.74121-26.74121-26.74121Z" fill="#262626"/>
</svg>