<svg width="89" height="94" viewBox="0 0 89 94" fill="none" xmlns="http://www.w3.org/2000/svg">
<path d="M63.1369 64.197C54.2147 62.2056 52.9602 68.8242 49.6116 70.5116C46.263 72.199 42.9257 84.0339 56.6321 84.0496L60.5491 84.9239C72.9566 90.7367 74.9882 78.6104 72.6788 75.6601C70.3694 72.7099 72.0592 66.1885 63.1369 64.197Z" fill="#8C7A6F"/>
<path d="M53.1575 60.1683C53.4751 63.2914 51.6962 66.0315 49.1842 66.2885C46.6723 66.5455 44.3785 64.2221 44.061 61.099C43.7435 57.9759 45.6013 56.012 48.1132 55.755C50.6251 55.498 52.84 57.0452 53.1575 60.1683Z" fill="#8C7A6F"/>
<path d="M64.0222 54.8277C64.3739 58.2866 62.4552 61.3161 59.7365 61.5942C57.018 61.8724 54.529 59.2938 54.1773 55.8349C53.8256 52.376 55.8318 50.2061 58.5504 49.928C61.2689 49.6499 63.6705 51.3688 64.0222 54.8277Z" fill="#8C7A6F"/>
<path d="M73.8765 64.792C72.2563 67.4825 72.6962 70.7179 74.8592 72.0183C77.0222 73.3187 80.089 72.1918 81.7092 69.5012C83.3295 66.8107 82.4868 64.244 80.3238 62.9435C78.1609 61.6431 75.4967 62.1014 73.8765 64.792Z" fill="#8C7A6F"/>
<path d="M66.328 55.3418C64.5336 58.3217 64.9766 61.8783 67.3175 63.2857C69.6584 64.6931 73.0108 63.4184 74.8052 60.4384C76.5997 57.4586 75.7107 54.6425 73.3698 53.2351C71.0289 51.8277 68.1224 52.3619 66.328 55.3418Z" fill="#8C7A6F"/>
<path d="M23.986 21.5972C15.2634 24.3337 17.4863 30.6928 15.43 33.8284C13.3737 36.964 16.401 48.8821 28.2789 42.0425L32.1083 40.8411C45.7599 39.6714 41.4562 28.1539 37.9811 26.7536C34.5059 25.3533 32.7086 18.8607 23.986 21.5972Z" fill="#8C7A6F"/>
<path d="M13.3324 23.0966C15.1689 25.6424 14.9984 28.9049 12.9515 30.3834C10.9046 31.8619 7.75645 30.9967 5.91991 28.4507C4.08335 25.9049 4.71031 23.2751 6.75722 21.7966C8.80411 20.3181 11.4958 20.5506 13.3324 23.0966Z" fill="#8C7A6F"/>
<path d="M20.0733 13.0392C22.1073 15.8588 21.9603 19.4418 19.745 21.0419C17.5297 22.6421 14.085 21.6535 12.0509 18.8338C10.0169 16.0142 10.6693 13.1319 12.8847 11.5318C15.0999 9.93163 18.0392 10.2195 20.0733 13.0392Z" fill="#8C7A6F"/>
<path d="M33.5868 16.7412C33.5289 19.8814 35.5276 22.4633 38.051 22.508C40.5744 22.5527 42.6669 20.0433 42.7247 16.9031C42.7826 13.7629 40.7695 11.9614 38.2461 11.9167C35.7227 11.872 33.6446 13.601 33.5868 16.7412Z" fill="#8C7A6F"/>
<path d="M22.324 12.3313C22.2599 15.8091 24.4219 18.6678 27.1529 18.7161C29.8839 18.7645 32.1497 15.9844 32.2138 12.5065C32.2779 9.02863 30.1 7.03433 27.369 6.98592C24.638 6.93754 22.3881 8.85337 22.324 12.3313Z" fill="#8C7A6F"/>
</svg>
