<?xml version="1.0" encoding="UTF-8"?>
<svg id="_アイコン_わんにゃんサポートのコピー_2" data-name="★★アイコン_わんにゃんサポートのコピー 2" xmlns="http://www.w3.org/2000/svg" width="500" height="500" viewBox="0 0 500 500">
  <g>
    <g>
      <path d="M392.9571,317.23126c12.08276-20.883,19.00195-45.12744,19.00195-70.98932,0-78.40192-63.55737-141.95917-141.95923-141.95917v141.95917l122.95728,70.98932Z" fill="#c6bdb7"/>
      <path d="M392.95394,320.23193c-.50879,0-1.02441-.12988-1.49707-.40234l-122.95703-70.98926c-.92773-.53613-1.5-1.52637-1.5-2.59814V104.28271c0-1.65674,1.34277-3,3-3,79.93066,0,144.95898,65.02832,144.95898,144.95947,0,25.4834-6.70996,50.55078-19.40527,72.4917-.55566.96094-1.56348,1.49805-2.59961,1.49805ZM272.99984,244.51025l118.83301,68.60791c11.21289-20.396,17.12598-43.45117,17.12598-66.87598,0-75.62158-60.71387-137.32861-135.95898-138.92773v137.1958Z" fill="#262626"/>
    </g>
    <path d="M249.99984,405.20117c-79.93066,0-144.95898-65.02832-144.95898-144.95898S170.06918,115.28271,249.99984,115.28271c1.65723,0,3,1.34326,3,3v140.22754l121.45703,70.12305c.68945.39795,1.19238,1.05371,1.39844,1.82324.20508.76904.09668,1.58838-.30176,2.27734-25.86328,44.69922-73.97266,72.46729-125.55371,72.46729ZM246.99984,121.31445c-75.24512,1.59912-135.95898,63.30615-135.95898,138.92773,0,76.62207,62.33691,138.95898,138.95898,138.95898,48.44531,0,93.69727-25.5542,118.82812-66.88916l-120.32812-69.47168c-.92773-.53613-1.5-1.52637-1.5-2.59814V121.31445Z" fill="#262626"/>
  </g>
  <path d="M244.14242,323.13721c-1.65723,0-3-1.34326-3-3v-38.86963h-28.87012c-1.65723,0-3-1.34326-3-3v-38.86963h-35.86914v38.86963c0,1.65674-1.34277,3-3,3h-28.87012v38.86963c0,1.65674-1.34277,3-3,3s-3-1.34326-3-3v-41.86963c0-1.65674,1.34277-3,3-3h28.87012v-38.86963c0-1.65674,1.34277-3,3-3h41.86914c1.65723,0,3,1.34326,3,3v38.86963h28.87012c1.65723,0,3,1.34326,3,3v41.86963c0,1.65674-1.34277,3-3,3Z" fill="#262626"/>
  <g>
    <path d="M201.83773,261.77881h-21c-1.65723,0-3-1.34326-3-3s1.34277-3,3-3h21c1.65723,0,3,1.34326,3,3s-1.34277,3-3,3Z" fill="#262626"/>
    <path d="M191.33773,272.27881c-1.65723,0-3-1.34326-3-3v-21c0-1.65674,1.34277-3,3-3s3,1.34326,3,3v21c0,1.65674-1.34277,3-3,3Z" fill="#262626"/>
  </g>
</svg>