<?xml version="1.0" encoding="UTF-8"?>
<svg id="_アイコン_ベースのコピー" data-name="アイコン_ベースのコピー" xmlns="http://www.w3.org/2000/svg" width="250" height="250" viewBox="0 0 250 250">
  <path d="M229.99965,41.99996H19.99965c-2.20898,0-4,1.79102-4,4v158c0,2.20898,1.79102,4,4,4h210c2.20898,0,4-1.79102,4-4V45.99996c0-2.20898-1.79102-4-4-4ZM225.99965,49.99996v43.72681l-101.00195,42.97241L23.99965,93.85518v-43.85522h202ZM23.99965,199.99996v-97.45398l99.4375,42.18152c.5.21191,1.03125.31738,1.5625.31738.5332,0,1.06543-.10645,1.56641-.31934l99.43359-42.30457v97.57898H23.99965Z" fill="#262626"/>
</svg>