<?xml version="1.0" encoding="UTF-8"?>
<svg id="_アイコン_メディカルのコピー_2" data-name="★★アイコン_メディカルのコピー 2" xmlns="http://www.w3.org/2000/svg" width="500" height="500" viewBox="0 0 500 500">
  <line x1="161.41448" y1="160.94912" x2="140.1717" y2="139.70634" fill="#c6bdb7"/>
  <path d="M161.41488,163.94922c-.76758,0-1.53516-.29297-2.12109-.87842l-21.24316-21.24268c-1.17188-1.17188-1.17188-3.07129,0-4.24268,1.17188-1.17188,3.07031-1.17139,4.24219-.00049l21.24316,21.24268c1.17188,1.17188,1.17188,3.07129,0,4.24268-.58594.58594-1.35352.87891-2.12109.87891Z" fill="#262626"/>
  <circle cx="129.46134" cy="128.99598" r="15.14674" fill="#e8d7c1"/>
  <path d="M129.46175,147.14307c-4.84766,0-9.40527-1.8877-12.83203-5.31543-7.0752-7.07568-7.0752-18.58838,0-25.66309,3.42676-3.42773,7.98438-5.31543,12.83203-5.31543,4.84668,0,9.4043,1.8877,12.83105,5.31543,7.0752,7.07471,7.0752,18.5874,0,25.66309-3.42676,3.42773-7.98438,5.31543-12.83105,5.31543ZM129.46078,116.85498c-3.11035,0-6.2207,1.18408-8.58887,3.55176-4.73535,4.73633-4.73535,12.44238,0,17.17871,4.7373,4.73633,12.44336,4.73438,17.17871,0,4.73535-4.73633,4.73535-12.44238,0-17.17871-2.36816-2.36768-5.47852-3.55176-8.58984-3.55176Z" fill="#262626"/>
  <path d="M211.17758,143.33691c-1.65723,0-3-1.34326-3-3v-49.11084c0-1.65674,1.34277-3,3-3s3,1.34326,3,3v49.11084c0,1.65674-1.34277,3-3,3Z" fill="#262626"/>
  <circle cx="211.17717" cy="76.07937" r="15.14674" fill="#e8d7c1"/>
  <path d="M211.17758,94.22607c-10.00684,0-18.14746-8.14062-18.14746-18.14648s8.14062-18.14697,18.14746-18.14697c10.00586,0,18.14648,8.14062,18.14648,18.14697s-8.14062,18.14648-18.14648,18.14648ZM211.17758,63.93262c-6.69824,0-12.14746,5.44922-12.14746,12.14697s5.44922,12.14648,12.14746,12.14648c6.69727,0,12.14648-5.44873,12.14648-12.14648s-5.44922-12.14697-12.14648-12.14697Z" fill="#262626"/>
  <line x1="161.41448" y1="260.4745" x2="140.1717" y2="281.71727" fill="#c6bdb7"/>
  <path d="M140.17172,284.71729c-.76758,0-1.53516-.29297-2.12109-.87891-1.17188-1.17139-1.17188-3.0708,0-4.24268l21.24316-21.24268c1.17188-1.1709,3.07031-1.17139,4.24219.00049,1.17188,1.17139,1.17188,3.0708,0,4.24268l-21.24316,21.24268c-.58594.58545-1.35352.87842-2.12109.87842Z" fill="#262626"/>
  <circle cx="129.46134" cy="292.42764" r="15.14674" fill="#e8d7c1"/>
  <path d="M129.46175,310.57471c-4.84766,0-9.40527-1.8877-12.83203-5.31543-7.0752-7.07568-7.0752-18.58838,0-25.66309,3.42676-3.42773,7.98438-5.31543,12.83203-5.31543,4.84668,0,9.4043,1.8877,12.83105,5.31543,7.0752,7.07471,7.0752,18.5874,0,25.66309-3.42676,3.42773-7.98438,5.31543-12.83105,5.31543ZM129.46078,280.28662c-3.11035,0-6.2207,1.18408-8.58887,3.55176-4.73535,4.73633-4.73535,12.44238,0,17.17871,4.7373,4.73633,12.44336,4.73438,17.17871,0,4.73535-4.73633,4.73535-12.44238,0-17.17871-2.36816-2.36768-5.47852-3.55176-8.58984-3.55176Z" fill="#262626"/>
  <line x1="140.8021" y1="210.71181" x2="91.69147" y2="210.71181" fill="#c6bdb7"/>
  <path d="M140.80258,213.71191h-49.11133c-1.65723,0-3-1.34326-3-3s1.34277-3,3-3h49.11133c1.65723,0,3,1.34326,3,3s-1.34277,3-3,3Z" fill="#262626"/>
  <circle cx="76.54473" cy="210.71181" r="15.14674" fill="#e8d7c1"/>
  <path d="M76.54476,228.8584c-10.00586,0-18.14648-8.14062-18.14648-18.14648s8.14062-18.14697,18.14648-18.14697,18.14648,8.14062,18.14648,18.14697-8.14062,18.14648-18.14648,18.14648ZM76.54476,198.56494c-6.69727,0-12.14648,5.44922-12.14648,12.14697s5.44922,12.14648,12.14648,12.14648,12.14648-5.44873,12.14648-12.14648-5.44922-12.14697-12.14648-12.14697Z" fill="#262626"/>
  <line x1="211.17717" y1="281.08688" x2="211.17717" y2="330.19751" fill="#c6bdb7"/>
  <path d="M211.17758,333.19727c-1.65723,0-3-1.34326-3-3v-49.11035c0-1.65674,1.34277-3,3-3s3,1.34326,3,3v49.11035c0,1.65674-1.34277,3-3,3Z" fill="#262626"/>
  <circle cx="211.17717" cy="345.34425" r="15.14674" fill="#e8d7c1"/>
  <path d="M211.17758,363.49121c-10.00684,0-18.14746-8.14062-18.14746-18.14697s8.14062-18.14697,18.14746-18.14697c10.00586,0,18.14648,8.14062,18.14648,18.14697s-8.14062,18.14697-18.14648,18.14697ZM211.17758,333.19727c-6.69824,0-12.14746,5.44922-12.14746,12.14697s5.44922,12.14697,12.14746,12.14697c6.69727,0,12.14648-5.44922,12.14648-12.14697s-5.44922-12.14697-12.14648-12.14697Z" fill="#262626"/>
  <line x1="260.93986" y1="160.94912" x2="282.18264" y2="139.70634" fill="#c6bdb7"/>
  <path d="M260.94027,163.94922c-.76758,0-1.53516-.29297-2.12109-.87842-1.17188-1.17188-1.17188-3.07129,0-4.24268l21.24219-21.24268c1.17188-1.17188,3.07031-1.17139,4.24219-.00049,1.17188,1.17188,1.17188,3.07129,0,4.24268l-21.24219,21.24268c-.58594.58594-1.35352.87891-2.12109.87891Z" fill="#262626"/>
  <circle cx="292.893" cy="128.99598" r="15.14674" fill="#e8d7c1"/>
  <path d="M292.8934,147.14307c-4.84766,0-9.40527-1.8877-12.83203-5.31543-7.0752-7.07568-7.0752-18.58838,0-25.66309,3.42676-3.42773,7.98438-5.31543,12.83203-5.31543,4.84668,0,9.4043,1.8877,12.83105,5.31543,7.0752,7.07471,7.0752,18.5874,0,25.66309h0c-3.42676,3.42773-7.98438,5.31543-12.83105,5.31543ZM292.89242,116.85498c-3.11035,0-6.2207,1.18408-8.58887,3.55176-4.73535,4.73633-4.73535,12.44238,0,17.17871,4.73633,4.73633,12.44238,4.7334,17.17871,0,4.73535-4.73633,4.73535-12.44238,0-17.17871-2.36816-2.36768-5.47852-3.55176-8.58984-3.55176ZM303.60336,139.70654h.00977-.00977Z" fill="#262626"/>
  <path d="M361.12875,347.62158c-.25977,0-.52148-.03369-.77637-.10205-.76855-.20605-1.42383-.70898-1.82129-1.39795l-9.00098-15.59082c-.42383-.73389-.51758-1.6123-.25781-2.41895.25879-.80615.84766-1.46533,1.61914-1.81445,2.35449-1.06494,4.66406-2.24805,6.86328-3.51807h0c2.20801-1.2749,4.3877-2.68311,6.47949-4.18555.68848-.49463,1.55566-.67529,2.38184-.49561.82812.17822,1.54297.69873,1.96582,1.43262l9.00098,15.59082c.8291,1.43506.33691,3.26953-1.09766,4.09814l-13.85645,8c-.45996.26562-.97754.40186-1.5.40186ZM356.34945,330.34375l5.87695,10.17969,8.66113-5-5.87793-10.17969c-1.39746.92285-2.81934,1.80273-4.25293,2.63086-.00098,0-.00098.00049-.00098.00049-1.43164.82617-2.90527,1.61816-4.40625,2.36865ZM359.2557,325.37695h.00977-.00977Z" fill="#262626"/>
  <path d="M277.70394,187.76148c-9.51855-27.59406-35.69873-47.42474-66.52686-47.42474-38.86694,0-70.375,31.508-70.375,70.37506s31.50806,70.37506,70.375,70.37506c10.79834,0,21.0249-2.43921,30.16919-6.7854-7.69507-32.87537,6.16626-68.19659,36.35767-86.53998Z" fill="#e8d7c1"/>
  <path d="M211.17758,284.08691c-40.45898,0-73.375-32.91602-73.375-73.375s32.91602-73.375,73.375-73.375c31.28613,0,59.16016,19.87109,69.3623,49.44629.45996,1.33447-.07227,2.80957-1.27832,3.54248-28.53418,17.33643-42.59766,50.80908-34.99414,83.29199.32227,1.37451-.3584,2.78711-1.63281,3.39307-9.87988,4.69531-20.46289,7.07617-31.45703,7.07617ZM211.17758,143.33691c-37.15039,0-67.375,30.22412-67.375,67.375s30.22461,67.375,67.375,67.375c9.29883,0,18.27539-1.85352,26.7207-5.51367-6.80176-33.44678,7.49707-67.47998,36.15625-86.0625-9.96973-25.92285-34.94238-43.17383-62.87695-43.17383Z" fill="#262626"/>
  <path d="M319.39047,339.13037c-7.20996,0-14.46582-.94775-21.61719-2.86377-21.41504-5.73828-39.31348-19.47217-50.39746-38.67188-11.08594-19.19971-14.03027-41.56689-8.29199-62.98193,5.7373-21.41455,19.47168-39.31299,38.67188-50.39844,19.19922-11.08496,41.56836-14.02979,62.98145-8.2915,21.41309,5.73779,39.3125,19.47412,50.39746,38.67188h0c22.88379,39.63428,9.25586,90.49658-30.37891,113.38037-12.78906,7.3833-26.9834,11.15527-41.36523,11.15527ZM319.12972,179.06152c-13.34277,0-26.50879,3.49854-38.37402,10.34912-17.8125,10.28369-30.55371,26.88867-35.87695,46.75537-5.32324,19.86621-2.59082,40.6167,7.69238,58.42871,10.28418,17.81201,26.88867,30.55273,46.75488,35.87646,19.86816,5.32227,40.61816,2.59131,58.42969-7.69238,36.76953-21.22949,49.41211-68.41504,28.18359-105.18408h0c-10.28418-17.81201-26.88867-30.55273-46.75488-35.87646-6.63281-1.77686-13.36719-2.65674-20.05469-2.65674Z" fill="#262626"/>
  <path d="M319.32992,325.1084c-24.61426,0-47.54004-13.2251-59.83008-34.51367-9.21582-15.96143-11.66406-34.55615-6.89258-52.3584,4.76953-17.80273,16.18652-32.68164,32.14844-41.89697,10.48926-6.05664,22.39258-9.25781,34.4248-9.25781,24.61426,0,47.53906,13.22461,59.83008,34.51318,19.02344,32.94971,7.69434,75.23242-25.25488,94.25586-10.49023,6.05664-22.39453,9.25781-34.42578,9.25781ZM319.1805,193.08154c-10.98047,0-21.84668,2.92334-31.4248,8.4541-14.57324,8.41357-24.99805,21.99902-29.35352,38.25342s-2.12109,33.23193,6.29297,47.80566c11.22266,19.43848,32.15723,31.51367,54.63477,31.51367,10.97949,0,21.84668-2.92334,31.42578-8.4541,30.08398-17.36914,40.42871-55.9751,23.05957-86.05957-11.22266-19.43799-32.15723-31.51318-54.63477-31.51318Z" fill="#262626"/>
  <path d="M408.73129,442.06787c-1.03711,0-2.04492-.53809-2.60059-1.50049l-52.7959-91.4458c-.39844-.68896-.50586-1.50781-.2998-2.27637s.70801-1.42383,1.39746-1.82178l24.24902-14c1.43652-.82666,3.26953-.33594,4.09766,1.09814l52.7959,91.4458c.39844.68896.50586,1.50781.2998,2.27637s-.70801,1.42383-1.39746,1.82178l-24.24902,14c-.47266.27246-.98828.40234-1.49707.40234ZM360.03011,348.71973l49.7959,86.24951,19.05371-11-49.7959-86.24951-19.05371,11Z" fill="#262626"/>
  <path d="M339.23422,259.09473h-39.99902c-1.65723,0-3-1.34326-3-3s1.34277-3,3-3h39.99902c1.65723,0,3,1.34326,3,3s-1.34277,3-3,3Z" fill="#262626"/>
  <path d="M319.23422,279.09473c-1.65723,0-3-1.34326-3-3v-40c0-1.65674,1.34277-3,3-3s3,1.34326,3,3v40c0,1.65674-1.34277,3-3,3Z" fill="#262626"/>
</svg>