<?xml version="1.0" encoding="UTF-8"?>
<svg id="_アイコン_わんにゃんサポートのコピー_2" data-name="★★アイコン_わんにゃんサポートのコピー 2" xmlns="http://www.w3.org/2000/svg" width="500" height="500" viewBox="0 0 500 500">
  <path d="M309.35547,111.44508c0-17.78899-14.42079-32.20985-32.20985-32.20985-11.40793,0-21.42305,5.93595-27.14557,14.88221-5.72276-8.94626-15.73787-14.88221-27.14569-14.88221-17.78905,0-32.20985,14.42085-32.20985,32.20985,0,9.07872,3.76182,17.27434,9.80471,23.12927l-.01044.00122,49.56127,48.82884,49.56115-48.82884-.01044-.00122c6.04301-5.85493,9.80471-14.05055,9.80471-23.12927ZM250.00006,128.77278h-.00012.00012Z" fill="#c6bdb7"/>
  <path d="M249.99984,186.4043c-.76074,0-1.52148-.2876-2.10547-.86279l-49.56152-48.82861c-.05078-.0498-.09961-.10156-.14551-.1543-6.80078-6.67773-10.54297-15.58594-10.54297-25.11328,0-19.41504,15.79492-35.20996,35.20996-35.20996,10.62207,0,20.49121,4.71338,27.14551,12.7915,6.6543-8.07812,16.52344-12.7915,27.14551-12.7915,19.41504,0,35.20996,15.79492,35.20996,35.20996,0,9.52734-3.74219,18.43604-10.54297,25.11377-.04688.05273-.09473.104-.14551.15381l-49.56152,48.82861c-.58398.5752-1.34473.86279-2.10547.86279ZM202.71078,132.60303l47.28906,46.58984,47.29004-46.59082c.05469-.0625.1123-.12354.17285-.18262,5.73438-5.55566,8.89258-13.00439,8.89258-20.97412,0-16.10645-13.10352-29.20996-29.20996-29.20996-10.00879,0-19.21191,5.04639-24.61816,13.49902-.55176.86182-1.50391,1.3833-2.52734,1.3833s-1.97559-.52148-2.52734-1.3833c-5.40625-8.45264-14.60938-13.49902-24.61816-13.49902-16.10645,0-29.20996,13.10352-29.20996,29.20996,0,7.96973,3.1582,15.41846,8.89258,20.97412.06055.05908.11816.12012.17383.18359Z" fill="#262626"/>
  <g>
    <path d="M133.20199,363.76465c-.58301,0-1.16699-.16992-1.67285-.50928-.41992-.28271-10.41016-7.04004-20.53418-18.03174-13.60254-14.77002-20.79297-30.14404-20.79297-44.45898s7.19043-29.68896,20.79297-44.45898c10.12402-10.9917,20.11426-17.74902,20.53418-18.03174,1.01172-.67871,2.33398-.67871,3.3457,0,.41992.28271,10.41016,7.04004,20.53418,18.03174,13.60254,14.77002,20.79297,30.14404,20.79297,44.45898s-7.19043,29.68896-20.79297,44.45898c-10.12402,10.9917-20.11426,17.74902-20.53418,18.03174-.50586.33936-1.08984.50928-1.67285.50928ZM133.20199,244.4502c-7.42773,5.4668-37,28.95605-37,56.31445s29.57227,50.84766,37,56.31445c7.42773-5.4668,37-28.95605,37-56.31445s-29.57227-50.84766-37-56.31445Z" fill="#262626"/>
    <path d="M172.02035,293.76465h-77.63672c-1.65723,0-3-1.34326-3-3s1.34277-3,3-3h77.63672c1.65723,0,3,1.34326,3,3s-1.34277,3-3,3Z" fill="#262626"/>
    <path d="M163.01937,273.76465h-59.63281c-1.65723,0-3-1.34326-3-3s1.34277-3,3-3h59.63281c1.65723,0,3,1.34326,3,3s-1.34277,3-3,3Z" fill="#262626"/>
    <path d="M172.02035,313.76465h-77.63672c-1.65723,0-3-1.34326-3-3s1.34277-3,3-3h77.63672c1.65723,0,3,1.34326,3,3s-1.34277,3-3,3Z" fill="#262626"/>
    <path d="M172.02035,413.76465h-77.63672c-1.65723,0-3-1.34326-3-3s1.34277-3,3-3h77.63672c1.65723,0,3,1.34326,3,3s-1.34277,3-3,3Z" fill="#262626"/>
    <path d="M163.01937,333.76465h-59.63281c-1.65723,0-3-1.34326-3-3s1.34277-3,3-3h59.63281c1.65723,0,3,1.34326,3,3s-1.34277,3-3,3Z" fill="#262626"/>
    <path d="M133.20199,243.76465c-.58301,0-1.16699-.16992-1.67285-.50928-.41992-.28271-10.41016-7.04004-20.53418-18.03174-13.60254-14.77002-20.79297-30.14404-20.79297-44.45898,0-1.65674,1.34277-3,3-3s3,1.34326,3,3c0,27.3584,29.57227,50.84766,37,56.31445,7.42773-5.4668,37-28.95605,37-56.31445,0-1.65674,1.34277-3,3-3s3,1.34326,3,3c0,14.31494-7.19043,29.68896-20.79297,44.45898-10.12402,10.9917-20.11426,17.74902-20.53418,18.03174-.50586.33936-1.08984.50928-1.67285.50928Z" fill="#262626"/>
    <path d="M163.01937,213.76465h-59.63281c-1.65723,0-3-1.34326-3-3s1.34277-3,3-3h59.63281c1.65723,0,3,1.34326,3,3s-1.34277,3-3,3Z" fill="#262626"/>
    <path d="M173.20199,423.76465c-1.65723,0-3-1.34326-3-3,0-27.3584-29.57227-50.84766-37-56.31445-7.42773,5.4668-37,28.95605-37,56.31445,0,1.65674-1.34277,3-3,3s-3-1.34326-3-3c0-14.31494,7.19043-29.68896,20.79297-44.45898,10.12402-10.9917,20.11426-17.74902,20.53418-18.03174,1.01172-.67871,2.33398-.67871,3.3457,0,.41992.28271,10.41016,7.04004,20.53418,18.03174,13.60254,14.77002,20.79297,30.14404,20.79297,44.45898,0,1.65674-1.34277,3-3,3Z" fill="#262626"/>
    <path d="M163.01937,393.76465h-59.63281c-1.65723,0-3-1.34326-3-3s1.34277-3,3-3h59.63281c1.65723,0,3,1.34326,3,3s-1.34277,3-3,3Z" fill="#262626"/>
  </g>
  <g>
    <path d="M366.79769,363.76465c-.58301,0-1.16699-.16992-1.67285-.50928-.41992-.28271-10.41016-7.04004-20.53418-18.03174-13.60254-14.77002-20.79297-30.14404-20.79297-44.45898s7.19043-29.68896,20.79297-44.45898c10.12402-10.9917,20.11426-17.74902,20.53418-18.03174,1.01172-.67871,2.33398-.67871,3.3457,0,.41992.28271,10.41016,7.04004,20.53418,18.03174,13.60254,14.77002,20.79297,30.14404,20.79297,44.45898s-7.19043,29.68896-20.79297,44.45898c-10.12402,10.9917-20.11426,17.74902-20.53418,18.03174-.50586.33936-1.08984.50928-1.67285.50928ZM366.79769,244.4502c-7.42773,5.4668-37,28.95605-37,56.31445s29.57227,50.84766,37,56.31445c7.42773-5.4668,37-28.95605,37-56.31445s-29.57227-50.84766-37-56.31445Z" fill="#262626"/>
    <path d="M405.61605,293.76465h-77.63672c-1.65723,0-3-1.34326-3-3s1.34277-3,3-3h77.63672c1.65723,0,3,1.34326,3,3s-1.34277,3-3,3Z" fill="#262626"/>
    <path d="M396.61312,273.76465h-59.63281c-1.65723,0-3-1.34326-3-3s1.34277-3,3-3h59.63281c1.65723,0,3,1.34326,3,3s-1.34277,3-3,3Z" fill="#262626"/>
    <path d="M405.61605,313.76465h-77.63672c-1.65723,0-3-1.34326-3-3s1.34277-3,3-3h77.63672c1.65723,0,3,1.34326,3,3s-1.34277,3-3,3Z" fill="#262626"/>
    <path d="M405.61605,413.76465h-77.63672c-1.65723,0-3-1.34326-3-3s1.34277-3,3-3h77.63672c1.65723,0,3,1.34326,3,3s-1.34277,3-3,3Z" fill="#262626"/>
    <path d="M396.61312,333.76465h-59.63281c-1.65723,0-3-1.34326-3-3s1.34277-3,3-3h59.63281c1.65723,0,3,1.34326,3,3s-1.34277,3-3,3Z" fill="#262626"/>
    <path d="M366.79769,243.76465c-.58301,0-1.16699-.16992-1.67285-.50928-.41992-.28271-10.41016-7.04004-20.53418-18.03174-13.60254-14.77002-20.79297-30.14404-20.79297-44.45898,0-1.65674,1.34277-3,3-3s3,1.34326,3,3c0,27.3584,29.57227,50.84766,37,56.31445,7.42773-5.4668,37-28.95605,37-56.31445,0-1.65674,1.34277-3,3-3s3,1.34326,3,3c0,14.31494-7.19043,29.68896-20.79297,44.45898-10.12402,10.9917-20.11426,17.74902-20.53418,18.03174-.50586.33936-1.08984.50928-1.67285.50928Z" fill="#262626"/>
    <path d="M396.61312,213.76465h-59.63281c-1.65723,0-3-1.34326-3-3s1.34277-3,3-3h59.63281c1.65723,0,3,1.34326,3,3s-1.34277,3-3,3Z" fill="#262626"/>
    <path d="M406.79769,423.76465c-1.65723,0-3-1.34326-3-3,0-27.3584-29.57227-50.84766-37-56.31445-7.42773,5.4668-37,28.95605-37,56.31445,0,1.65674-1.34277,3-3,3s-3-1.34326-3-3c0-14.31494,7.19043-29.68896,20.79297-44.45898,10.12402-10.9917,20.11426-17.74902,20.53418-18.03174,1.01172-.67871,2.33398-.67871,3.3457,0,.41992.28271,10.41016,7.04004,20.53418,18.03174,13.60254,14.77002,20.79297,30.14404,20.79297,44.45898,0,1.65674-1.34277,3-3,3Z" fill="#262626"/>
    <path d="M396.61312,393.76465h-59.63281c-1.65723,0-3-1.34326-3-3s1.34277-3,3-3h59.63281c1.65723,0,3,1.34326,3,3s-1.34277,3-3,3Z" fill="#262626"/>
  </g>
</svg>