<?xml version="1.0" encoding="UTF-8"?>
<svg id="_レイヤー_2" data-name="レイヤー 2" xmlns="http://www.w3.org/2000/svg" width="19.99988" height="20" viewBox="0 0 19.99988 20">
  <g id="_性別アイコン" data-name="性別アイコン">
    <path d="M12.49988,0v1h5.79297l-8.42065,8.42065c-1.04529-.88477-2.39539-1.42065-3.87219-1.42065-3.31372,0-6,2.68628-6,6s2.68628,6,6,6,6-2.68628,6-6c0-1.47681-.53589-2.82703-1.42078-3.87231L18.99988,1.70703v5.79297h1V0h-7.5ZM6,19c-2.75696,0-5-2.24304-5-5s2.24304-5,5-5,5,2.24304,5,5-2.24304,5-5,5Z" fill="#698dcc"/>
  </g>
</svg>