<?xml version="1.0" encoding="UTF-8"?>
<svg id="_レイヤー_2" data-name="レイヤー 2" xmlns="http://www.w3.org/2000/svg" width="2347.60013" height="608.30355" viewBox="0 0 2347.60013 608.30355">
  <g id="_レイヤー_1-2" data-name="レイヤー 1">
    <g>
      <path d="M449.80002,608.30005c166.29999.79999,318-135.60001,318-301.5C767.80002,125.40005,616.00003-.09995,449.80002.00006h-143.10001C138.50002-.09994,0,125.40006,0,306.80005c0,166,138.5,302.29999,306.70001,301.5h143.10001Z" fill="#0079be"/>
      <path d="M307.40002,25.10006C153.70003,25.10006,29.10004,149.80006,29.00003,303.60007c0,153.80002,124.60001,278.39999,278.39999,278.39999s278.39999-124.70001,278.39999-278.39999c0-153.8-124.60001-278.39999-278.39999-278.50001ZM131.00003,303.60007c.10001-75.2,47.10001-139.3,113.3-164.7v329.39998c-66.2-25.39999-113.2-89.5-113.3-164.70001v.00003ZM370.60004,468.40008V138.90008c66.19998,25.39999,113.19998,89.5,113.30002,164.70001-.10001,75.20001-47.10001,139.29999-113.29999,164.79999h-.00003Z" fill="#fff"/>
      <g>
        <path d="M865.40005,130.90005c0-28.8-15-26.9-29.40002-27.2v-8.3c12.5.6,25.29999.6,37.70001.6,13.40002,0,31.70001-.6,55.40002-.6,82.79999,0,127.89996,55.3,127.89996,112,0,31.7-18.5,111.30002-131.79999,111.30002-16.29999,0-31.40002-.60001-46.40002-.60001-14.40002,0-28.5.29999-42.90002.60001v-8.29999c19.20001-1.89999,28.5-2.60001,29.40002-24.29999l.10004-155.20004ZM896.70004,280.90005c0,24.60001,17.59998,27.5,33.29999,27.5,69.09998,0,91.79999-52.20001,91.79999-99.8,0-59.8-38.40002-103-100.09998-103-13.09998,0-19.20001.9-25,1.3v174ZM1068.19998,310.40005h6.09998c8.90002,0,15.40002,0,15.40002-10.60001v-86.7c0-14.10001-4.80005-16-16.59998-22.39999v-5.10001c15-4.5,33-10.5,34.19995-11.5,2.30005-1.3,4.19995-1.60001,5.80005-1.60001s2.19995,1.89999,2.19995,4.5v122.8c0,10.60001,7,10.60001,16,10.60001h5.40002v8.29999c-10.90002,0-22.09998-.60001-33.59998-.60001s-23,.29999-34.90002.60001v-8.29999ZM1102.39993,123.20006c-8.30005,0-15.69995-7.7-15.69995-16,0-8,7.69995-15.4,15.69995-15.4,8.30005,0,15.69995,6.7,15.69995,15.4s-7,16-15.69995,16ZM1167.09988,215.00006c0-11.8-3.5-15-18.5-21.10001v-6.10001c13.69995-4.5,26.80005-8.60001,42.19995-15.39999,1,0,1.90002.7,1.90002,3.2v20.8c18.30005-13.10001,33.90002-24,55.40002-24,27.19995,0,36.80005,19.8,36.80005,44.8v82.50002c0,10.60001,7,10.60001,16,10.60001h5.80005v8.29999c-11.19995,0-22.40002-.60001-33.90002-.60001s-23.09998.29999-34.59998.60001v-8.29999h5.69995c9,0,15.30005,0,15.30005-10.60001v-82.7c0-18.3-11.09998-27.2-29.40002-27.2-10.19995,0-26.5,8.3-37.09998,15.39999v94.70001c0,10.60001,7.09998,10.60001,16,10.60001h5.69995v8.29999c-11.19995,0-22.40002-.60001-33.90002-.60001s-23,.29999-34.5.60001v-8.29999h5.80005c9,0,15.30005,0,15.30005-10.60001l-.00012-84.90002ZM1330.89993,230.40005c-.69995,2.89999-.69995,7.7,0,18.60001,1.90002,30.39999,21.40002,55.29999,47,55.29999,17.59998,0,31.40002-9.60001,43.19995-21.39999l4.5,4.5c-14.69995,19.5-33,36.10001-59.19995,36.10001-50.90002,0-61.09998-49.29999-61.09998-69.7,0-62.7,42.19995-81.3,64.59998-81.3,25.90002,0,53.80005,16.3,54.09998,50.2,0,1.89999,0,3.8-.30005,5.8l-2.90002,1.89999h-89.8999ZM1387.49991,220.10005c8,0,8.90002-4.2,8.90002-8,0-16.3-9.90002-29.39999-27.80005-29.39999-19.5,0-32.90002,14.39999-36.80005,37.40001l55.70007-.00002ZM1431.29996,310.40005h8.59998c8.90002,0,15.30005,0,15.30005-10.60001v-89.89999c0-9.89999-11.80005-11.8-16.59998-14.39999v-4.8c23.40002-9.89999,36.19995-18.3,39.09998-18.3,1.90002,0,2.80005,1,2.80005,4.2v28.8h.69995c8-12.5,21.40002-33,40.90002-33,8,0,18.19995,5.39999,18.19995,17,0,8.60001-6.09998,16.3-15,16.3-10,0-10-7.7-21.09998-7.7-5.40002,0-23.30005,7.39999-23.30005,26.60001v75.19998c0,10.60001,6.40002,10.60001,15.40002,10.60001h17.90002v8.29999c-17.59998-.29999-31-.60001-44.80005-.60001-13.09998,0-26.59998.29999-38.09998.60001v-8.29999ZM1554.49991,274.20004c4.19995,21.10001,16.90002,39,40.30005,39,18.80005,0,25.90002-11.5,25.90002-22.70001,0-37.8-69.69995-25.60001-69.69995-77.10001,0-17.89999,14.40002-41,49.59998-41,10.19995,0,24,2.89999,36.40002,9.3l2.30005,32.59999h-7.40002c-3.19995-20.10001-14.40002-31.7-34.90002-31.7-12.80005,0-24.90002,7.39999-24.90002,21.10001,0,37.5,74.19995,25.89999,74.19995,76.09999,0,21.10001-17,43.5-55,43.5-12.80005,0-27.80005-4.5-39-10.89999l-3.5-36.79999,5.69995-1.39999ZM1935.09988,153.30005h-8c-6.09998-37.4-32.59998-52.5-68.40002-52.5-36.80005,0-90.19995,24.6-90.19995,101.39999,0,64.69998,46.09998,111,95.30005,111,31.69995,0,57.90002-21.79999,64.30005-55.39999l7.30005,1.89999-7.30005,46.70001c-13.40002,8.29999-49.59998,17-70.69995,17-74.80005,0-122.19995-48.29999-122.19995-120.3,0-65.59999,58.5-112.6,121.19995-112.6,25.90002,0,50.90002,8.4,75.5,17l3.19983,45.8ZM1946.59988,310.40005h6.09998c9,0,15.40002,0,15.40002-10.60001V121.60005c0-20.8-4.80005-21.4-17-25v-5.1c12.80005-4.2,26.19995-9.9,33-13.8,3.5-1.9,6.09998-3.5,7-3.5,2,0,2.59998,1.9,2.59998,4.5v221.1c0,10.60001,7,10.60001,16,10.60001h5.40002v8.29999c-10.80005,0-22-.60001-33.59998-.60001-11.5,0-23,.29999-34.90002.60001v-8.29999ZM2151.99979,301.10007c0,5.79999,3.5,6.10001,8.8999,6.10001,3.80005,0,8.6001-.29999,12.80005-.29999v6.70001c-13.80005,1.29999-40,8-46.1001,9.89999l-1.6001-1v-25.89999c-19.19995,15.70001-33.8999,26.89999-56.6001,26.89999-17.30005,0-35.19995-11.20001-35.19995-38v-81.89999c0-8.3-1.30005-16.3-19.19995-17.89999v-6.10001c11.5-.3,37.1001-2.2,41.19995-2.2,3.5,0,3.5,2.2,3.5,9.3v82.5c0,9.60001,0,37.10001,27.80005,37.10001,10.8999,0,25.30005-8.29999,38.69995-19.5v-86.10001c0-6.39999-15.30005-9.89999-26.80005-13.10001v-5.8c28.80005-1.89999,46.69995-4.5,49.8999-4.5,2.6001,0,2.6001,2.2,2.6001,5.8l.10034,117.99997ZM2215.69974,195.50006c12.80005-10.89999,30.1001-23,47.69995-23,37.1001,0,59.5,32.3,59.5,67.2,0,41.90001-30.69995,83.8-76.5,83.8-23.69995,0-36.1001-7.70001-44.5-11.20001l-9.6001,7.29999-6.69995-3.5c2.80005-18.89999,4.5-37.39999,4.5-56.89999V121.60004c0-20.8-4.80005-21.4-17-25v-5.1c12.80005-4.2,26.19995-9.9,33-13.8,3.5-1.9,6.1001-3.5,7.1001-3.5,1.8999,0,2.5,1.9,2.5,4.5v116.80003ZM2215.69974,282.50006c0,12.20001,11.5,32.70001,32.8999,32.70001,34.19995,0,48.6001-33.60001,48.6001-62.10001,0-34.5-26.19995-63.3-51.19995-63.3-11.8999,0-21.80005,7.7-30.3999,15.10001l.09985,77.59999ZM835.59976,504.70007h2.5c6.29999,0,12.90002-.79999,12.90002-9.89999v-91.19998c0-9.10001-6.59998-9.89999-12.90002-9.89999h-2.5v-5.20001c6.79999,0,17.20001.70001,25.79999.70001,8.70001,0,19.09998-.70001,27.29999-.70001v5.20001h-2.5c-6.20001,0-12.90002.89999-12.90002,9.89999v91.20001c0,9.10001,6.59998,9.89999,12.90002,9.89999h2.5v5.29999c-8.40002,0-18.79999-.70001-27.5-.70001-8.5,0-18.79999.70001-25.59998.70001v-5.30002Z" fill="#211e1f"/>
        <path d="M888.70004,510.70007c-8.40002,0-18.79999-.70001-27.5-.70001-8.5,0-18.70001.70001-25.59998.70001h-.70001v-6.70001h3.20001c6.29999-.10001,12.09998-.70001,12.09998-9.20001v-91.20001c-.09998-8.5-5.79999-9.10001-12.09998-9.20001h-3.20001v-6.70001h.70001c6.79999,0,17.29999.70001,25.79999.70001,8.70001,0,19.09998-.70001,27.29999-.70001h.79999v6.70001h-3.20001c-6.29999.10001-12.09998.70001-12.09998,9.20001v91.20001c0,8.5,5.79999,9,12.09998,9.20001h3.20001v6.70001h-.79999ZM888.00003,509.20007v-3.70001h-1.70001c-6.20001,0-13.59998-1.10001-13.70001-10.70001v-91.20001c0-9.60001,7.40002-10.70001,13.70001-10.70001h1.70001v-3.70001c-8,0-18.09998.70001-26.59998.70001-8.29999,0-18.29999-.60001-25-.70001v3.70001h1.70001c6.20001,0,13.59998,1.10001,13.59998,10.70001v91.20001c0,9.60001-7.40002,10.70001-13.59998,10.70001h-1.70001v3.70001c6.70001-.10001,16.59998-.70001,24.79999-.70001,8.5,0,18.59998.70001,26.79999.70001ZM1008.30002,475.60007l.29999-.29999v-65.30002c0-14.29999-9.90002-16.39999-15.09998-16.39999h-3.79999v-5.20001c8.20001,0,16.20001.70001,24.40002.70001,7.09998,0,14.29999-.70001,21.39996-.70001v5.20001h-2.59998c-7.30005,0-15.5,1.39999-15.5,22.10001v79.29999c0,6.10001.20001,12.20001,1,17.59998h-6.59998l-89.59998-99.89999v71.69998c0,15.10001,2.90002,20.39999,16.40002,20.39999h2.90002v5.29999c-7.5,0-14.90002-.70001-22.40002-.70001-7.79999,0-15.79999.70001-23.70001.70001v-5.29999h2.40002c12,0,15.70001-8.20001,15.70001-22.10001v-73.29999c0-9.70001-8-15.60001-15.79999-15.60001h-2.29999v-5.20001c6.59998,0,13.40002.70001,20,.70001,5.20001,0,10.29999-.70001,15.5-.70001l77.39984,87.00006Z" fill="#211e1f"/>
        <path d="M1018.40005,513.30005l-7.20001-.29999-88.29999-98.5v69.79999c.20001,15.10001,2.5,19.39999,15.59998,19.60001h3.70001v6.70001h-.79999c-7.5,0-15-.70001-22.5-.70001-7.79999,0-15.79999.70001-23.70001.70001h-.79999v-6.60001h3.20001c11.5-.10001,14.79999-7.39999,14.90002-21.29999v-73.29999c0-9.29999-7.59998-14.89999-15.09998-14.89999h-3v-6.70001h.79999c6.70001,0,13.5.70001,20,.70001,5.20001,0,10.20001-.70001,16.09998-.39999l76.5,86.10001v-64c-.09998-13.89999-9.29999-15.5-14.40002-15.60001h-4.59998v-6.70001h.79999c8.20001,0,16.20001.70001,24.40002.70001,7.09998,0,14.20001-.70001,21.39996-.70001h.80005v6.70001h-3.40002c-7.19995.20001-14.59998.79999-14.79999,21.39999v79c0,6.10001.20001,12.20001,1,17.39999l.20001.90002-.80005-.00006ZM1011.70004,511.80005h5.79999c-.79999-5.20001-.90002-11-.90002-16.79999v-79.20001c0-20.89999,8.80005-22.89999,16.19995-22.89999h1.80005v-3.70001c-6.90002,0-13.70001.70001-20.70001.70001-8,0-15.70001-.60001-23.59998-.70001v3.70001h3.09998c5.29999,0,15.90002,2.39999,15.90002,17.20001l-.20001,65.80002-.40002.39999-.59998.5-77.40002-87.5c-5.20001,0-10.20001.70001-15.5.70001-6.40002,0-12.90002-.60001-19.20001-.70001v3.70001h1.5c8.20001,0,16.59998,6.20001,16.59998,16.39999v73.29999c0,13.89999-3.90002,22.79999-16.40002,22.89999h-1.70001v3.79999c7.5-.10001,15.29999-.70001,22.90002-.70001,7.29999,0,14.5.60001,21.70001.70001v-3.70001h-2.20001c-13.70001,0-17.09998-6-17.09998-21.10001v-73.70001l90.40009,100.90002ZM1008.30002,475.60004l.59998-.5-.59998.5ZM1007.89999,475.30005l-.09998-.20001.09998.20001ZM1061.50003,397.10004c-13.09998,0-13.59998,3.10001-16.19995,15.79999h-5.19995c.69995-4.89999,1.59998-9.70001,2.09998-14.79999.69995-4.89999,1-9.70001,1-14.79999h4.19995c1.40002,5.20001,5.69995,5,10.5,5h89.80005c4.69995,0,9.09998-.20001,9.40002-5.39999l4.19995.70001c-.69995,4.70001-1.40002,9.39999-1.90002,14.10001-.30005,4.70001-.30005,9.39999-.30005,14.10001l-5.19995,1.89999c-.40002-6.39999-1.19995-16.70001-12.90002-16.70001h-28.5v92.60001c0,13.39999,6.09998,15,14.40002,15h3.30005v5.29999c-6.80005,0-19-.70001-28.40002-.70001-10.40002,0-22.59998.70001-29.40002.70001v-5.29999h3.30005c9.59998,0,14.40002-.89999,14.40002-14.60001v-93l-28.6001.09998Z" fill="#211e1f"/>
        <path d="M1130.10001,510.70007c-6.90002,0-19-.70001-28.40002-.70001-10.40002,0-22.59998.70001-29.40002.70001h-.69995v-6.70001h4c9.59998-.20001,13.5-.39999,13.69995-13.79999v-92.20001h-27.80005v-1.5h29.30005v93.79999c0,14-5.59998,15.39999-15.19995,15.39999h-2.59998v3.70001c6.90002,0,18.59998-.70001,28.69995-.70001,9.09998,0,20.69995.60001,27.59998.70001v-3.70001h-2.5c-8.40002,0-15.19995-2.10001-15.19995-15.79999v-93.39999h29.30005c11.69995,0,13.19995,10,13.59998,16.39999l3.80005-1.39999c0-4.5,0-9.10001.30005-13.70001.5-4.5,1.09998-8.89999,1.80005-13.39999l-2.69995-.39999c-.80005,5.10001-5.69995,5.29999-10.09998,5.29999h-90.59998c-4.09998,0-8.59998-.20001-10.09998-5.10001h-2.90002c0,4.70001-.40002,9.39999-1,14.10001-.5,4.79999-1.30005,9.39999-2,14h3.69995c2.30005-12.10001,3.80005-16.10001,16.80005-15.89999v1.5c-12.90002.20001-12.59998,2.39999-15.40002,15.29999l-.09998.60001h-6.69995l.09998-.89999c.69995-4.89999,1.59998-9.70001,2.09998-14.79999.69995-4.79999,1.09998-9.70001,1.09998-14.70001v-.79999h5.5l.09998.5c1.19995,4.39999,4.40002,4.39999,8.80005,4.5h90.69995c4.90002-.10001,8.40002-.10001,8.69995-4.70001l.09998-.79999.80005.20001,4.90002.79999-.09998.79999c-.69995,4.70001-1.40002,9.39999-1.90002,14-.30005,4.60001-.30005,9.29999-.30005,14v.5l-.5.20001-6.19995,2.20001v-1c-.5-6.5-1.09998-16-12.09998-16h-27.80005v91.89999c.19995,13.10001,5.40002,14,13.69995,14.20001h4.09998v6.70001l-1.00012.09998ZM1166.79996,504.70007h2.5c6.30005,0,12.90002-.79999,12.90002-9.89999v-91.19998c0-9.10001-6.59998-9.89999-12.90002-9.89999h-2.5v-5.20001c10.59998,0,28.69995.70001,43.30005.70001,14.69995,0,32.69995-.70001,44.59998-.70001-.30005,7.5-.09998,19,.40002,26.60001l-5.30005,1.39999c-.80005-11.29999-2.90002-20.29999-21.19995-20.29999h-24.19995v45.60001h20.69995c10.40002,0,12.69995-5.89999,13.69995-15.29999h5.19995c-.30005,6.79999-.5,13.60001-.5,20.39999,0,6.60001.19995,13.20001.5,19.79999l-5.19995,1c-1-10.39999-1.59998-17.20001-13.59998-17.20001h-20.90002v40.5c0,11.29999,10.09998,11.29999,21.19995,11.29999,20.90002,0,30.09998-1.39999,35.30005-21.20001l4.90002,1.20001c-2.30005,9.20001-4.40002,18.5-5.90002,27.70001-11.19995,0-31.19995-.70001-46.80005-.70001-15.69995,0-36.40002.70001-46.30005.70001v-5.29999l.1001-.00003Z" fill="#211e1f"/>
        <path d="M1259.90005,510.70007c-11.19995,0-31.19995-.70001-46.80005-.70001-15.69995,0-36.40002.70001-46.30005.70001h-.69995v-6.70001h3.19995c6.30005-.10001,12-.70001,12.09998-9.20001v-91.20001c-.09998-8.5-5.80005-9.10001-12.09998-9.20001h-3.19995v-6.70001h.69995c10.59998,0,28.69995.70001,43.30005.70001s32.69995-.70001,44.59998-.70001h.80005v.79999c-.09998,2.60001-.19995,5.70001-.19995,9,0,6,.19995,12.60001.5,17.60001v.60001l-.59998.20001-6.09998,1.60001v-.89999c-1-11.29999-2.5-19.5-20.5-19.70001h-23.5v44.10001h20c10-.10001,11.80005-5.20001,13-14.60001l.09998-.70001h6.69995v.79999c-.30005,6.79999-.59998,13.60001-.59998,20.39999,0,6.60001.19995,13.20001.59998,19.79999v.60001l-.59998.10001-6,1.20001-.09998-.79999c-1.19995-10.60001-1.30005-16.39999-12.80005-16.60001h-20.09998v39.79999c0,10.60001,9.09998,10.5,20.5,10.60001,21-.10001,29.40002-1.10001,34.59998-20.70001l.19995-.70001.69995.10001,5.59998,1.39999-.19995.70001c-2.19995,9.20001-4.30005,18.39999-5.90002,27.60001l-.09998.60001-.79993.10007ZM1259.30008,509.20007c1.5-8.79999,3.5-17.60001,5.59998-26.39999l-3.40002-.89999c-5.19995,19.5-15.30005,21.20001-35.80005,21.10001-11,0-21.90002,0-22-12.10001v-41.29999h21.59998c12.19995-.10001,13.40002,7.20001,14.30005,17.10001l3.80005-.79999c-.30005-6.39999-.5-12.79999-.5-19.20001,0-6.60001.19995-13.10001.5-19.60001h-3.80005c-1,9.10001-3.80005,15.39999-14.40002,15.29999h-21.5v-47.10001h25c18.09998-.10001,21.09998,9.20001,21.90002,20.20001l3.80005-1c-.30005-4.89999-.5-11.20001-.5-17,0-3,.09998-5.79999.19995-8.29999-11.80005,0-29.5.70001-43.80005.70001s-31.90002-.60001-42.59998-.70001v3.70001h1.69995c6.19995,0,13.59998,1.10001,13.59998,10.70001v91.19998c0,9.60001-7.40002,10.70001-13.59998,10.70001h-1.69995v3.70001c10.19995,0,30.30005-.70001,45.59998-.70001,15.19995,0,34.80005.70001,46,.70001l.00012-.00006ZM1289.30008,406.90008c0-12.70001-7-13.20001-12.40002-13.20001h-3.09998v-5.20001c5.59998,0,16.40002.70001,27,.70001,10.40002,0,18.80005-.70001,28-.70001,21.90002,0,41.40002,5.89999,41.40002,30.70001,0,15.60001-10.40002,25.20001-24.19995,30.60001l29.80005,44.5c4.90002,7.39999,8.30005,9.39999,16.90002,10.39999v5.29999c-5.69995,0-11.30005-.70001-17.09998-.70001-5.40002,0-11,.70001-16.40002.70001-13.40002-17.60001-24.90002-36.39999-36.19995-56.39999h-11.5v37.29999c0,13.39999,6.19995,13.89999,14.19995,13.89999h3.09998v5.29999c-9.90002,0-20-.70001-29.90002-.70001-8.40002,0-16.5.70001-25.19995.70001v-5.29999h3.09998c6.5,0,12.40002-2.89999,12.40002-9.39999l.09985-88.49997ZM1311.60013,447.30008h8.5c17.40002,0,26.80005-6.60001,26.80005-27.20001,0-15.5-9.90002-25.39999-25.40002-25.39999-5.19995,0-7.40002.5-9.90002.70001v51.89999Z" fill="#211e1f"/>
        <path d="M1392.69998,510.70007c-5.80005,0-11.40002-.70001-17.09998-.70001-5.30005,0-10.90002.70001-16.90002.39999-13.40002-17.5-24.80005-36.20001-36-56.10001h-10.30005v36.5c.19995,13.10001,5.40002,13,13.5,13.20001h3.90002v6.70001h-.80005c-9.90002,0-20-.70001-29.90002-.70001-8.30005,0-16.5.70001-25.19995.70001h-.80005v-6.70001h3.90002c6.30005,0,11.59998-2.79999,11.59998-8.60001v-88.39999c-.09998-12.39999-6.19995-12.29999-11.59998-12.5h-3.90002v-6.70001h.80005c5.59998,0,16.40002.70001,27,.70001,10.40002,0,18.80005-.70001,28-.70001,21.90002,0,42.09998,6.10001,42.19995,31.39999,0,15.70001-10.40002,25.5-23.80005,31l29.19995,43.79999c4.90002,7.20001,7.90002,9,16.40002,10.10001l.59998.10001v6.60001l-.7998-.09998ZM1311.60001,452.80008h11.90002l.19995.39999c11.30005,20,22.80005,38.79999,35.59998,56,5.30005,0,10.90002-.70001,16.30005-.70001,5.59998,0,10.90002.60001,16.30005.70001v-3.79999c-8.19995-1-12-3.5-16.80005-10.70001l-30.30005-45.29999.90002-.39999c13.59998-5.39999,23.69995-14.70001,23.69995-30,0-24.20001-18.80005-29.79999-40.69995-29.79999-9.19995,0-17.5.70001-28,.70001-10.19995,0-20.5-.60001-26.19995-.70001v3.70001h2.40002c5.40002,0,13.09998.89999,13.09998,14v88.39999c0,7-6.59998,10.20001-13.09998,10.20001h-2.40002v3.70001c8.40002,0,16.30005-.70001,24.5-.70001,9.69995,0,19.59998.70001,29.19995.70001v-3.70001h-2.40002c-7.90002,0-15-1-15-14.70001v-38l.80005-.00003ZM1311.60001,448.00009h-.80005v-53.29999l.69995-.10001c2.40002-.20001,4.69995-.70001,10-.70001,15.90002,0,26.19995,10.29999,26.19995,26.20001,0,20.79999-10,27.79999-27.59998,27.89999h-8.49988ZM1320.10001,446.50009c17.19995-.10001,25.90002-6.10001,26.09998-26.39999-.09998-15.20001-9.5-24.60001-24.69995-24.70001-4.69995,0-6.90002.39999-9.09998.60001v50.39999h7.69995v.10001ZM1510.90005,475.6001l.30005-.29999v-65.29999c0-14.29999-9.90002-16.39999-15.09998-16.39999h-3.80005v-5.20001c8.19995,0,16.19995.70001,24.40002.70001,7.09998,0,14.30005-.70001,21.40002-.70001v5.20001h-2.59998c-7.30005,0-15.5,1.39999-15.5,22.10001v79.29999c0,6.10001.19995,12.20001,1,17.59998h-6.59998l-89.59998-99.89999v71.69998c0,15.10001,3,20.39999,16.40002,20.39999h3v5.29999c-7.5,0-15-.70001-22.40002-.70001-7.90002,0-15.90002.70001-23.69995.70001v-5.29999h2.40002c12,0,15.69995-8.20001,15.69995-22.10001v-73.29999c0-9.70001-8-15.60001-15.80005-15.60001h-2.30005v-5.20001c6.59998,0,13.40002.70001,20,.70001,5.19995,0,10.30005-.70001,15.5-.70001l77.29993,87.00003Z" fill="#211e1f"/>
        <path d="M1521.00003,513.30005l-7.19995-.20001-88.30005-98.5v69.79999c.19995,15.10001,2.5,19.39999,15.59998,19.60001h3.69995v6.70001h-.80005c-7.5,0-15-.70001-22.5-.70001-7.80005,0-15.80005.70001-23.59998.70001h-.80005v-6.70001h3.19995c11.5,0,14.80005-7.39999,14.90002-21.39999v-73.29999c0-9.29999-7.59998-14.89999-15-14.89999h-3.09998v-6.70001h.80005c6.59998,0,13.40002.70001,20,.70001,5.09998,0,10.19995-.70001,16-.39999l76.5,86.20001v-64c0-13.79999-9.30005-15.5-14.40002-15.60001h-4.59998v-6.70001h.80005c8.19995,0,16.19995.70001,24.40002.70001,7.09998,0,14.19995-.70001,21.40002-.70001h.80005v6.70001h-3.30005c-7.19995.20001-14.59998.79999-14.80005,21.39999v79c0,6.10001.19995,12.10001,1,17.5l.09998.79999h-.79993ZM1514.40005,511.80005h5.69995c-.80005-5.20001-.90002-11-.90002-16.79999v-79.20001c0-20.89999,8.80005-22.79999,16.30005-22.89999h1.80005v-3.70001c-6.80005,0-13.69995.70001-20.59998.70001-8,0-15.80005-.60001-23.59998-.70001v3.70001h3.09998c5.40002.10001,15.90002,2.39999,15.90002,17.10001l-.19995,65.79999-.30005.39999-.5.60001-77.5-87.5c-5.19995,0-10.19995.70001-15.5.70001-6.40002,0-13-.60001-19.30005-.70001v3.70001h1.5c8.19995.10001,16.59998,6.20001,16.59998,16.39999v73.30002c0,14-3.90002,22.89999-16.40002,22.89999h-1.69995v3.70001c7.5,0,15.30005-.70001,22.90002-.70001,7.30005,0,14.5.60001,21.69995.70001v-3.70001h-2.19995c-13.69995,0-17.09998-6-17.19995-21.20001v-73.69998l90.3999,101.09998ZM1510.90005,475.60004l.5-.5-.5.5ZM1510.40005,475.30005l-.09998-.20001.09998.20001ZM1566.00003,485.10004c-1.80005,5.89999-3.90002,10.5-3.90002,13.60001,0,5.20001,7.30005,6.10001,13,6.10001h1.90002v5.29999c-7-.39999-14.09998-.70001-21.09998-.70001-6.30005,0-12.5.29999-18.80005.70001v-5.29999h1c6.80005,0,12.5-4,15.09998-11.29999l27.90002-79.89999c2.19995-6.39999,5.40002-15.10001,6.5-21.60001,5.5-1.89999,12.5-5.39999,15.80005-7.5.5-.20001.80005-.39999,1.40002-.39999.5,0,.90002,0,1.19995.5.5,1.39999,1,3,1.59998,4.29999l32,91.10001c2.09998,6.10001,4.19995,12.5,6.40002,17.79999,2.09998,4.89999,5.80005,6.89999,11.5,6.89999h1v5.29999c-7.80005-.39999-15.69995-.70001-24-.70001-8.5,0-17.30005.29999-26.09998.70001v-5.29999h1.90002c4,0,10.80005-.70001,10.80005-5,0-2.29999-1.59998-7-3.5-12.5l-6.80005-20.20001h-39.5l-5.30005,18.10001ZM1591.40005,407.90002h-.40002l-16.19995,49.29999h32.5l-15.90002-49.29999Z" fill="#211e1f"/>
        <path d="M1658.80008,510.70007c-7.80005-.39999-15.69995-.70001-24-.70001-8.5,0-17.19995.39999-26.09998.70001h-.80005v-6.79999h2.69995c4,0,10-.89999,10-4.29999,0-2-1.5-6.79999-3.40002-12.29999l-6.59998-19.70001h-38.40002l-5.40002,17.60001c-1.80005,5.89999-3.80005,10.5-3.80005,13.39999.09998,4.20001,6.59998,5.29999,12.30005,5.29999h2.69995v6.79999h-.80005c-7-.39999-14.09998-.70001-21-.70001-6.19995,0-12.5.39999-18.80005.70001h-.80005v-6.79999h1.80005c6.5,0,11.90002-3.70001,14.40002-10.79999l27.90002-79.89999c2.30005-6.5,5.40002-15.10001,6.90002-22.10001,5.5-1.79999,12.40002-5.29999,15.80005-7.5.5-.20001,1-.39999,1.69995-.39999.40002,0,1.40002.10001,1.90002,1,.5,1.39999,1,3,1.59998,4.39999l32.09998,91c2.09998,6.10001,4.09998,12.5,6.40002,17.70001,2,4.60001,5.19995,6.5,10.80005,6.5h1.80005v6.79999l-.8999.09998ZM1609.40005,509.10007c8.59998-.29999,17.09998-.60001,25.40002-.60001,8.09998,0,15.69995.29999,23.19995.60001v-3.60001h-.19995c-6,0-10.09998-2.29999-12.19995-7.39999-2.30005-5.29999-4.40002-11.70001-6.40002-17.79999l-32-91c-.5-1.39999-1-3-1.5-4.20001q-.09998-.20001-.30005-.20001h-.30005c-.40002,0-.59998.10001-1,.20001-3.40002,2.20001-10.30005,5.60001-15.5,7-1.09998,6.60001-4.19995,15.29999-6.5,21.70001l-27.90002,79.89999c-2.69995,7.60001-8.80005,11.89999-15.80005,11.89999h-.30005v3.60001c6-.29999,12-.60001,18-.60001,6.69995,0,13.59998.29999,20.19995.60001v-3.60001h-1.09998c-5.69995-.10001-13.59998-.70001-13.80005-6.89999,0-3.5,2.09998-7.89999,3.80005-13.79999l.80005.20001-.80005-.29999,5.69995-18.60001h40.59998l7,20.70001c2,5.60001,3.5,10.20001,3.5,12.79999-.19995,5.29999-7.59998,5.70001-11.5,5.79999h-1.19995l.10022,3.59998ZM1573.80008,457.90005l16.69995-50.79999h.90002v.79999h-.19995.19995v-.79999h.5l16.5,50.79999h-34.59998ZM1575.90005,456.40005h30.5l-15.09998-46.70001-15.40002,46.70001ZM1590.7001,408.10007l.40002-.10001-.40002.10001ZM1666.50015,397.10007c-13.09998,0-13.59998,3.10001-16.19995,15.79999h-5.19995c.69995-4.89999,1.59998-9.70001,2.09998-14.79999.69995-4.89999,1-9.70001,1-14.79999h4.19995c1.40002,5.20001,5.80005,5,10.40002,5h89.80005c4.69995,0,9-.20001,9.40002-5.39999l4.19995.70001c-.69995,4.70001-1.40002,9.39999-1.90002,14.10001-.40002,4.70001-.40002,9.39999-.40002,14.10001l-5.19995,1.89999c-.30005-6.39999-1.19995-16.70001-12.90002-16.70001h-28.5v92.60001c0,13.39999,6.09998,15,14.40002,15h3.30005v5.29999c-6.80005,0-18.90002-.70001-28.40002-.70001-10.40002,0-22.59998.70001-29.40002.70001v-5.29999h3.30005c9.59998,0,14.5-.89999,14.5-14.60001v-93l-28.50012.09998Z" fill="#211e1f"/>
        <path d="M1735.00003,510.70007c-6.80005,0-19-.70001-28.40002-.70001-10.40002,0-22.59998.70001-29.40002.70001h-.80005v-6.70001h4.09998c9.59998-.20001,13.40002-.39999,13.69995-13.79999v-92.20001h-27.69995v-1.5h29.30005v93.79999c0,14-5.59998,15.29999-15.19995,15.39999h-2.59998v3.70001c6.90002-.10001,18.59998-.70001,28.69995-.70001,9.09998,0,20.69995.60001,27.59998.70001v-3.70001h-2.59998c-8.40002,0-15.09998-2.10001-15.19995-15.70001v-93.39999h29.30005c11.69995,0,13.19995,10,13.5,16.39999l3.80005-1.39999c0-4.5,0-9.10001.30005-13.70001.5-4.5,1.09998-8.89999,1.80005-13.39999l-2.59998-.39999c-.80005,5.10001-5.69995,5.29999-10,5.29999h-90.69995c-4.09998,0-8.5-.20001-10.09998-5.10001h-2.80005c0,4.79999-.40002,9.5-1.09998,14.10001-.5,4.79999-1.30005,9.39999-2,14h3.69995c2.30005-12.10001,3.80005-16.10001,16.80005-15.89999v1.5c-12.90002.20001-12.59998,2.39999-15.5,15.29999l-.09998.60001h-6.69995l.09998-.89999c.69995-4.89999,1.59998-9.79999,2.09998-14.79999.69995-4.89999,1.09998-9.70001,1.09998-14.70001v-.79999h5.5l.09998.5c1.19995,4.39999,4.40002,4.39999,8.80005,4.5h90.70007c4.80005-.10001,8.30005-.20001,8.59998-4.70001v-.79999l.80005.20001,4.90002.79999-.09998.79999c-.69995,4.70001-1.40002,9.39999-1.90002,14-.40002,4.60001-.40002,9.39999-.40002,14v.5l-.5.20001-6.19995,2.20001v-1c-.40002-6.5-1.09998-16-12.09998-16h-27.59998v91.89999c.19995,13.10001,5.40002,14,13.69995,14.20001h4.09998v6.70001h-.80042ZM1772.60001,504.70007h2.40002c6.30005,0,12.90002-.79999,12.90002-9.89999v-91.19998c0-9.10001-6.59998-9.89999-12.90002-9.89999h-2.40002v-5.20001c6.80005,0,17.19995.70001,25.69995.70001,8.69995,0,19.19995-.70001,27.40002-.70001v5.20001h-2.40002c-6.30005,0-12.90002.89999-12.90002,9.89999v91.20001c0,9.10001,6.59998,9.89999,12.90002,9.89999h2.40002v5.29999c-8.40002,0-18.80005-.70001-27.5-.70001-8.5,0-18.80005.70001-25.59998.70001v-5.30002Z" fill="#211e1f"/>
        <path d="M1825.69998,510.70007c-8.40002,0-18.80005-.70001-27.5-.70001-8.5,0-18.80005.70001-25.59998.70001h-.80005v-6.70001h3.19995c6.30005-.10001,12.09998-.60001,12.09998-9.20001v-91.20001c0-8.5-5.80005-9.10001-12.09998-9.20001h-3.19995v-6.70001h.80005c6.80005,0,17.19995.70001,25.69995.70001,8.69995,0,19.09998-.70001,27.40002-.70001h.69995v6.70001h-3.19995c-6.40002.10001-12.09998.70001-12.19995,9.20001v91.20001c.09998,8.5,5.80005,9.10001,12.19995,9.20001h3.19995v6.70001h-.69995ZM1824.89993,509.20007v-3.70001h-1.69995c-6.19995,0-13.59998-1.10001-13.59998-10.70001v-91.20001c0-9.60001,7.40002-10.70001,13.59998-10.70001h1.69995v-3.70001c-8,0-18.09998.70001-26.59998.70001-8.19995,0-18.19995-.60001-25-.70001v3.70001h1.69995c6.19995,0,13.59998,1.10001,13.59998,10.70001v91.20001c0,9.60001-7.40002,10.70001-13.59998,10.70001h-1.69995v3.70001c6.69995-.10001,16.59998-.70001,24.80005-.70001,8.5,0,18.59998.60001,26.80005.70001h-.00012ZM1895.09988,385.80008c37.09998,0,66.69995,23,66.69995,60.10001,0,40-28.69995,66.70001-65.80005,66.70001-36.90002,0-65.09998-25.10001-65.09998-62.5,0-36.20001,28-64.29999,64.19995-64.29999l.00012-.00003ZM1897.69986,504.90008c33.80005,0,39.69995-29.79999,39.69995-55.20001s-13.69995-56.20001-42.59998-56.20001c-30.5,0-39.5,27.20001-39.5,50.5,0,31.10001,14.19995,60.89999,42.40002,60.89999v.00003Z" fill="#211e1f"/>
        <path d="M1830.10001,450.10007c.09998-36.60001,28.40002-64.89999,65-65v1.5c-35.80005,0-63.5,27.70001-63.5,63.5.09998,37,27.90002,61.70001,64.40002,61.70001,36.69995,0,65-26.29999,65.09998-65.89999,0-36.60001-29.19995-59.29999-66-59.29999v-1.5c37.40002,0,67.40002,23.29999,67.40002,60.79999,0,40.5-29.09998,67.40002-66.5,67.40002-37.19995-.09998-65.80005-25.39999-65.90002-63.20001v-.00003ZM1854.50003,443.90005c0-23.39999,9.19995-51.20001,40.30005-51.20001,29.5.10001,43.30005,31.5,43.40002,57,0,25.39999-6,55.89999-40.40002,55.89999v-1.5c33.09998,0,38.80005-29,38.90002-54.39999,0-25.20001-13.59998-55.39999-41.90002-55.5-29.90002,0-38.69995,26.5-38.80005,49.70001,0,31,14.19995,60.10001,41.69995,60.20001v1.5c-28.90002,0-43.09998-30.29999-43.19995-61.70001ZM2079.10013,475.60007l.3999-.29999v-65.30002c0-14.29999-9.8999-16.39999-15.19995-16.39999h-3.80005v-5.20001c8.19995,0,16.19995.70001,24.30005.70001,7.19995,0,14.30005-.70001,21.3999-.70001v5.20001h-2.6001c-7.30005,0-15.5,1.39999-15.5,22.10001v79.29999c0,6.10001.19995,12.20001,1.1001,17.59998h-6.6001l-89.69995-99.89999v71.69998c0,15.10001,2.90002,20.39999,16.30005,20.39999h3v5.29999c-7.5,0-15-.70001-22.5-.70001-7.80005,0-15.90002.70001-23.69995.70001v-5.29999h2.40002c12,0,15.59998-8.20001,15.59998-22.10001v-73.29999c0-9.70001-8-15.60001-15.80005-15.60001h-2.30005v-5.20001c6.59998,0,13.40002.70001,20,.70001,5.19995,0,10.30005-.70001,15.5-.70001l77.7002,87.00006Z" fill="#211e1f"/>
        <path d="M2089.19998,513.30005l-7.19995-.29999-88.30005-98.5v69.79999c.19995,15.10001,2.5,19.39999,15.59998,19.60001h3.80005v6.79999h-.80005c-7.5,0-15-.70001-22.5-.70001-7.80005,0-15.80005.70001-23.69995.70001h-.69995v-6.79999h3.19995c11.5,0,14.80005-7.39999,14.90002-21.29999v-73.30002c0-9.29999-7.59998-14.89999-15.09998-14.89999h-3v-6.70001h.69995c6.69995,0,13.5.70001,20,.70001,5.19995,0,10.19995-.70001,16.09998-.39999l76.5,86.10001v-64c0-13.89999-9.30005-15.5-14.3999-15.60001h-4.6001v-6.70001h.80005c8.19995,0,16.19995.70001,24.30005.70001,7.1001,0,14.19995-.70001,21.5-.70001h.69995v6.70001h-3.3999c-7.19995.20001-14.6001.89999-14.69995,21.39999v79.10001c0,6.10001.1001,12.20001,1,17.5l.1001.79999h-.80029ZM2082.59988,511.80005h5.69995c-.80005-5.20001-.8999-11-.8999-16.79999v-79.20001c0-20.89999,8.80005-22.79999,16.19995-22.89999h1.8999v-3.70001c-6.8999,0-13.69995.70001-20.69995.70001-7.8999,0-15.69995-.60001-23.6001-.70001v3.70001h3.1001c5.3999.10001,15.8999,2.39999,15.8999,17.20001l-.19995,65.80002-.30005.39999-.6001.60001-77.5-87.5c-5.09998,0-10.19995.70001-15.5.70001-6.40002,0-12.90002-.60001-19.30005-.70001v3.70001h1.5c8.19995.10001,16.59998,6.20001,16.59998,16.39999v73.30002c0,13.89999-3.90002,22.79999-16.40002,22.89999h-1.69995v3.70001c7.59998,0,15.30005-.70001,23-.70001,7.30005,0,14.5.60001,21.69995.70001v-3.70001h-2.19995c-13.69995,0-17.09998-6-17.09998-21.10001v-73.70001l90.40027,100.89996ZM2079.09988,475.60004l.6001-.5-.6001.5ZM2078.69998,475.30005l-.1001-.20001.1001.20001ZM2134.19998,485.10004c-1.69995,5.89999-3.80005,10.5-3.80005,13.60001,0,5.20001,7.30005,6.10001,13,6.10001h1.8999v5.29999c-7-.39999-14.1001-.70001-21.1001-.70001-6.30005,0-12.5.29999-18.80005.70001v-5.29999h1c6.80005,0,12.6001-4,15.19995-11.29999l27.8999-79.89999c2.19995-6.39999,5.3999-15.10001,6.3999-21.60001,5.6001-1.89999,12.5-5.39999,15.8999-7.5.5-.20001.80005-.39999,1.3999-.39999.5,0,.80005,0,1.19995.5.5,1.39999,1.1001,3,1.6001,4.29999l32,91.10001c2.1001,6.10001,4.19995,12.5,6.5,17.79999,2.1001,4.89999,5.80005,6.89999,11.5,6.89999h1.1001v5.29999c-7.80005-.39999-15.69995-.70001-24-.70001-8.5,0-17.19995.29999-26.1001.70001v-5.29999h1.8999c4,0,10.80005-.70001,10.80005-5,0-2.29999-1.6001-7-3.5-12.5l-6.80005-20.20001h-39.5l-5.69922,18.10001ZM2159.69998,407.90002h-.30005l-16.19995,49.29999h32.6001l-16.1001-49.29999Z" fill="#211e1f"/>
        <path d="M2227.00003,510.70007c-7.80005-.29999-15.69995-.70001-24-.70001-8.5,0-17.19995.39999-26.1001.70001h-.80005v-6.70001h2.6001c4.1001,0,10.1001-.89999,10.1001-4.29999,0-2-1.5-6.70001-3.5-12.29999l-6.6001-19.70001h-38.3999l-5.3999,17.60001c-1.69995,6-3.80005,10.5-3.80005,13.39999,0,4.29999,6.5,5.29999,12.30005,5.29999h2.69995v6.79999h-.80005c-7-.29999-14.1001-.70001-21-.70001-6.19995,0-12.5.39999-18.80005.70001h-.80005v-6.79999h1.80005c6.5,0,11.8999-3.79999,14.5-10.79999l27.8999-79.89999c2.19995-6.5,5.3999-15.10001,6.8999-22.10001,5.5-1.89999,12.5-5.39999,15.80005-7.5.5-.20001.8999-.39999,1.6001-.39999.5,0,1.3999.10001,1.8999,1,.5,1.39999,1,2.89999,1.6001,4.39999l32,91c2.1001,6.10001,4.19995,12.5,6.3999,17.70001,2,4.60001,5.19995,6.39999,10.80005,6.5h1.80005v6.79999h-.69995ZM2177.60013,509.20007c8.6001-.29999,17.1001-.70001,25.3999-.70001,8.1001,0,15.69995.29999,23.30005.60001v-3.60001h-.30005c-5.8999,0-10-2.29999-12.19995-7.39999-2.30005-5.29999-4.3999-11.70001-6.3999-17.79999l-32-91.10001c-.5-1.39999-1-3-1.5-4.20001q-.1001-.20001-.30005-.20001h-.30005c-.3999,0-.6001.10001-1,.20001-3.3999,2.10001-10.3999,5.60001-15.5,7-1.1001,6.60001-4.19995,15.29999-6.5,21.70001l-27.8999,79.89999c-2.6001,7.60001-8.69995,11.89999-15.80005,11.89999h-.30005v3.60001c6-.29999,12-.60001,18-.60001,6.69995,0,13.6001.29999,20.30005.60001v-3.60001h-1.19995c-5.69995-.10001-13.6001-.70001-13.80005-6.89999,0-3.5,2.19995-7.89999,3.8999-13.79999l.69995.20001-.69995-.29999,5.69995-18.60001h40.6001l7,20.70001c1.8999,5.60001,3.5,10.20001,3.5,12.79999-.30005,5.29999-7.6001,5.70001-11.5,5.79999h-1.1001l-.09985,3.79999ZM2142.10013,457.90008l16.69995-50.79999h.8999v.79999h-.19995.19995v-.79999h.5l16.5,50.79999h-34.59985ZM2144.10013,456.40008h30.3999l-15.1001-46.60001-15.2998,46.60001ZM2158.90018,408.1001l.30005-.10001-.30005.10001ZM2270.90018,492.90008c0,7,4.80005,9,10.3999,9.79999,7.1001.5,15,.5,23-.39999,7.30005-.89999,13.6001-5.10001,16.69995-9.39999,2.80005-3.79999,4.30005-8.70001,5.3999-12.5h5c-1.8999,9.89999-4.30005,19.70001-6.3999,29.60001-15.30005,0-30.6001-.70001-45.8999-.70001s-30.6001.70001-45.8999.70001v-5.29999h2.3999c6.30005,0,13.1001-.79999,13.1001-11.60001v-89.5c0-9.10001-6.80005-9.89999-13.1001-9.89999h-2.3999v-5.20001c9.19995,0,18.30005.70001,27.5.70001,8.8999,0,17.6001-.70001,26.5-.70001v5.20001h-4.3999c-6.6001,0-11.80005.20001-11.80005,9.39999v89.79999h-.1001Z" fill="#211e1f"/>
        <path d="M2325.00003,510.70007c-15.30005,0-30.69995-.70001-45.8999-.70001-15.30005,0-30.6001.70001-46,.70001h-.69995v-6.70001h3.19995c6.30005-.10001,12.30005-.60001,12.30005-10.89999v-89.5c-.1001-8.5-6-9-12.30005-9.20001h-3.19995v-6.70001h.69995c9.30005,0,18.30005.70001,27.5.70001,8.80005,0,17.5-.70001,26.5-.70001h.69995v6.70001h-5.1001c-6.69995.20001-10.8999-.10001-11.1001,8.70001v89.80002c0,6.5,4.30005,8.20001,9.69995,9,3.1001.20001,6.30005.39999,9.69995.39999,4.30005,0,8.69995-.20001,13.19995-.70001,7.1001-.79999,13.19995-4.89999,16.19995-9.10001,2.69995-3.70001,4.19995-8.5,5.30005-12.29999l.19995-.60001h6.6001l-.19995.89999c-2,10-4.3999,19.70001-6.5,29.60001l-.1001.60001h-.69971ZM2324.30008,509.20007c2-9.39999,4.30005-18.70001,6.19995-28.10001h-3.6001c-1.1001,3.79999-2.6001,8.5-5.3999,12.29999-3.19995,4.5-9.69995,8.79999-17.19995,9.70001-4.6001.5-9.1001.70001-13.30005.70001-3.3999,0-6.6001-.20001-9.80005-.39999-5.69995-.60001-11.19995-3-11.1001-10.5v-89.79999c0-9.70001,6.1001-10.20001,12.6001-10.20001h3.6001v-3.70001c-8.6001,0-17,.70001-25.69995.70001-9,0-17.80005-.60001-26.80005-.70001v3.70001h1.69995c6.19995,0,13.80005,1.10001,13.80005,10.70001v89.5c0,11.29999-7.6001,12.39999-13.80005,12.39999h-1.69995v3.70001c15.1001,0,30.1001-.70001,45.19995-.70001,15.19995,0,30.30005.70001,45.30005.70001v-.00003ZM2329.30008,383.50006c10.5,0,18.30005,8.10001,18.30005,18.39999s-7.80005,18.29999-18.30005,18.29999-18.30005-8-18.30005-18.29999,7.80005-18.39999,18.30005-18.39999ZM2329.30008,416.70007c8.19995,0,14.5-7,14.5-14.89999s-6.19995-15-14.5-15c-8.19995,0-14.5,7.10001-14.5,15s6.30005,14.89999,14.5,14.89999ZM2320.19998,411.50006v-.89999c2.30005-.29999,2.69995-.20001,2.69995-1.60001v-13.60001c0-1.89999-.19995-2.60001-2.6001-2.5v-.89999h9.3999c3.19995,0,6.19995,1.5,6.19995,4.89999,0,2.70001-1.80005,4.70001-4.30005,5.5l3,4.20001c1.3999,1.89999,3,3.70001,4,4.29999v.60001h-3.6001c-1.69995,0-3.19995-3.60001-6.6001-8.39999h-2v6.10001c0,1.20001.3999,1.10001,2.69995,1.39999v.89999h-8.89941ZM2326.39993,401.90005h2.19995c2.3999,0,3.5-1.79999,3.5-4.70001s-1.69995-3.89999-3.6001-3.89999h-2v8.60001h-.09985Z" fill="#211e1f"/>
      </g>
      <path d="M449.80002,608.30005c166.29999.79999,318-135.60001,318-301.5C767.80002,125.40005,616.00003-.09995,449.80002.00006h-143.10001C138.50002-.09994,0,125.40006,0,306.80005c0,166,138.5,302.29999,306.70001,301.5h143.10001Z" fill="#0079be"/>
      <path d="M307.40002,25.10006C153.70003,25.10006,29.10004,149.80006,29.00003,303.60007c0,153.80002,124.60001,278.39999,278.39999,278.39999s278.39999-124.70001,278.39999-278.39999c0-153.8-124.60001-278.39999-278.39999-278.50001ZM131.00003,303.60007c.10001-75.2,47.10001-139.3,113.3-164.7v329.39998c-66.2-25.39999-113.2-89.5-113.3-164.70001v.00003ZM370.60004,468.40008V138.90008c66.19998,25.39999,113.19998,89.5,113.30002,164.70001-.10001,75.20001-47.10001,139.29999-113.29999,164.79999h-.00003Z" fill="#fff"/>
      <path d="M865.40005,130.90005c0-28.8-15-26.9-29.40002-27.2v-8.3c12.5.6,25.29999.6,37.70001.6,13.40002,0,31.70001-.6,55.40002-.6,82.79999,0,127.89996,55.3,127.89996,112,0,31.7-18.5,111.30002-131.79999,111.30002-16.29999,0-31.40002-.60001-46.40002-.60001-14.40002,0-28.5.29999-42.90002.60001v-8.29999c19.20001-1.89999,28.5-2.60001,29.40002-24.29999l.10004-155.20004ZM896.70004,280.90005c0,24.60001,17.59998,27.5,33.29999,27.5,69.09998,0,91.79999-52.20001,91.79999-99.8,0-59.8-38.40002-103-100.09998-103-13.09998,0-19.20001.9-25,1.3v174ZM1068.19998,310.40005h6.09998c8.90002,0,15.40002,0,15.40002-10.60001v-86.7c0-14.10001-4.80005-16-16.59998-22.39999v-5.10001c15-4.5,33-10.5,34.19995-11.5,2.30005-1.3,4.19995-1.60001,5.80005-1.60001s2.19995,1.89999,2.19995,4.5v122.8c0,10.60001,7,10.60001,16,10.60001h5.40002v8.29999c-10.90002,0-22.09998-.60001-33.59998-.60001s-23,.29999-34.90002.60001v-8.29999ZM1102.39993,123.20006c-8.30005,0-15.69995-7.7-15.69995-16,0-8,7.69995-15.4,15.69995-15.4,8.30005,0,15.69995,6.7,15.69995,15.4s-7,16-15.69995,16ZM1167.09988,215.00006c0-11.8-3.5-15-18.5-21.10001v-6.10001c13.69995-4.5,26.80005-8.60001,42.19995-15.39999,1,0,1.90002.7,1.90002,3.2v20.8c18.30005-13.10001,33.90002-24,55.40002-24,27.19995,0,36.80005,19.8,36.80005,44.8v82.50002c0,10.60001,7,10.60001,16,10.60001h5.80005v8.29999c-11.19995,0-22.40002-.60001-33.90002-.60001s-23.09998.29999-34.59998.60001v-8.29999h5.69995c9,0,15.30005,0,15.30005-10.60001v-82.7c0-18.3-11.09998-27.2-29.40002-27.2-10.19995,0-26.5,8.3-37.09998,15.39999v94.70001c0,10.60001,7.09998,10.60001,16,10.60001h5.69995v8.29999c-11.19995,0-22.40002-.60001-33.90002-.60001s-23,.29999-34.5.60001v-8.29999h5.80005c9,0,15.30005,0,15.30005-10.60001l-.00012-84.90002ZM1330.89993,230.40005c-.69995,2.89999-.69995,7.7,0,18.60001,1.90002,30.39999,21.40002,55.29999,47,55.29999,17.59998,0,31.40002-9.60001,43.19995-21.39999l4.5,4.5c-14.69995,19.5-33,36.10001-59.19995,36.10001-50.90002,0-61.09998-49.29999-61.09998-69.7,0-62.7,42.19995-81.3,64.59998-81.3,25.90002,0,53.80005,16.3,54.09998,50.2,0,1.89999,0,3.8-.30005,5.8l-2.90002,1.89999h-89.8999ZM1387.49991,220.10005c8,0,8.90002-4.2,8.90002-8,0-16.3-9.90002-29.39999-27.80005-29.39999-19.5,0-32.90002,14.39999-36.80005,37.40001l55.70007-.00002ZM1431.29996,310.40005h8.59998c8.90002,0,15.30005,0,15.30005-10.60001v-89.89999c0-9.89999-11.80005-11.8-16.59998-14.39999v-4.8c23.40002-9.89999,36.19995-18.3,39.09998-18.3,1.90002,0,2.80005,1,2.80005,4.2v28.8h.69995c8-12.5,21.40002-33,40.90002-33,8,0,18.19995,5.39999,18.19995,17,0,8.60001-6.09998,16.3-15,16.3-10,0-10-7.7-21.09998-7.7-5.40002,0-23.30005,7.39999-23.30005,26.60001v75.19998c0,10.60001,6.40002,10.60001,15.40002,10.60001h17.90002v8.29999c-17.59998-.29999-31-.60001-44.80005-.60001-13.09998,0-26.59998.29999-38.09998.60001v-8.29999ZM1554.49991,274.20004c4.19995,21.10001,16.90002,39,40.30005,39,18.80005,0,25.90002-11.5,25.90002-22.70001,0-37.8-69.69995-25.60001-69.69995-77.10001,0-17.89999,14.40002-41,49.59998-41,10.19995,0,24,2.89999,36.40002,9.3l2.30005,32.59999h-7.40002c-3.19995-20.10001-14.40002-31.7-34.90002-31.7-12.80005,0-24.90002,7.39999-24.90002,21.10001,0,37.5,74.19995,25.89999,74.19995,76.09999,0,21.10001-17,43.5-55,43.5-12.80005,0-27.80005-4.5-39-10.89999l-3.5-36.79999,5.69995-1.39999ZM1935.09988,153.30005h-8c-6.09998-37.4-32.59998-52.5-68.40002-52.5-36.80005,0-90.19995,24.6-90.19995,101.39999,0,64.69998,46.09998,111,95.30005,111,31.69995,0,57.90002-21.79999,64.30005-55.39999l7.30005,1.89999-7.30005,46.70001c-13.40002,8.29999-49.59998,17-70.69995,17-74.80005,0-122.19995-48.29999-122.19995-120.3,0-65.59999,58.5-112.6,121.19995-112.6,25.90002,0,50.90002,8.4,75.5,17l3.19983,45.8ZM1946.59988,310.40005h6.09998c9,0,15.40002,0,15.40002-10.60001V121.60005c0-20.8-4.80005-21.4-17-25v-5.1c12.80005-4.2,26.19995-9.9,33-13.8,3.5-1.9,6.09998-3.5,7-3.5,2,0,2.59998,1.9,2.59998,4.5v221.1c0,10.60001,7,10.60001,16,10.60001h5.40002v8.29999c-10.80005,0-22-.60001-33.59998-.60001-11.5,0-23,.29999-34.90002.60001v-8.29999ZM2151.99979,301.10007c0,5.79999,3.5,6.10001,8.8999,6.10001,3.80005,0,8.6001-.29999,12.80005-.29999v6.70001c-13.80005,1.29999-40,8-46.1001,9.89999l-1.6001-1v-25.89999c-19.19995,15.70001-33.8999,26.89999-56.6001,26.89999-17.30005,0-35.19995-11.20001-35.19995-38v-81.89999c0-8.3-1.30005-16.3-19.19995-17.89999v-6.10001c11.5-.3,37.1001-2.2,41.19995-2.2,3.5,0,3.5,2.2,3.5,9.3v82.5c0,9.60001,0,37.10001,27.80005,37.10001,10.8999,0,25.30005-8.29999,38.69995-19.5v-86.10001c0-6.39999-15.30005-9.89999-26.80005-13.10001v-5.8c28.80005-1.89999,46.69995-4.5,49.8999-4.5,2.6001,0,2.6001,2.2,2.6001,5.8l.10034,117.99997ZM2215.69974,195.50006c12.80005-10.89999,30.1001-23,47.69995-23,37.1001,0,59.5,32.3,59.5,67.2,0,41.90001-30.69995,83.8-76.5,83.8-23.69995,0-36.1001-7.70001-44.5-11.20001l-9.6001,7.29999-6.69995-3.5c2.80005-18.89999,4.5-37.39999,4.5-56.89999V121.60004c0-20.8-4.80005-21.4-17-25v-5.1c12.80005-4.2,26.19995-9.9,33-13.8,3.5-1.9,6.1001-3.5,7.1001-3.5,1.8999,0,2.5,1.9,2.5,4.5v116.80003ZM2215.69974,282.50006c0,12.20001,11.5,32.70001,32.8999,32.70001,34.19995,0,48.6001-33.60001,48.6001-62.10001,0-34.5-26.19995-63.3-51.19995-63.3-11.8999,0-21.80005,7.7-30.3999,15.10001l.09985,77.59999ZM835.59976,504.70007h2.5c6.29999,0,12.90002-.79999,12.90002-9.89999v-91.19998c0-9.10001-6.59998-9.89999-12.90002-9.89999h-2.5v-5.20001c6.79999,0,17.20001.70001,25.79999.70001,8.70001,0,19.09998-.70001,27.29999-.70001v5.20001h-2.5c-6.20001,0-12.90002.89999-12.90002,9.89999v91.20001c0,9.10001,6.59998,9.89999,12.90002,9.89999h2.5v5.29999c-8.40002,0-18.79999-.70001-27.5-.70001-8.5,0-18.79999.70001-25.59998.70001v-5.30002Z" fill="#211e1f"/>
      <path d="M888.70004,510.70007c-8.40002,0-18.79999-.70001-27.5-.70001-8.5,0-18.70001.70001-25.59998.70001h-.70001v-6.70001h3.20001c6.29999-.10001,12.09998-.70001,12.09998-9.20001v-91.20001c-.09998-8.5-5.79999-9.10001-12.09998-9.20001h-3.20001v-6.70001h.70001c6.79999,0,17.29999.70001,25.79999.70001,8.70001,0,19.09998-.70001,27.29999-.70001h.79999v6.70001h-3.20001c-6.29999.10001-12.09998.70001-12.09998,9.20001v91.20001c0,8.5,5.79999,9,12.09998,9.20001h3.20001v6.70001h-.79999ZM888.00003,509.20007v-3.70001h-1.70001c-6.20001,0-13.59998-1.10001-13.70001-10.70001v-91.20001c0-9.60001,7.40002-10.70001,13.70001-10.70001h1.70001v-3.70001c-8,0-18.09998.70001-26.59998.70001-8.29999,0-18.29999-.60001-25-.70001v3.70001h1.70001c6.20001,0,13.59998,1.10001,13.59998,10.70001v91.20001c0,9.60001-7.40002,10.70001-13.59998,10.70001h-1.70001v3.70001c6.70001-.10001,16.59998-.70001,24.79999-.70001,8.5,0,18.59998.70001,26.79999.70001ZM1008.30002,475.60007l.29999-.29999v-65.30002c0-14.29999-9.90002-16.39999-15.09998-16.39999h-3.79999v-5.20001c8.20001,0,16.20001.70001,24.40002.70001,7.09998,0,14.29999-.70001,21.39996-.70001v5.20001h-2.59998c-7.30005,0-15.5,1.39999-15.5,22.10001v79.29999c0,6.10001.20001,12.20001,1,17.59998h-6.59998l-89.59998-99.89999v71.69998c0,15.10001,2.90002,20.39999,16.40002,20.39999h2.90002v5.29999c-7.5,0-14.90002-.70001-22.40002-.70001-7.79999,0-15.79999.70001-23.70001.70001v-5.29999h2.40002c12,0,15.70001-8.20001,15.70001-22.10001v-73.29999c0-9.70001-8-15.60001-15.79999-15.60001h-2.29999v-5.20001c6.59998,0,13.40002.70001,20,.70001,5.20001,0,10.29999-.70001,15.5-.70001l77.39984,87.00006Z" fill="#211e1f"/>
      <path d="M1018.40005,513.30005l-7.20001-.29999-88.29999-98.5v69.79999c.20001,15.10001,2.5,19.39999,15.59998,19.60001h3.70001v6.70001h-.79999c-7.5,0-15-.70001-22.5-.70001-7.79999,0-15.79999.70001-23.70001.70001h-.79999v-6.60001h3.20001c11.5-.10001,14.79999-7.39999,14.90002-21.29999v-73.29999c0-9.29999-7.59998-14.89999-15.09998-14.89999h-3v-6.70001h.79999c6.70001,0,13.5.70001,20,.70001,5.20001,0,10.20001-.70001,16.09998-.39999l76.5,86.10001v-64c-.09998-13.89999-9.29999-15.5-14.40002-15.60001h-4.59998v-6.70001h.79999c8.20001,0,16.20001.70001,24.40002.70001,7.09998,0,14.20001-.70001,21.39996-.70001h.80005v6.70001h-3.40002c-7.19995.20001-14.59998.79999-14.79999,21.39999v79c0,6.10001.20001,12.20001,1,17.39999l.20001.90002-.80005-.00006ZM1011.70004,511.80005h5.79999c-.79999-5.20001-.90002-11-.90002-16.79999v-79.20001c0-20.89999,8.80005-22.89999,16.19995-22.89999h1.80005v-3.70001c-6.90002,0-13.70001.70001-20.70001.70001-8,0-15.70001-.60001-23.59998-.70001v3.70001h3.09998c5.29999,0,15.90002,2.39999,15.90002,17.20001l-.20001,65.80002-.40002.39999-.59998.5-77.40002-87.5c-5.20001,0-10.20001.70001-15.5.70001-6.40002,0-12.90002-.60001-19.20001-.70001v3.70001h1.5c8.20001,0,16.59998,6.20001,16.59998,16.39999v73.29999c0,13.89999-3.90002,22.79999-16.40002,22.89999h-1.70001v3.79999c7.5-.10001,15.29999-.70001,22.90002-.70001,7.29999,0,14.5.60001,21.70001.70001v-3.70001h-2.20001c-13.70001,0-17.09998-6-17.09998-21.10001v-73.70001l90.40009,100.90002ZM1008.30002,475.60004l.59998-.5-.59998.5ZM1007.89999,475.30005l-.09998-.20001.09998.20001ZM1061.50003,397.10004c-13.09998,0-13.59998,3.10001-16.19995,15.79999h-5.19995c.69995-4.89999,1.59998-9.70001,2.09998-14.79999.69995-4.89999,1-9.70001,1-14.79999h4.19995c1.40002,5.20001,5.69995,5,10.5,5h89.80005c4.69995,0,9.09998-.20001,9.40002-5.39999l4.19995.70001c-.69995,4.70001-1.40002,9.39999-1.90002,14.10001-.30005,4.70001-.30005,9.39999-.30005,14.10001l-5.19995,1.89999c-.40002-6.39999-1.19995-16.70001-12.90002-16.70001h-28.5v92.60001c0,13.39999,6.09998,15,14.40002,15h3.30005v5.29999c-6.80005,0-19-.70001-28.40002-.70001-10.40002,0-22.59998.70001-29.40002.70001v-5.29999h3.30005c9.59998,0,14.40002-.89999,14.40002-14.60001v-93l-28.6001.09998Z" fill="#211e1f"/>
      <path d="M1130.10001,510.70007c-6.90002,0-19-.70001-28.40002-.70001-10.40002,0-22.59998.70001-29.40002.70001h-.69995v-6.70001h4c9.59998-.20001,13.5-.39999,13.69995-13.79999v-92.20001h-27.80005v-1.5h29.30005v93.79999c0,14-5.59998,15.39999-15.19995,15.39999h-2.59998v3.70001c6.90002,0,18.59998-.70001,28.69995-.70001,9.09998,0,20.69995.60001,27.59998.70001v-3.70001h-2.5c-8.40002,0-15.19995-2.10001-15.19995-15.79999v-93.39999h29.30005c11.69995,0,13.19995,10,13.59998,16.39999l3.80005-1.39999c0-4.5,0-9.10001.30005-13.70001.5-4.5,1.09998-8.89999,1.80005-13.39999l-2.69995-.39999c-.80005,5.10001-5.69995,5.29999-10.09998,5.29999h-90.59998c-4.09998,0-8.59998-.20001-10.09998-5.10001h-2.90002c0,4.70001-.40002,9.39999-1,14.10001-.5,4.79999-1.30005,9.39999-2,14h3.69995c2.30005-12.10001,3.80005-16.10001,16.80005-15.89999v1.5c-12.90002.20001-12.59998,2.39999-15.40002,15.29999l-.09998.60001h-6.69995l.09998-.89999c.69995-4.89999,1.59998-9.70001,2.09998-14.79999.69995-4.79999,1.09998-9.70001,1.09998-14.70001v-.79999h5.5l.09998.5c1.19995,4.39999,4.40002,4.39999,8.80005,4.5h90.69995c4.90002-.10001,8.40002-.10001,8.69995-4.70001l.09998-.79999.80005.20001,4.90002.79999-.09998.79999c-.69995,4.70001-1.40002,9.39999-1.90002,14-.30005,4.60001-.30005,9.29999-.30005,14v.5l-.5.20001-6.19995,2.20001v-1c-.5-6.5-1.09998-16-12.09998-16h-27.80005v91.89999c.19995,13.10001,5.40002,14,13.69995,14.20001h4.09998v6.70001l-1.00012.09998ZM1166.79996,504.70007h2.5c6.30005,0,12.90002-.79999,12.90002-9.89999v-91.19998c0-9.10001-6.59998-9.89999-12.90002-9.89999h-2.5v-5.20001c10.59998,0,28.69995.70001,43.30005.70001,14.69995,0,32.69995-.70001,44.59998-.70001-.30005,7.5-.09998,19,.40002,26.60001l-5.30005,1.39999c-.80005-11.29999-2.90002-20.29999-21.19995-20.29999h-24.19995v45.60001h20.69995c10.40002,0,12.69995-5.89999,13.69995-15.29999h5.19995c-.30005,6.79999-.5,13.60001-.5,20.39999,0,6.60001.19995,13.20001.5,19.79999l-5.19995,1c-1-10.39999-1.59998-17.20001-13.59998-17.20001h-20.90002v40.5c0,11.29999,10.09998,11.29999,21.19995,11.29999,20.90002,0,30.09998-1.39999,35.30005-21.20001l4.90002,1.20001c-2.30005,9.20001-4.40002,18.5-5.90002,27.70001-11.19995,0-31.19995-.70001-46.80005-.70001-15.69995,0-36.40002.70001-46.30005.70001v-5.29999l.1001-.00003Z" fill="#211e1f"/>
      <path d="M1259.90005,510.70007c-11.19995,0-31.19995-.70001-46.80005-.70001-15.69995,0-36.40002.70001-46.30005.70001h-.69995v-6.70001h3.19995c6.30005-.10001,12-.70001,12.09998-9.20001v-91.20001c-.09998-8.5-5.80005-9.10001-12.09998-9.20001h-3.19995v-6.70001h.69995c10.59998,0,28.69995.70001,43.30005.70001s32.69995-.70001,44.59998-.70001h.80005v.79999c-.09998,2.60001-.19995,5.70001-.19995,9,0,6,.19995,12.60001.5,17.60001v.60001l-.59998.20001-6.09998,1.60001v-.89999c-1-11.29999-2.5-19.5-20.5-19.70001h-23.5v44.10001h20c10-.10001,11.80005-5.20001,13-14.60001l.09998-.70001h6.69995v.79999c-.30005,6.79999-.59998,13.60001-.59998,20.39999,0,6.60001.19995,13.20001.59998,19.79999v.60001l-.59998.10001-6,1.20001-.09998-.79999c-1.19995-10.60001-1.30005-16.39999-12.80005-16.60001h-20.09998v39.79999c0,10.60001,9.09998,10.5,20.5,10.60001,21-.10001,29.40002-1.10001,34.59998-20.70001l.19995-.70001.69995.10001,5.59998,1.39999-.19995.70001c-2.19995,9.20001-4.30005,18.39999-5.90002,27.60001l-.09998.60001-.79993.10007ZM1259.30008,509.20007c1.5-8.79999,3.5-17.60001,5.59998-26.39999l-3.40002-.89999c-5.19995,19.5-15.30005,21.20001-35.80005,21.10001-11,0-21.90002,0-22-12.10001v-41.29999h21.59998c12.19995-.10001,13.40002,7.20001,14.30005,17.10001l3.80005-.79999c-.30005-6.39999-.5-12.79999-.5-19.20001,0-6.60001.19995-13.10001.5-19.60001h-3.80005c-1,9.10001-3.80005,15.39999-14.40002,15.29999h-21.5v-47.10001h25c18.09998-.10001,21.09998,9.20001,21.90002,20.20001l3.80005-1c-.30005-4.89999-.5-11.20001-.5-17,0-3,.09998-5.79999.19995-8.29999-11.80005,0-29.5.70001-43.80005.70001s-31.90002-.60001-42.59998-.70001v3.70001h1.69995c6.19995,0,13.59998,1.10001,13.59998,10.70001v91.19998c0,9.60001-7.40002,10.70001-13.59998,10.70001h-1.69995v3.70001c10.19995,0,30.30005-.70001,45.59998-.70001,15.19995,0,34.80005.70001,46,.70001l.00012-.00006ZM1289.30008,406.90008c0-12.70001-7-13.20001-12.40002-13.20001h-3.09998v-5.20001c5.59998,0,16.40002.70001,27,.70001,10.40002,0,18.80005-.70001,28-.70001,21.90002,0,41.40002,5.89999,41.40002,30.70001,0,15.60001-10.40002,25.20001-24.19995,30.60001l29.80005,44.5c4.90002,7.39999,8.30005,9.39999,16.90002,10.39999v5.29999c-5.69995,0-11.30005-.70001-17.09998-.70001-5.40002,0-11,.70001-16.40002.70001-13.40002-17.60001-24.90002-36.39999-36.19995-56.39999h-11.5v37.29999c0,13.39999,6.19995,13.89999,14.19995,13.89999h3.09998v5.29999c-9.90002,0-20-.70001-29.90002-.70001-8.40002,0-16.5.70001-25.19995.70001v-5.29999h3.09998c6.5,0,12.40002-2.89999,12.40002-9.39999l.09985-88.49997ZM1311.60013,447.30008h8.5c17.40002,0,26.80005-6.60001,26.80005-27.20001,0-15.5-9.90002-25.39999-25.40002-25.39999-5.19995,0-7.40002.5-9.90002.70001v51.89999Z" fill="#211e1f"/>
      <path d="M1392.69998,510.70007c-5.80005,0-11.40002-.70001-17.09998-.70001-5.30005,0-10.90002.70001-16.90002.39999-13.40002-17.5-24.80005-36.20001-36-56.10001h-10.30005v36.5c.19995,13.10001,5.40002,13,13.5,13.20001h3.90002v6.70001h-.80005c-9.90002,0-20-.70001-29.90002-.70001-8.30005,0-16.5.70001-25.19995.70001h-.80005v-6.70001h3.90002c6.30005,0,11.59998-2.79999,11.59998-8.60001v-88.39999c-.09998-12.39999-6.19995-12.29999-11.59998-12.5h-3.90002v-6.70001h.80005c5.59998,0,16.40002.70001,27,.70001,10.40002,0,18.80005-.70001,28-.70001,21.90002,0,42.09998,6.10001,42.19995,31.39999,0,15.70001-10.40002,25.5-23.80005,31l29.19995,43.79999c4.90002,7.20001,7.90002,9,16.40002,10.10001l.59998.10001v6.60001l-.7998-.09998ZM1311.60001,452.80008h11.90002l.19995.39999c11.30005,20,22.80005,38.79999,35.59998,56,5.30005,0,10.90002-.70001,16.30005-.70001,5.59998,0,10.90002.60001,16.30005.70001v-3.79999c-8.19995-1-12-3.5-16.80005-10.70001l-30.30005-45.29999.90002-.39999c13.59998-5.39999,23.69995-14.70001,23.69995-30,0-24.20001-18.80005-29.79999-40.69995-29.79999-9.19995,0-17.5.70001-28,.70001-10.19995,0-20.5-.60001-26.19995-.70001v3.70001h2.40002c5.40002,0,13.09998.89999,13.09998,14v88.39999c0,7-6.59998,10.20001-13.09998,10.20001h-2.40002v3.70001c8.40002,0,16.30005-.70001,24.5-.70001,9.69995,0,19.59998.70001,29.19995.70001v-3.70001h-2.40002c-7.90002,0-15-1-15-14.70001v-38l.80005-.00003ZM1311.60001,448.00009h-.80005v-53.29999l.69995-.10001c2.40002-.20001,4.69995-.70001,10-.70001,15.90002,0,26.19995,10.29999,26.19995,26.20001,0,20.79999-10,27.79999-27.59998,27.89999h-8.49988ZM1320.10001,446.50009c17.19995-.10001,25.90002-6.10001,26.09998-26.39999-.09998-15.20001-9.5-24.60001-24.69995-24.70001-4.69995,0-6.90002.39999-9.09998.60001v50.39999h7.69995v.10001ZM1510.90005,475.6001l.30005-.29999v-65.29999c0-14.29999-9.90002-16.39999-15.09998-16.39999h-3.80005v-5.20001c8.19995,0,16.19995.70001,24.40002.70001,7.09998,0,14.30005-.70001,21.40002-.70001v5.20001h-2.59998c-7.30005,0-15.5,1.39999-15.5,22.10001v79.29999c0,6.10001.19995,12.20001,1,17.59998h-6.59998l-89.59998-99.89999v71.69998c0,15.10001,3,20.39999,16.40002,20.39999h3v5.29999c-7.5,0-15-.70001-22.40002-.70001-7.90002,0-15.90002.70001-23.69995.70001v-5.29999h2.40002c12,0,15.69995-8.20001,15.69995-22.10001v-73.29999c0-9.70001-8-15.60001-15.80005-15.60001h-2.30005v-5.20001c6.59998,0,13.40002.70001,20,.70001,5.19995,0,10.30005-.70001,15.5-.70001l77.29993,87.00003Z" fill="#211e1f"/>
      <path d="M1521.00003,513.30005l-7.19995-.20001-88.30005-98.5v69.79999c.19995,15.10001,2.5,19.39999,15.59998,19.60001h3.69995v6.70001h-.80005c-7.5,0-15-.70001-22.5-.70001-7.80005,0-15.80005.70001-23.59998.70001h-.80005v-6.70001h3.19995c11.5,0,14.80005-7.39999,14.90002-21.39999v-73.29999c0-9.29999-7.59998-14.89999-15-14.89999h-3.09998v-6.70001h.80005c6.59998,0,13.40002.70001,20,.70001,5.09998,0,10.19995-.70001,16-.39999l76.5,86.20001v-64c0-13.79999-9.30005-15.5-14.40002-15.60001h-4.59998v-6.70001h.80005c8.19995,0,16.19995.70001,24.40002.70001,7.09998,0,14.19995-.70001,21.40002-.70001h.80005v6.70001h-3.30005c-7.19995.20001-14.59998.79999-14.80005,21.39999v79c0,6.10001.19995,12.10001,1,17.5l.09998.79999h-.79993ZM1514.40005,511.80005h5.69995c-.80005-5.20001-.90002-11-.90002-16.79999v-79.20001c0-20.89999,8.80005-22.79999,16.30005-22.89999h1.80005v-3.70001c-6.80005,0-13.69995.70001-20.59998.70001-8,0-15.80005-.60001-23.59998-.70001v3.70001h3.09998c5.40002.10001,15.90002,2.39999,15.90002,17.10001l-.19995,65.79999-.30005.39999-.5.60001-77.5-87.5c-5.19995,0-10.19995.70001-15.5.70001-6.40002,0-13-.60001-19.30005-.70001v3.70001h1.5c8.19995.10001,16.59998,6.20001,16.59998,16.39999v73.30002c0,14-3.90002,22.89999-16.40002,22.89999h-1.69995v3.70001c7.5,0,15.30005-.70001,22.90002-.70001,7.30005,0,14.5.60001,21.69995.70001v-3.70001h-2.19995c-13.69995,0-17.09998-6-17.19995-21.20001v-73.69998l90.3999,101.09998ZM1510.90005,475.60004l.5-.5-.5.5ZM1510.40005,475.30005l-.09998-.20001.09998.20001ZM1566.00003,485.10004c-1.80005,5.89999-3.90002,10.5-3.90002,13.60001,0,5.20001,7.30005,6.10001,13,6.10001h1.90002v5.29999c-7-.39999-14.09998-.70001-21.09998-.70001-6.30005,0-12.5.29999-18.80005.70001v-5.29999h1c6.80005,0,12.5-4,15.09998-11.29999l27.90002-79.89999c2.19995-6.39999,5.40002-15.10001,6.5-21.60001,5.5-1.89999,12.5-5.39999,15.80005-7.5.5-.20001.80005-.39999,1.40002-.39999.5,0,.90002,0,1.19995.5.5,1.39999,1,3,1.59998,4.29999l32,91.10001c2.09998,6.10001,4.19995,12.5,6.40002,17.79999,2.09998,4.89999,5.80005,6.89999,11.5,6.89999h1v5.29999c-7.80005-.39999-15.69995-.70001-24-.70001-8.5,0-17.30005.29999-26.09998.70001v-5.29999h1.90002c4,0,10.80005-.70001,10.80005-5,0-2.29999-1.59998-7-3.5-12.5l-6.80005-20.20001h-39.5l-5.30005,18.10001ZM1591.40005,407.90002h-.40002l-16.19995,49.29999h32.5l-15.90002-49.29999Z" fill="#211e1f"/>
      <path d="M1658.80008,510.70007c-7.80005-.39999-15.69995-.70001-24-.70001-8.5,0-17.19995.39999-26.09998.70001h-.80005v-6.79999h2.69995c4,0,10-.89999,10-4.29999,0-2-1.5-6.79999-3.40002-12.29999l-6.59998-19.70001h-38.40002l-5.40002,17.60001c-1.80005,5.89999-3.80005,10.5-3.80005,13.39999.09998,4.20001,6.59998,5.29999,12.30005,5.29999h2.69995v6.79999h-.80005c-7-.39999-14.09998-.70001-21-.70001-6.19995,0-12.5.39999-18.80005.70001h-.80005v-6.79999h1.80005c6.5,0,11.90002-3.70001,14.40002-10.79999l27.90002-79.89999c2.30005-6.5,5.40002-15.10001,6.90002-22.10001,5.5-1.79999,12.40002-5.29999,15.80005-7.5.5-.20001,1-.39999,1.69995-.39999.40002,0,1.40002.10001,1.90002,1,.5,1.39999,1,3,1.59998,4.39999l32.09998,91c2.09998,6.10001,4.09998,12.5,6.40002,17.70001,2,4.60001,5.19995,6.5,10.80005,6.5h1.80005v6.79999l-.8999.09998ZM1609.40005,509.10007c8.59998-.29999,17.09998-.60001,25.40002-.60001,8.09998,0,15.69995.29999,23.19995.60001v-3.60001h-.19995c-6,0-10.09998-2.29999-12.19995-7.39999-2.30005-5.29999-4.40002-11.70001-6.40002-17.79999l-32-91c-.5-1.39999-1-3-1.5-4.20001q-.09998-.20001-.30005-.20001h-.30005c-.40002,0-.59998.10001-1,.20001-3.40002,2.20001-10.30005,5.60001-15.5,7-1.09998,6.60001-4.19995,15.29999-6.5,21.70001l-27.90002,79.89999c-2.69995,7.60001-8.80005,11.89999-15.80005,11.89999h-.30005v3.60001c6-.29999,12-.60001,18-.60001,6.69995,0,13.59998.29999,20.19995.60001v-3.60001h-1.09998c-5.69995-.10001-13.59998-.70001-13.80005-6.89999,0-3.5,2.09998-7.89999,3.80005-13.79999l.80005.20001-.80005-.29999,5.69995-18.60001h40.59998l7,20.70001c2,5.60001,3.5,10.20001,3.5,12.79999-.19995,5.29999-7.59998,5.70001-11.5,5.79999h-1.19995l.10022,3.59998ZM1573.80008,457.90005l16.69995-50.79999h.90002v.79999h-.19995.19995v-.79999h.5l16.5,50.79999h-34.59998ZM1575.90005,456.40005h30.5l-15.09998-46.70001-15.40002,46.70001ZM1590.7001,408.10007l.40002-.10001-.40002.10001ZM1666.50015,397.10007c-13.09998,0-13.59998,3.10001-16.19995,15.79999h-5.19995c.69995-4.89999,1.59998-9.70001,2.09998-14.79999.69995-4.89999,1-9.70001,1-14.79999h4.19995c1.40002,5.20001,5.80005,5,10.40002,5h89.80005c4.69995,0,9-.20001,9.40002-5.39999l4.19995.70001c-.69995,4.70001-1.40002,9.39999-1.90002,14.10001-.40002,4.70001-.40002,9.39999-.40002,14.10001l-5.19995,1.89999c-.30005-6.39999-1.19995-16.70001-12.90002-16.70001h-28.5v92.60001c0,13.39999,6.09998,15,14.40002,15h3.30005v5.29999c-6.80005,0-18.90002-.70001-28.40002-.70001-10.40002,0-22.59998.70001-29.40002.70001v-5.29999h3.30005c9.59998,0,14.5-.89999,14.5-14.60001v-93l-28.50012.09998Z" fill="#211e1f"/>
      <path d="M1735.00003,510.70007c-6.80005,0-19-.70001-28.40002-.70001-10.40002,0-22.59998.70001-29.40002.70001h-.80005v-6.70001h4.09998c9.59998-.20001,13.40002-.39999,13.69995-13.79999v-92.20001h-27.69995v-1.5h29.30005v93.79999c0,14-5.59998,15.29999-15.19995,15.39999h-2.59998v3.70001c6.90002-.10001,18.59998-.70001,28.69995-.70001,9.09998,0,20.69995.60001,27.59998.70001v-3.70001h-2.59998c-8.40002,0-15.09998-2.10001-15.19995-15.70001v-93.39999h29.30005c11.69995,0,13.19995,10,13.5,16.39999l3.80005-1.39999c0-4.5,0-9.10001.30005-13.70001.5-4.5,1.09998-8.89999,1.80005-13.39999l-2.59998-.39999c-.80005,5.10001-5.69995,5.29999-10,5.29999h-90.69995c-4.09998,0-8.5-.20001-10.09998-5.10001h-2.80005c0,4.79999-.40002,9.5-1.09998,14.10001-.5,4.79999-1.30005,9.39999-2,14h3.69995c2.30005-12.10001,3.80005-16.10001,16.80005-15.89999v1.5c-12.90002.20001-12.59998,2.39999-15.5,15.29999l-.09998.60001h-6.69995l.09998-.89999c.69995-4.89999,1.59998-9.79999,2.09998-14.79999.69995-4.89999,1.09998-9.70001,1.09998-14.70001v-.79999h5.5l.09998.5c1.19995,4.39999,4.40002,4.39999,8.80005,4.5h90.70007c4.80005-.10001,8.30005-.20001,8.59998-4.70001v-.79999l.80005.20001,4.90002.79999-.09998.79999c-.69995,4.70001-1.40002,9.39999-1.90002,14-.40002,4.60001-.40002,9.39999-.40002,14v.5l-.5.20001-6.19995,2.20001v-1c-.40002-6.5-1.09998-16-12.09998-16h-27.59998v91.89999c.19995,13.10001,5.40002,14,13.69995,14.20001h4.09998v6.70001h-.80042ZM1772.60001,504.70007h2.40002c6.30005,0,12.90002-.79999,12.90002-9.89999v-91.19998c0-9.10001-6.59998-9.89999-12.90002-9.89999h-2.40002v-5.20001c6.80005,0,17.19995.70001,25.69995.70001,8.69995,0,19.19995-.70001,27.40002-.70001v5.20001h-2.40002c-6.30005,0-12.90002.89999-12.90002,9.89999v91.20001c0,9.10001,6.59998,9.89999,12.90002,9.89999h2.40002v5.29999c-8.40002,0-18.80005-.70001-27.5-.70001-8.5,0-18.80005.70001-25.59998.70001v-5.30002Z" fill="#211e1f"/>
      <path d="M1825.69998,510.70007c-8.40002,0-18.80005-.70001-27.5-.70001-8.5,0-18.80005.70001-25.59998.70001h-.80005v-6.70001h3.19995c6.30005-.10001,12.09998-.60001,12.09998-9.20001v-91.20001c0-8.5-5.80005-9.10001-12.09998-9.20001h-3.19995v-6.70001h.80005c6.80005,0,17.19995.70001,25.69995.70001,8.69995,0,19.09998-.70001,27.40002-.70001h.69995v6.70001h-3.19995c-6.40002.10001-12.09998.70001-12.19995,9.20001v91.20001c.09998,8.5,5.80005,9.10001,12.19995,9.20001h3.19995v6.70001h-.69995ZM1824.89993,509.20007v-3.70001h-1.69995c-6.19995,0-13.59998-1.10001-13.59998-10.70001v-91.20001c0-9.60001,7.40002-10.70001,13.59998-10.70001h1.69995v-3.70001c-8,0-18.09998.70001-26.59998.70001-8.19995,0-18.19995-.60001-25-.70001v3.70001h1.69995c6.19995,0,13.59998,1.10001,13.59998,10.70001v91.20001c0,9.60001-7.40002,10.70001-13.59998,10.70001h-1.69995v3.70001c6.69995-.10001,16.59998-.70001,24.80005-.70001,8.5,0,18.59998.60001,26.80005.70001h-.00012ZM1895.09988,385.80008c37.09998,0,66.69995,23,66.69995,60.10001,0,40-28.69995,66.70001-65.80005,66.70001-36.90002,0-65.09998-25.10001-65.09998-62.5,0-36.20001,28-64.29999,64.19995-64.29999l.00012-.00003ZM1897.69986,504.90008c33.80005,0,39.69995-29.79999,39.69995-55.20001s-13.69995-56.20001-42.59998-56.20001c-30.5,0-39.5,27.20001-39.5,50.5,0,31.10001,14.19995,60.89999,42.40002,60.89999v.00003Z" fill="#211e1f"/>
      <path d="M1830.10001,450.10007c.09998-36.60001,28.40002-64.89999,65-65v1.5c-35.80005,0-63.5,27.70001-63.5,63.5.09998,37,27.90002,61.70001,64.40002,61.70001,36.69995,0,65-26.29999,65.09998-65.89999,0-36.60001-29.19995-59.29999-66-59.29999v-1.5c37.40002,0,67.40002,23.29999,67.40002,60.79999,0,40.5-29.09998,67.40002-66.5,67.40002-37.19995-.09998-65.80005-25.39999-65.90002-63.20001v-.00003ZM1854.50003,443.90005c0-23.39999,9.19995-51.20001,40.30005-51.20001,29.5.10001,43.30005,31.5,43.40002,57,0,25.39999-6,55.89999-40.40002,55.89999v-1.5c33.09998,0,38.80005-29,38.90002-54.39999,0-25.20001-13.59998-55.39999-41.90002-55.5-29.90002,0-38.69995,26.5-38.80005,49.70001,0,31,14.19995,60.10001,41.69995,60.20001v1.5c-28.90002,0-43.09998-30.29999-43.19995-61.70001ZM2079.10013,475.60007l.3999-.29999v-65.30002c0-14.29999-9.8999-16.39999-15.19995-16.39999h-3.80005v-5.20001c8.19995,0,16.19995.70001,24.30005.70001,7.19995,0,14.30005-.70001,21.3999-.70001v5.20001h-2.6001c-7.30005,0-15.5,1.39999-15.5,22.10001v79.29999c0,6.10001.19995,12.20001,1.1001,17.59998h-6.6001l-89.69995-99.89999v71.69998c0,15.10001,2.90002,20.39999,16.30005,20.39999h3v5.29999c-7.5,0-15-.70001-22.5-.70001-7.80005,0-15.90002.70001-23.69995.70001v-5.29999h2.40002c12,0,15.59998-8.20001,15.59998-22.10001v-73.29999c0-9.70001-8-15.60001-15.80005-15.60001h-2.30005v-5.20001c6.59998,0,13.40002.70001,20,.70001,5.19995,0,10.30005-.70001,15.5-.70001l77.7002,87.00006Z" fill="#211e1f"/>
      <path d="M2089.19998,513.30005l-7.19995-.29999-88.30005-98.5v69.79999c.19995,15.10001,2.5,19.39999,15.59998,19.60001h3.80005v6.79999h-.80005c-7.5,0-15-.70001-22.5-.70001-7.80005,0-15.80005.70001-23.69995.70001h-.69995v-6.79999h3.19995c11.5,0,14.80005-7.39999,14.90002-21.29999v-73.30002c0-9.29999-7.59998-14.89999-15.09998-14.89999h-3v-6.70001h.69995c6.69995,0,13.5.70001,20,.70001,5.19995,0,10.19995-.70001,16.09998-.39999l76.5,86.10001v-64c0-13.89999-9.30005-15.5-14.3999-15.60001h-4.6001v-6.70001h.80005c8.19995,0,16.19995.70001,24.30005.70001,7.1001,0,14.19995-.70001,21.5-.70001h.69995v6.70001h-3.3999c-7.19995.20001-14.6001.89999-14.69995,21.39999v79.10001c0,6.10001.1001,12.20001,1,17.5l.1001.79999h-.80029ZM2082.59988,511.80005h5.69995c-.80005-5.20001-.8999-11-.8999-16.79999v-79.20001c0-20.89999,8.80005-22.79999,16.19995-22.89999h1.8999v-3.70001c-6.8999,0-13.69995.70001-20.69995.70001-7.8999,0-15.69995-.60001-23.6001-.70001v3.70001h3.1001c5.3999.10001,15.8999,2.39999,15.8999,17.20001l-.19995,65.80002-.30005.39999-.6001.60001-77.5-87.5c-5.09998,0-10.19995.70001-15.5.70001-6.40002,0-12.90002-.60001-19.30005-.70001v3.70001h1.5c8.19995.10001,16.59998,6.20001,16.59998,16.39999v73.30002c0,13.89999-3.90002,22.79999-16.40002,22.89999h-1.69995v3.70001c7.59998,0,15.30005-.70001,23-.70001,7.30005,0,14.5.60001,21.69995.70001v-3.70001h-2.19995c-13.69995,0-17.09998-6-17.09998-21.10001v-73.70001l90.40027,100.89996ZM2079.09988,475.60004l.6001-.5-.6001.5ZM2078.69998,475.30005l-.1001-.20001.1001.20001ZM2134.19998,485.10004c-1.69995,5.89999-3.80005,10.5-3.80005,13.60001,0,5.20001,7.30005,6.10001,13,6.10001h1.8999v5.29999c-7-.39999-14.1001-.70001-21.1001-.70001-6.30005,0-12.5.29999-18.80005.70001v-5.29999h1c6.80005,0,12.6001-4,15.19995-11.29999l27.8999-79.89999c2.19995-6.39999,5.3999-15.10001,6.3999-21.60001,5.6001-1.89999,12.5-5.39999,15.8999-7.5.5-.20001.80005-.39999,1.3999-.39999.5,0,.80005,0,1.19995.5.5,1.39999,1.1001,3,1.6001,4.29999l32,91.10001c2.1001,6.10001,4.19995,12.5,6.5,17.79999,2.1001,4.89999,5.80005,6.89999,11.5,6.89999h1.1001v5.29999c-7.80005-.39999-15.69995-.70001-24-.70001-8.5,0-17.19995.29999-26.1001.70001v-5.29999h1.8999c4,0,10.80005-.70001,10.80005-5,0-2.29999-1.6001-7-3.5-12.5l-6.80005-20.20001h-39.5l-5.69922,18.10001ZM2159.69998,407.90002h-.30005l-16.19995,49.29999h32.6001l-16.1001-49.29999Z" fill="#211e1f"/>
      <path d="M2227.00003,510.70007c-7.80005-.29999-15.69995-.70001-24-.70001-8.5,0-17.19995.39999-26.1001.70001h-.80005v-6.70001h2.6001c4.1001,0,10.1001-.89999,10.1001-4.29999,0-2-1.5-6.70001-3.5-12.29999l-6.6001-19.70001h-38.3999l-5.3999,17.60001c-1.69995,6-3.80005,10.5-3.80005,13.39999,0,4.29999,6.5,5.29999,12.30005,5.29999h2.69995v6.79999h-.80005c-7-.29999-14.1001-.70001-21-.70001-6.19995,0-12.5.39999-18.80005.70001h-.80005v-6.79999h1.80005c6.5,0,11.8999-3.79999,14.5-10.79999l27.8999-79.89999c2.19995-6.5,5.3999-15.10001,6.8999-22.10001,5.5-1.89999,12.5-5.39999,15.80005-7.5.5-.20001.8999-.39999,1.6001-.39999.5,0,1.3999.10001,1.8999,1,.5,1.39999,1,2.89999,1.6001,4.39999l32,91c2.1001,6.10001,4.19995,12.5,6.3999,17.70001,2,4.60001,5.19995,6.39999,10.80005,6.5h1.80005v6.79999h-.69995ZM2177.60013,509.20007c8.6001-.29999,17.1001-.70001,25.3999-.70001,8.1001,0,15.69995.29999,23.30005.60001v-3.60001h-.30005c-5.8999,0-10-2.29999-12.19995-7.39999-2.30005-5.29999-4.3999-11.70001-6.3999-17.79999l-32-91.10001c-.5-1.39999-1-3-1.5-4.20001q-.1001-.20001-.30005-.20001h-.30005c-.3999,0-.6001.10001-1,.20001-3.3999,2.10001-10.3999,5.60001-15.5,7-1.1001,6.60001-4.19995,15.29999-6.5,21.70001l-27.8999,79.89999c-2.6001,7.60001-8.69995,11.89999-15.80005,11.89999h-.30005v3.60001c6-.29999,12-.60001,18-.60001,6.69995,0,13.6001.29999,20.30005.60001v-3.60001h-1.19995c-5.69995-.10001-13.6001-.70001-13.80005-6.89999,0-3.5,2.19995-7.89999,3.8999-13.79999l.69995.20001-.69995-.29999,5.69995-18.60001h40.6001l7,20.70001c1.8999,5.60001,3.5,10.20001,3.5,12.79999-.30005,5.29999-7.6001,5.70001-11.5,5.79999h-1.1001l-.09985,3.79999ZM2142.10013,457.90008l16.69995-50.79999h.8999v.79999h-.19995.19995v-.79999h.5l16.5,50.79999h-34.59985ZM2144.10013,456.40008h30.3999l-15.1001-46.60001-15.2998,46.60001ZM2158.90018,408.1001l.30005-.10001-.30005.10001ZM2270.90018,492.90008c0,7,4.80005,9,10.3999,9.79999,7.1001.5,15,.5,23-.39999,7.30005-.89999,13.6001-5.10001,16.69995-9.39999,2.80005-3.79999,4.30005-8.70001,5.3999-12.5h5c-1.8999,9.89999-4.30005,19.70001-6.3999,29.60001-15.30005,0-30.6001-.70001-45.8999-.70001s-30.6001.70001-45.8999.70001v-5.29999h2.3999c6.30005,0,13.1001-.79999,13.1001-11.60001v-89.5c0-9.10001-6.80005-9.89999-13.1001-9.89999h-2.3999v-5.20001c9.19995,0,18.30005.70001,27.5.70001,8.8999,0,17.6001-.70001,26.5-.70001v5.20001h-4.3999c-6.6001,0-11.80005.20001-11.80005,9.39999v89.79999h-.1001Z" fill="#211e1f"/>
      <path d="M2325.00003,510.70007c-15.30005,0-30.69995-.70001-45.8999-.70001-15.30005,0-30.6001.70001-46,.70001h-.69995v-6.70001h3.19995c6.30005-.10001,12.30005-.60001,12.30005-10.89999v-89.5c-.1001-8.5-6-9-12.30005-9.20001h-3.19995v-6.70001h.69995c9.30005,0,18.30005.70001,27.5.70001,8.80005,0,17.5-.70001,26.5-.70001h.69995v6.70001h-5.1001c-6.69995.20001-10.8999-.10001-11.1001,8.70001v89.80002c0,6.5,4.30005,8.20001,9.69995,9,3.1001.20001,6.30005.39999,9.69995.39999,4.30005,0,8.69995-.20001,13.19995-.70001,7.1001-.79999,13.19995-4.89999,16.19995-9.10001,2.69995-3.70001,4.19995-8.5,5.30005-12.29999l.19995-.60001h6.6001l-.19995.89999c-2,10-4.3999,19.70001-6.5,29.60001l-.1001.60001h-.69971ZM2324.30008,509.20007c2-9.39999,4.30005-18.70001,6.19995-28.10001h-3.6001c-1.1001,3.79999-2.6001,8.5-5.3999,12.29999-3.19995,4.5-9.69995,8.79999-17.19995,9.70001-4.6001.5-9.1001.70001-13.30005.70001-3.3999,0-6.6001-.20001-9.80005-.39999-5.69995-.60001-11.19995-3-11.1001-10.5v-89.79999c0-9.70001,6.1001-10.20001,12.6001-10.20001h3.6001v-3.70001c-8.6001,0-17,.70001-25.69995.70001-9,0-17.80005-.60001-26.80005-.70001v3.70001h1.69995c6.19995,0,13.80005,1.10001,13.80005,10.70001v89.5c0,11.29999-7.6001,12.39999-13.80005,12.39999h-1.69995v3.70001c15.1001,0,30.1001-.70001,45.19995-.70001,15.19995,0,30.30005.70001,45.30005.70001v-.00003ZM2329.30008,383.50006c10.5,0,18.30005,8.10001,18.30005,18.39999s-7.80005,18.29999-18.30005,18.29999-18.30005-8-18.30005-18.29999,7.80005-18.39999,18.30005-18.39999ZM2329.30008,416.70007c8.19995,0,14.5-7,14.5-14.89999s-6.19995-15-14.5-15c-8.19995,0-14.5,7.10001-14.5,15s6.30005,14.89999,14.5,14.89999ZM2320.19998,411.50006v-.89999c2.30005-.29999,2.69995-.20001,2.69995-1.60001v-13.60001c0-1.89999-.19995-2.60001-2.6001-2.5v-.89999h9.3999c3.19995,0,6.19995,1.5,6.19995,4.89999,0,2.70001-1.80005,4.70001-4.30005,5.5l3,4.20001c1.3999,1.89999,3,3.70001,4,4.29999v.60001h-3.6001c-1.69995,0-3.19995-3.60001-6.6001-8.39999h-2v6.10001c0,1.20001.3999,1.10001,2.69995,1.39999v.89999h-8.89941ZM2326.39993,401.90005h2.19995c2.3999,0,3.5-1.79999,3.5-4.70001s-1.69995-3.89999-3.6001-3.89999h-2v8.60001h-.09985Z" fill="#211e1f"/>
    </g>
  </g>
</svg>