<?xml version="1.0" encoding="UTF-8"?>
<svg id="_アイコン_ベースのコピー" data-name="アイコン_ベースのコピー" xmlns="http://www.w3.org/2000/svg" width="250" height="250" viewBox="0 0 250 250">
  <path d="M215.21468,206.12007l-37.26074-53.21387c-.6084-.86914-1.53711-1.46094-2.58203-1.64551-1.04297-.18164-2.11914.05371-2.98828.66309l-18.8252,13.18164c-8.5752,6.00488-20.43359,3.91211-26.4375-4.66113l-31.49609-44.98145c-2.9082-4.15332-4.02441-9.19043-3.14453-14.18359.88086-4.99316,3.65234-9.34473,7.80566-12.25293l18.8252-13.18262c1.80957-1.2666,2.25-3.76074.98242-5.57031l-37.26074-53.21387c-.6084-.86914-1.53711-1.46094-2.58203-1.64551-1.04199-.18164-2.11914.05371-2.98926.66309l-12.08789,8.46582c-3.24463,2.27173-6.23804,4.76904-8.99365,7.44373-.0647.06287-.12976.12402-.18945.19031-25.05591,24.50269-29.47632,64.33105-8.73096,93.95874l53.29102,76.10645c11.17578,15.96094,27.89746,26.61426,47.08594,29.99805,4.2793.75391,8.56445,1.12695,12.82129,1.12695,14.83008,0,29.28516-4.52832,41.68555-13.21191l12.08887-8.46484c1.80957-1.2666,2.25-3.76074.98242-5.57031ZM69.76254,31.09566l8.81152-6.1709,32.67188,46.66016-14.54272,10.18469-32.45288-46.34729c1.74182-1.52185,3.57532-2.97046,5.51221-4.32666ZM149.02621,224.36128c-17.08398-3.01172-31.97266-12.49707-41.92285-26.70703l-53.29102-76.10645c-17.57495-25.1062-14.85437-58.43665,4.67944-80.40308l32.14966,45.91382c-3.09949,3.62012-5.19043,8.0144-6.04004,12.83105-1.25098,7.09766.33691,14.25781,4.4707,20.16113l31.49609,44.98145c4.13379,5.9043,10.31934,9.84473,17.41699,11.09668,4.81421.84631,9.65967.38586,14.12256-1.28772l32.16235,45.93225c-11.08386,4.42419-23.20068,5.71289-35.2439,3.58789ZM197.5555,213.6025c-1.92883,1.35059-3.91772,2.57776-5.9502,3.70068l-32.45386-46.34888,14.5437-10.18286,32.67188,46.66016-8.81152,6.1709Z" fill="#262626"/>
</svg>