<svg width="15" height="15" viewBox="0 0 15 15" fill="none" xmlns="http://www.w3.org/2000/svg">
<path d="M15 0V5H14V1.733L8.871 6.817C9.201 7.297 9.47167 7.80367 9.683 8.337C9.89433 8.87033 10 9.42467 10 10C10 11.394 9.51533 12.576 8.546 13.546C7.57667 14.516 6.39533 15.0007 5.002 15C3.60867 14.9993 2.42667 14.5147 1.456 13.546C0.485333 12.5773 0 11.396 0 10.002C0 8.608 0.485 7.426 1.455 6.456C2.425 5.486 3.60667 5.00067 5 5C5.576 5 6.12733 5.105 6.654 5.315C7.18067 5.52433 7.682 5.79567 8.158 6.129L13.287 1H10V0H15ZM4.997 6C3.89167 6 2.949 6.39067 2.169 7.172C1.38967 7.954 1 8.89767 1 10.003C1 11.109 1.39067 12.0517 2.172 12.831C2.954 13.6103 3.89767 14 5.003 14C6.109 14 7.05167 13.6093 7.831 12.828C8.61033 12.046 9 11.1023 9 9.997C9 8.89167 8.60933 7.949 7.828 7.169C7.04667 6.389 6.103 5.99933 4.997 6Z" fill="#7398D5"/>
</svg>
