<?xml version="1.0" encoding="UTF-8"?>
<svg id="_レイヤー_2" data-name="レイヤー 2" xmlns="http://www.w3.org/2000/svg" width="1040.00787" height="914.24759" viewBox="0 0 1040.00787 914.24759">
  <g id="_レイヤー_1-2" data-name="レイヤー 1">
    <g>
      <path d="M104.44716,0v914.24753h930.38039V0H104.44716Z" fill="#0077a6" fill-rule="evenodd"/>
      <path d="M345.10751,453.61553v-11.82673l-5.66591,11.82673h-49.01826l-6.1562-12.68704v12.68701h-91.63983l-10.83692-25.6192h-18.34831l-11.45672,25.6192h-47.53819v-77.34781l34.85579-78.82792h66.6728l9.35685,22.33528v-22.16876h81.57532l17.94129,37.60317,17.52965-37.76969h257.49621s13.50568-.1619,22.37689,6.07758l-.04164-6.07758h64.86893v8.54281s11.66021-8.54281,28.90308-8.54281h114.46072l10.05991,22.66367v-22.66367h73.36551l13.30222,22.66367v-22.66367h70.1232v156.33763h-72.05182l-16.91448-27.26114v27.09465h-89.53994l-12.6038-27.91795h-17.53428l-11.82211,27.91795h-54.19389s-20.19843-.24977-35.35071-11.08205v11.08205h-107.88831v-36.45614c0-5.29588-4.06557-4.92589-4.06557-4.92589h-3.94069v41.38199h-216.28077v.00466ZM291.28826,487.48155h141.7589l20.44816,23.15392,20.93383-23.15392h108.99835s10.22181.24514,19.95325,5.41614v-5.41614h97.05137c12.31698,0,22.66364,6.16082,22.66364,6.16082v-6.16082h124.76581v5.66591s8.86661-5.66591,20.81357-5.66591h81.28853v5.66591s10.22181-5.66591,21.06334-5.66591h63.80055v147.30456s-8.37633,9.48175-25.73946,9.48175h-84.12384v-4.68071s-8.0063,4.68071-20.19843,4.68071h-223.50068v-38.05644c0-3.75568-1.64194-4.4356-4.96753-4.4356h-3.08041v42.49204h-69.83646v-42.24693s-7.75653,4.18583-20.69331,4.18583h-25.12429v38.0611h-86.08954l-19.58326-23.89398-20.93383,23.89398h-139.66827v-156.78631Z" fill="#fff" fill-rule="evenodd"/>
      <path d="M38.79654,836.85808C17.32156,836.85808.00005,854.18423.00005,875.45104c-.03323,21.39349,17.28266,38.76325,38.67614,38.79649.04012.00007.08023.00007.12035,0,21.3871,0,38.60686-17.32615,38.60686-38.79649.0051-21.30922-17.2653-38.58787-38.5745-38.59295h-.03236ZM38.80116,909.59456c-18.77774.01807-34.01474-15.18969-34.03278-33.96743-.00006-.05872.00004-.11737.00029-.17609,0-18.74606,15.18928-33.93998,34.0325-33.93998,18.74348.00254,33.93743,15.19653,33.93999,33.93998,0,18.94494-15.19853,34.14352-33.93999,34.14352Z" fill="#0077a6" fill-rule="evenodd"/>
      <path d="M58.67583,865.31726c0-3.64941-1.62347-7.49292-4.86578-9.31995-3.24225-1.92407-6.88696-2.12292-10.53625-2.12292h-18.84326v43.25977h5.26819v-19.9624h9.73151l12.35858,19.9624h6.27185l-13.06165-19.9624c7.69177-.19897,13.67682-3.34424,13.67682-11.85449ZM37.80675,872.97192h-8.10803v-15.30029h12.35864c5.36523,0,11.25317.80481,11.25317,7.4928-.00464,8.81116-9.43085,7.8075-15.50378,7.8075Z" fill="#0077a6" fill-rule="evenodd"/>
      <polygon points="742.95655 510.98235 831.90909 510.98235 831.90909 534.84855 770.18071 534.84855 770.18071 555.63439 830.17929 555.63439 830.17929 576.65146 770.18071 576.65146 770.18071 598.56583 831.90909 598.56583 831.90909 621.81228 742.95655 621.81228 742.95655 510.98235" fill="#0077a6" fill-rule="evenodd"/>
      <path d="M1003.7691,554.17284c33.44511,1.71135,36.23877,18.40384,36.23877,36.22486,0,20.77193-17.07172,31.90952-34.8835,31.90952h-57.14945v-23.74598h44.53181c7.54841,0,18.79694,0,18.79694-10.64731,0-5.06926-1.97499-8.28842-10.01827-9.13946-3.57529-.50416-16.81271-1.2488-18.79694-1.28582-30.21204-.79553-37.24242-15.81368-37.24242-34.1065,0-20.78583,14.59262-32.15929,32.42289-32.15929h57.14945v23.75985h-41.82143c-9.52339.10639-19.78211-1.12392-19.78211,9.63437,0,6.80835,5.06923,8.16354,11.49372,8.7972,2.234.00462,17.07172.77241,19.06061.75855h-.00007Z" fill="#0077a6" fill-rule="evenodd"/>
      <path d="M901.3293,554.17284c33.44511,1.71135,36.24335,18.40384,36.24335,36.22486,0,20.77193-17.07172,31.90952-34.88358,31.90952h-57.14938v-23.74598h44.53181c7.54841,0,18.81085,0,18.81085-10.64731,0-5.06926-1.98882-8.28842-10.02751-9.13946-3.58919-.50416-16.82662-1.2488-18.79694-1.28582-30.21204-.79553-37.22852-15.81368-37.22852-34.1065,0-20.78583,14.59262-32.15929,32.4044-32.15929h57.14945v23.75985h-41.80753c-9.53722.10639-19.80067-1.12392-19.80067,9.63437,0,6.80835,5.06923,8.16354,11.50762,8.7972,2.22009.00462,17.05789.77241,19.04671.75855h-.00007Z" fill="#0077a6" fill-rule="evenodd"/>
      <path d="M578.67748,511.22742h-95.50201l-31.17407,34.39331-30.17047-34.63379h-107.25458v110.83459h103.79034l32.64954-36.6134,31.91412,36.85852h52.20508v-37.61243h36.6134c14.11157,0,39.84644-.48096,39.84644-39.33765-.0047-27.70984-19.56018-33.88916-32.91779-33.88916ZM404.13481,598.5658h-62.72748v-21.90967h60.00323v-21.01709h-60.00323v-20.78589l66.1825.13416,26.48877,30.17041-29.94379,33.40808ZM508.17027,611.41467l-39.09247-46.25696,39.09247-43.29675v89.55371ZM569.5194,561.61487h-33.89832v-26.60901h34.00934c11.38733,0,14.9765,7.30322,14.9765,12.74255,0,7.4281-3.96387,13.86646-15.08752,13.86646Z" fill="#0077a6" fill-rule="evenodd"/>
      <path d="M727.93846,599.30115c-.0047-17.82568-4.93518-26.2251-17.81647-27.70044,14.85162-7.42358,18.81085-17.31689,18.81085-30.69312,0-23.73206-19.29187-29.68018-32.66339-29.68018h-70.7569v110.83472h27.22412v-39.09253h35.62354c9.40314,0,13.11261,9.39844,13.34845,18.79688l.74005,20.29089h26.48877l-.99902-22.75623ZM686.62578,560.11633h-33.88452v-25.11511h34.0094c11.38733,0,14.96265,7.30322,14.96265,12.74255-.0047,7.4281-3.95001,12.37256-15.08752,12.37256Z" fill="#0077a6" fill-rule="evenodd"/>
      <rect x="631.54384" y="319.65016" width="27.21491" height="110.95944" fill="#0077a6"/>
      <polygon points="408.78314 319.77505 497.7172 319.77505 497.7172 343.64125 436.0073 343.64125 436.0073 364.43171 495.99201 364.43171 495.99201 385.45803 436.0073 385.45803 436.0073 407.35853 497.71723 407.35853 497.71723 430.6096 408.78314 430.6096 408.78314 319.77505" fill="#0077a6" fill-rule="evenodd"/>
      <path d="M616.3084,407.83508c0-17.81201-4.95825-26.21143-17.82568-27.70532h-.00006c14.85162-7.41431,18.81085-17.30298,18.81085-30.6792,0-23.74609-19.30573-29.67554-32.66339-29.67554h-70.7569v110.83447h27.21027v-39.09229h35.62823c9.41235,0,13.11255,9.39844,13.35767,18.79688l.75391,20.29102h26.47028l-.98517-22.77002ZM574.98186,368.6637h-33.89838v-25.11499h34.02325c11.36884,0,14.96265,7.30347,14.96265,12.74243,0,7.42358-3.94531,12.37256-15.08752,12.37256Z" fill="#0077a6" fill-rule="evenodd"/>
      <path d="M346.0233,319.77502l-33.39423,74.34131-33.2832-74.34131h-42.66779v106.75049l-47.5058-106.75049h-36.00751l-48.48639,110.83447h28.70886l10.62885-24.74487h54.31415l10.76752,24.74487h54.79059v-82.26904l36.36823,82.26904h24.745l37.22852-80.89526v80.89526h27.21497v-110.83447h-43.42175ZM154.27947,381.94299l16.23456-38.73657,16.90985,38.73657h-33.14441Z" fill="#0077a6" fill-rule="evenodd"/>
      <path d="M939.57543,319.7196v76.74194l-45.88696-76.74194h-40.21185v104.0769l-46.3819-104.02148h-36.00745l-37.47369,85.83984s-15.83679,0-17.44177-.37012c-6.56323-1.35522-16.79889-5.98486-16.92371-25.52661v-8.04321c0-25.97998,14.09772-27.87183,32.1731-27.87183h16.81274v-24.08813h-35.53113c-12.37256,0-39.2821,9.45386-40.19794,54.97095-.61511,30.6792,12.74255,55.96997,42.91296,55.96997h35.88727l10.62878-24.74512h54.30029l10.77216,24.74512h53.68054v-81.1499l48.9859,81.15454h37.099v-110.94092h-27.19635ZM772.42394,381.99841l16.20685-38.73657,17.07172,38.73657h-33.27856Z" fill="#0077a6" fill-rule="evenodd"/>
    </g>
  </g>
</svg>