<?xml version="1.0" encoding="UTF-8"?>
<svg id="_アイコン_メディカルのコピー_2" data-name="★★アイコン_メディカルのコピー 2" xmlns="http://www.w3.org/2000/svg" width="500" height="500" viewBox="0 0 500 500">
  <g>
    <path d="M213.13623,172.0613c0-23.61299-19.14206-42.75512-42.75512-42.75512-15.14281,0-28.4368,7.87934-36.03284,19.75454-7.59635-11.8752-20.89034-19.75454-36.03299-19.75454-23.61306,0-42.75512,19.14214-42.75512,42.75512,0,12.05103,4.99341,22.92984,13.0147,30.70163l-.01386.00162,65.78727,64.81506,65.78712-64.81506-.01386-.00162c8.02145-7.77179,13.0147-18.6506,13.0147-30.70163Z" fill="#e8d7c1"/>
    <path d="M134.34847,270.57959c-.76074,0-1.52148-.2876-2.10547-.86279l-65.78711-64.81494c-.05762-.05664-.1123-.11523-.16406-.17529-8.85645-8.68066-13.73145-20.27051-13.73145-32.66504,0-25.22949,20.52539-45.75537,45.75488-45.75537,14.21191,0,27.38672,6.49365,36.0332,17.56689,8.64551-11.07373,21.81934-17.56689,36.03223-17.56689,25.22949,0,45.75586,20.52588,45.75586,45.75537,0,12.39551-4.87402,23.98486-13.73145,32.66553-.05273.06006-.10645.11816-.16406.1748l-65.78711,64.81494c-.58398.5752-1.34473.86279-2.10547.86279ZM70.85629,200.81396l63.49219,62.5542,63.49316-62.55518c.06055-.0708.125-.13916.19238-.20508,7.80469-7.56104,12.10254-17.69873,12.10254-28.54639,0-21.92139-17.83398-39.75537-39.75586-39.75537-13.62207,0-26.14746,6.86768-33.50488,18.37109-.55176.86182-1.50391,1.3833-2.52734,1.3833s-1.97559-.52148-2.52734-1.3833c-7.3584-11.50342-19.88477-18.37109-33.50586-18.37109-21.9209,0-39.75488,17.83398-39.75488,39.75537,0,10.84766,4.29785,20.98535,12.10254,28.54639.06738.06592.13184.13477.19336.20605Z" fill="#262626"/>
  </g>
  <path d="M138.10922,233.6665h-.01855c-1.23633-.00781-2.3418-.77295-2.7832-1.92773l-21.6582-56.5957-11.56641,28.7417c-.45703,1.13574-1.55859,1.87988-2.7832,1.87988h-30.73828c-1.65723,0-3-1.34326-3-3s1.34277-3,3-3h28.71191l13.66309-33.95215c.45703-1.13623,1.55957-1.87988,2.7832-1.87988h.02539c1.23438.01074,2.33594.77539,2.77637,1.92773l21.63965,56.54688,16.3877-41.271c.42676-1.07617,1.43555-1.81055,2.59082-1.88672,1.15039-.07666,2.25.51904,2.81641,1.52979l10.70605,19.15625,29.44238-.17285h.01758c1.64941,0,2.99023,1.33154,3,2.98242.00977,1.65674-1.3252,3.00781-2.98242,3.01758l-31.21387.18311c-1.08203.021-2.10156-.58203-2.63672-1.53613l-8.49219-15.19531-16.89941,42.55908c-.4541,1.14355-1.55957,1.89307-2.78809,1.89307Z" fill="#262626"/>
  <path d="M379.03109,260.479c-.00195,0,0,0-.00098,0-19.28711,0-37.29785-5.76758-50.71387-16.23975-15.28711-11.93164-23.36719-28.93701-23.36719-49.17725v-120.56445c0-1.65674,1.34277-3,3-3h30.39746c1.65723,0,3,1.34326,3,3v12c0,1.65674-1.34277,3-3,3s-3-1.34326-3-3v-9h-24.39746v117.56445c0,28.6167,21.30469,59.4165,68.08105,59.41699,32.79004,0,68.08301-18.59326,68.08301-59.41699l-.00098-117.56445h-24.39746v9c0,1.65674-1.34277,3-3,3s-3-1.34326-3-3v-12c0-1.65674,1.34277-3,3-3h30.39746c1.65723,0,3,1.34326,3,3l.00098,120.56445c0,20.24023-8.08105,37.24561-23.36816,49.17773-13.41602,10.47168-31.42871,16.23926-50.71387,16.23926Z" fill="#262626"/>
  <path d="M379.03109,428.50244h-204.68945c-23.70996,0-43-19.28955-43-43v-76.56641c0-1.65674,1.34277-3,3-3s3,1.34326,3,3v76.56641c0,20.40186,16.59863,37,37,37h201.68945v-165.02344c0-1.65674,1.34277-3,3-3s3,1.34326,3,3v168.02344c0,1.65674-1.34277,3-3,3Z" fill="#262626"/>
</svg>