<?xml version="1.0" encoding="UTF-8"?>
<svg id="_アイコン_step-ホームステイ" data-name="★アイコン_step-ホームステイ" xmlns="http://www.w3.org/2000/svg" width="500" height="500" viewBox="0 0 500 500">
  <path d="M366.74008,91.97021h-233.48047c-2.20898,0-4,1.79102-4,4v268.14355c0,.26776.02759.53253.07983.79114.03394.16986.09399.3288.14893.49017.02905.0849.04517.17389.07983.25659.07446.17896.17285.34418.27173.50885.03467.05811.05884.12146.09644.17786.14551.21704.31079.41974.49512.60388v.00012l39.91602,39.91602c.00244.0025.00562.00415.00806.00665.18188.18085.3811.34418.59473.48761.0647.04327.13721.07135.2041.11072.15698.09265.31299.18689.48291.25775.08813.03674.18286.05457.27344.0849.15625.05243.30957.11102.47388.14398.25854.05225.52344.07977.79102.07977h193.56445c2.20898,0,4-1.79102,4-4V95.97021c0-2.20898-1.79102-4-4-4ZM169.17562,394.37262l-26.25928-26.25885h26.25928v26.25885ZM362.74008,400.02979h-185.56445v-35.91602c0-2.20898-1.79102-4-4-4h-35.91602V99.97021h225.48047v300.05957Z" fill="#a57e66"/>
  <path d="M197.36508,135.45703h105.27051c2.20898,0,4-1.79102,4-4s-1.79102-4-4-4h-105.27051c-2.20898,0-4,1.79102-4,4s1.79102,4,4,4Z" fill="#a57e66"/>
  <path d="M206.16683,179.93115c0,2.20898,1.79102,4,4,4h124.0498c2.20898,0,4-1.79102,4-4s-1.79102-4-4-4h-124.0498c-2.20898,0-4,1.79102-4,4Z" fill="#a57e66"/>
  <path d="M169.37875,189.7915c.625.92676,1.6084,1.54932,2.71289,1.71777.20117.03076.40332.0459.60352.0459.90234,0,1.78516-.30566,2.49902-.87646l19.87207-15.89746c1.72461-1.37988,2.00488-3.89746.62402-5.62207-1.37988-1.72461-3.89648-2.00537-5.62207-.625l-16.4834,13.18652-4.77637-7.08301c-1.23535-1.83203-3.72266-2.31445-5.55273-1.08008-1.83203,1.23535-2.31543,3.72119-1.08008,5.55273l7.20312,10.68115Z" fill="#a57e66"/>
  <path d="M334.21664,221.97656h-124.0498c-2.20898,0-4,1.79102-4,4s1.79102,4,4,4h124.0498c2.20898,0,4-1.79102,4-4s-1.79102-4-4-4Z" fill="#a57e66"/>
  <path d="M169.37875,235.83691c.625.92676,1.6084,1.54932,2.71289,1.71777.20117.03076.40332.0459.60352.0459.90234,0,1.78516-.30566,2.49902-.87646l19.87207-15.89746c1.72461-1.37988,2.00488-3.89746.62402-5.62207-1.37988-1.72461-3.89648-2.00586-5.62207-.625l-16.4834,13.18652-4.77637-7.08301c-1.23535-1.83252-3.72266-2.31494-5.55273-1.08008-1.83203,1.23535-2.31543,3.72119-1.08008,5.55273l7.20312,10.68115Z" fill="#a57e66"/>
  <path d="M334.21664,268.02246h-124.0498c-2.20898,0-4,1.79102-4,4s1.79102,4,4,4h124.0498c2.20898,0,4-1.79102,4-4s-1.79102-4-4-4Z" fill="#a57e66"/>
  <path d="M169.37875,281.88232c.625.92676,1.6084,1.54932,2.71289,1.71777.20117.03076.40332.0459.60352.0459.90234,0,1.78516-.30566,2.49902-.87646l19.87207-15.89697c1.72461-1.37988,2.00488-3.89697.62402-5.62207-1.37988-1.7251-3.89648-2.00537-5.62207-.625l-16.4834,13.18604-4.77637-7.08252c-1.23535-1.83203-3.72266-2.31543-5.55273-1.08008-1.83203,1.23535-2.31543,3.72119-1.08008,5.55273l7.20312,10.68066Z" fill="#a57e66"/>
  <path d="M334.21664,314.06787h-124.0498c-2.20898,0-4,1.79102-4,4s1.79102,4,4,4h124.0498c2.20898,0,4-1.79102,4-4s-1.79102-4-4-4Z" fill="#a57e66"/>
  <path d="M334.21664,360.11377h-84.2168c-2.20898,0-4,1.79102-4,4s1.79102,4,4,4h84.2168c2.20898,0,4-1.79102,4-4s-1.79102-4-4-4Z" fill="#a57e66"/>
  <path d="M169.37875,327.92822c.625.92676,1.6084,1.54932,2.71289,1.71777.20117.03076.40332.0459.60352.0459.90234,0,1.78516-.30566,2.49902-.87646l19.87207-15.89746c1.72461-1.37988,2.00488-3.89746.62402-5.62207-1.37988-1.72461-3.89648-2.00537-5.62207-.625l-16.4834,13.18652-4.77637-7.08301c-1.23535-1.83203-3.72266-2.31396-5.55273-1.08008-1.83203,1.23535-2.31543,3.72119-1.08008,5.55273l7.20312,10.68115Z" fill="#a57e66"/>
</svg>