<?xml version="1.0" encoding="UTF-8"?>
<svg id="_アイコン_ベースのコピー" data-name="アイコン_ベースのコピー" xmlns="http://www.w3.org/2000/svg" width="250" height="250" viewBox="0 0 250 250">
  <path d="M124.99965,15.99996c-60.10254,0-109,48.89746-109,109s48.89746,109,109,109,109-48.89746,109-109S185.10219,15.99996,124.99965,15.99996ZM124.99965,225.99996c-55.69141,0-101-45.30859-101-101S69.30824,23.99996,124.99965,23.99996s101,45.30859,101,101-45.30859,101-101,101Z" fill="#262626"/>
  <path d="M124.99965,45.99996c-43.56055,0-79,35.43945-79,79s35.43945,79,79,79,79-35.43945,79-79-35.43945-79-79-79ZM124.99965,195.99996c-39.14941,0-71-31.85059-71-71s31.85059-71,71-71,71,31.85059,71,71-31.85059,71-71,71Z" fill="#262626"/>
  <path d="M128.99965,69.99996h-8v63c0,1.06055.42188,2.07812,1.17188,2.82812l29.75195,29.75195,5.65625-5.65625-28.58008-28.58105v-61.34277Z" fill="#262626"/>
</svg>