<?xml version="1.0" encoding="UTF-8"?>
<svg id="_アイコン_step-ホームステイ" data-name="★アイコン_step-ホームステイ" xmlns="http://www.w3.org/2000/svg" width="500" height="500" viewBox="0 0 500 500">
  <path d="M415.73104,369.4978c-.00513-.13873-.02197-.27673-.04199-.41638-.01929-.13586-.04102-.26953-.07373-.4007-.01245-.05017-.01294-.1004-.02759-.15045l-13.93188-47.98657c-.50049-23.42712-27.79883-39.73364-66.75366-39.73364s-66.25415,16.30652-66.75464,39.73364l-13.93188,47.98657c-.01465.05011-.01514.1004-.02783.15057-.03247.1311-.0542.26471-.07349.40057-.02002.13959-.03687.27759-.04199.41626-.00195.05017-.01489.09717-.01489.14783,0,28.57812,33.24414,48.5376,80.84473,48.5376s80.84375-19.95947,80.84375-48.5376c0-.0506-.01294-.09753-.01489-.14771ZM334.90218,288.81006c34.60742,0,58.77734,13.31738,58.77734,32.38525s-24.16992,32.38525-58.77734,32.38525-58.77832-13.31738-58.77832-32.38525,24.1709-32.38525,58.77832-32.38525ZM334.90218,410.18311c-42.58594,0-72.40454-16.43787-72.82495-40.03534l9.94946-34.27032c8.89258,15.65363,32.29346,25.70312,62.87549,25.70312s53.98193-10.0495,62.87451-25.70312l9.94946,34.27032c-.42041,23.59747-30.23804,40.03534-72.82397,40.03534Z" fill="#a57e66"/>
  <path d="M334.90121,344.57959c29.03516,0,50.92969-10.94727,50.92969-25.46387s-21.89453-25.46436-50.92969-25.46436-50.92969,10.94727-50.92969,25.46436,21.89453,25.46387,50.92969,25.46387ZM334.90121,301.65137c25.29883,0,42.92969,9.2041,42.92969,17.46436s-17.63086,17.46387-42.92969,17.46387-42.92969-9.20361-42.92969-17.46387,17.63086-17.46436,42.92969-17.46436Z" fill="#a57e66"/>
  <path d="M257.18636,196.50195c0-.45312-.07715-.90283-.22754-1.33008l-27.26172-77.32867v-32.02631c0-1.21387-.55078-2.36182-1.49805-3.12061-.94824-.75977-2.18652-1.04834-3.37207-.78369l-109.95312,24.4917c-1.8291.40723-3.12988,2.03027-3.12988,3.9043v31.7168l-18.33105,34.57764c-5.99121,11.30225-9.1582,24.0376-9.1582,36.8291v96.0498c0,6.31104,3.68359,12.13916,9.38379,14.84766l30.10156,14.30127c2.25586,1.07178,4.66504,1.60254,7.06543,1.60254,2.9895,0,5.96265-.8291,8.60547-2.45679l104.91211-23.95239c7.57324-1.6875,12.86328-8.28564,12.86328-16.04541v-101.27686ZM127.17367,331.40527l-30.10156-14.30127c-2.92676-1.39062-4.81738-4.38232-4.81738-7.62207v-96.0498c0-11.49023,2.84473-22.92969,8.22656-33.08203l14.52344-27.396,17.37988,49.29736c4.54395,12.89014,6.84863,26.35693,6.84863,40.02588v81.50635c0,2.95459-1.43262,5.5542-3.92969,7.13281-2.49805,1.57861-5.46191,1.75684-8.12988.48877ZM249.18636,297.77881c0,3.9834-2.71484,7.37061-6.62402,8.24121l-95.84717,21.88342c.34033-1.32648.51807-2.70825.51807-4.11975v-81.50635c0-14.57715-2.45703-28.93896-7.30371-42.68604l-20.18555-57.25586v-28.81982l101.95312-22.70947v27.72168c0,.08496.01978.16443.0249.24811.00903.14197.01855.28271.04297.42511.02417.14166.06177.27686.10034.41302.02319.08118.03101.16321.05933.24384l27.26172,77.32861v100.59229Z" fill="#a57e66"/>
  <path d="M217.76547,200.54688c-5.22949-4.17578-11.39453-5.61279-17.83008-4.15039-20.95312,4.75928-29.49902,18.13867-29.49902,46.18164,0,14.38916,5.04102,27.30713,13.15527,33.71338,3.78711,2.98975,8.13574,4.51172,12.78613,4.51172,1.75195,0,3.54785-.21631,5.37207-.65137,18.71973-4.46729,29.45605-21.2959,29.45605-46.17139,0-13.79199-5.27539-26.91553-13.44043-33.43359ZM199.89242,272.37061c-4.31934,1.02832-8.02832.2583-11.34375-2.3584-6.14258-4.84961-10.1123-15.61816-10.1123-27.43408,0-27.6792,8.53223-35.03271,23.27051-38.37988,1.03418-.23486,2.04688-.35205,3.03809-.35205,2.87695,0,5.56836.9873,8.0293,2.95264,6.23926,4.98096,10.43164,15.9043,10.43164,27.18164,0,12.25977-3.02832,33.54932-23.31348,38.39014Z" fill="#a57e66"/>
</svg>