<?xml version="1.0" encoding="UTF-8"?>
<svg id="_アイコン_メディカルのコピー_2" data-name="★★アイコン_メディカルのコピー 2" xmlns="http://www.w3.org/2000/svg" width="500" height="500" viewBox="0 0 500 500">
  <path d="M237.66017,94.25989c-22.57577-8.2169-47.53806,3.42334-55.75493,25.99904l-.00005.00014c-8.21687,22.5757,3.42317,47.53807,25.99894,55.75497l64.23555,23.3798,29.75604-81.75416-64.23555-23.3798Z" fill="#e8d7c1"/>
  <g>
    <path d="M335.3489,225.59277c5.19043,1.88867,10.56836,2.8291,15.93262,2.8291,6.69727,0,13.37207-1.4668,19.62305-4.38184,11.25781-5.24902,19.79688-14.56738,24.04492-26.23926,8.76953-24.09375-3.69824-50.83105-27.79199-59.60059l-64.23535-23.37988-64.23535-23.37988c-24.09473-8.76953-50.83105,3.69922-59.60059,27.79199-4.24805,11.67188-3.69629,24.2998,1.55273,35.55664s14.56738,19.7959,26.23926,24.04395l64.23535,23.37988,64.23535,23.37988ZM389.31081,195.74805c-3.69922,10.16602-11.13672,18.28223-20.94141,22.85449s-20.80371,5.05273-30.96777,1.35156l-61.41626-22.35327,27.70386-76.11627,61.41553,22.35431c20.98535,7.6377,31.84473,30.9248,24.20605,51.90918ZM186.07643,152.25293c-4.57129-9.80371-5.05176-20.80176-1.35156-30.96777,5.97949-16.42969,21.54883-26.65137,38.09766-26.65137,4.58984,0,9.25586.78711,13.81152,2.44531l61.41626,22.35327-27.70386,76.11627-61.41553-22.35431c-10.16602-3.69922-18.28223-11.13672-22.85449-20.94141Z" fill="#262626"/>
    <path d="M188.17409,268.75098l-11.87012-67.31934c-2.15625-12.23242-8.94824-22.89258-19.12207-30.0166-10.1748-7.125-22.51855-9.86328-34.74609-7.70312-12.23242,2.15625-22.89258,8.94824-30.0166,19.12207-7.125,10.1748-9.86035,22.51465-7.70312,34.74609l11.87012,67.31934,11.87109,67.31934c2.15625,12.23242,8.94727,22.89258,19.12109,30.0166,7.90625,5.53613,17.11914,8.42188,26.57324,8.42188,2.71289,0,5.44629-.2373,8.17285-.71875,12.23242-2.15625,22.89258-8.94727,30.0166-19.12207,7.125-10.1748,9.86035-22.51465,7.70312-34.74609l-11.87012-67.31934ZM97.33327,186.27539c6.20508-8.86133,15.49023-14.77637,26.14355-16.65527,2.37598-.41895,4.75586-.62598,7.11914-.62598,8.2334,0,16.25879,2.51465,23.14453,7.33594,8.86133,6.20508,14.77637,15.48926,16.65527,26.14258l11.34863,64.36523-79.77051,14.06543-11.34961-64.36426c-1.87793-10.6543.50488-21.40137,6.70898-30.26367ZM187.42702,367.375c-6.20508,8.86133-15.49023,14.77637-26.14355,16.65527-10.6543,1.87695-21.40234-.50488-30.2627-6.70898-8.8623-6.20508-14.77637-15.49023-16.65527-26.14355l-11.34961-64.36523,79.77051-14.06543,11.34961,64.36426c1.87793,10.6543-.50488,21.40234-6.70898,30.26367Z" fill="#262626"/>
    <path d="M405.14382,269.10059c-16.48242-19.6416-45.86914-22.21289-65.51172-5.73047l-52.36523,43.93945-52.36523,43.93945c-19.6416,16.48145-22.21191,45.87012-5.73047,65.51172,7.9834,9.51465,19.19434,15.35059,31.56836,16.43359,1.38281.12109,2.76074.18066,4.13184.18066,10.90332,0,21.35938-3.79199,29.81055-10.88379l52.36523-43.93945,52.36523-43.93945c19.6416-16.48047,22.21289-45.86914,5.73145-65.51172ZM290.82448,417.89551c-8.28711,6.95312-18.78418,10.26465-29.5625,9.32129-10.77637-.94238-20.54102-6.02539-27.49512-14.31348-14.35449-17.10645-12.11523-42.70312,4.99219-57.05859l50.06641-42.01074,32.69678,38.96606,19.36951,23.08386-50.06726,42.0116ZM395.55495,330.0166l-50.06641,42.01074-32.69678-38.96606-19.36951-23.08386,50.06726-42.0116c17.10645-14.35449,42.70312-12.11426,57.05859,4.99219,6.95312,8.28711,10.26367,18.78613,9.32031,29.56348-.94238,10.77637-6.02539,20.54102-14.31348,27.49512Z" fill="#262626"/>
  </g>
</svg>