<svg width="10" height="16" viewBox="0 0 10 16" fill="none" xmlns="http://www.w3.org/2000/svg">
<path d="M4.5 16V14H2.5V13H4.5V9.977C3.222 9.83367 2.15233 9.288 1.291 8.34C0.430334 7.39133 0 6.27433 0 4.989C0 3.60033 0.486333 2.42167 1.459 1.453C2.431 0.484333 3.61133 0 5 0C6.38867 0 7.569 0.484333 8.541 1.453C9.513 2.42167 9.99933 3.60033 10 4.989C10 6.27433 9.56967 7.391 8.709 8.339C7.84767 9.28767 6.778 9.83367 5.5 9.977V13H7.5V14H5.5V16H4.5ZM5.003 9C6.109 9 7.05167 8.60933 7.831 7.828C8.61033 7.046 9 6.10233 9 4.997C9 3.89167 8.60933 2.949 7.828 2.169C7.04667 1.389 6.103 0.999333 4.997 1C3.891 1.00067 2.94833 1.39133 2.169 2.172C1.38967 2.954 1 3.89767 1 5.003C1 6.109 1.39067 7.05167 2.172 7.831C2.954 8.61033 3.89767 9 5.003 9Z" fill="#D55665"/>
</svg>
