<?xml version="1.0" encoding="UTF-8"?>
<svg id="_レイヤー_1" data-name="レイヤー_1" xmlns="http://www.w3.org/2000/svg" version="1.1" viewBox="0 0 19.8 19.8">
  <!-- Generator: Adobe Illustrator 29.5.1, SVG Export Plug-In . SVG Version: 2.1.0 Build 141)  -->
  <defs>
    <style>
      .st0 {
        fill: #fff;
      }
    </style>
  </defs>
  <path class="st0" d="M18.2,1.6C17.2.6,15.8,0,14.4,0c-1.5,0-2.8.5-3.9,1.6l-1.6,1.5c-.4.4-.4,1,0,1.4.4.4,1,.4,1.4,0l1.5-1.5c.7-.6,1.5-1,2.5-1h0c.9,0,1.8.4,2.5,1,.7.7,1,1.5,1,2.5,0,.9-.3,1.8-1,2.5l-2.7,2.7c-.4.4-.8.6-1.3.8s-1,.3-1.5.2c-.5,0-1-.2-1.4-.4-.4-.2-.8-.6-1.1-1-.3-.4-1-.5-1.4-.2-.4.3-.5,1-.2,1.4.5.6,1.1,1.2,1.8,1.5.7.4,1.5.6,2.3.7.1,0,.3,0,.4,0,.7,0,1.3-.1,1.9-.3.7-.3,1.4-.7,2-1.3l2.7-2.7c1-1,1.6-2.4,1.6-3.9,0-1.5-.6-2.8-1.6-3.9Z"/>
  <path class="st0" d="M9.5,15.3l-1.5,1.5c-.7.6-1.5,1-2.5,1-.9,0-1.8-.4-2.5-1-.7-.7-1-1.5-1-2.5,0-.9.3-1.8,1-2.5l2.7-2.7c.4-.4.8-.6,1.3-.8.5-.2,1-.3,1.5-.2.5,0,1,.2,1.4.4.4.2.8.6,1.1,1,.3.4,1,.5,1.4.2.4-.3.5-1,.2-1.4-.5-.6-1.1-1.2-1.8-1.5s-1.5-.6-2.3-.7c-.8,0-1.6,0-2.3.3-.7.3-1.4.7-2,1.3l-2.7,2.7C.5,11.5,0,12.9,0,14.4s.6,2.8,1.6,3.9c1,1,2.4,1.6,3.9,1.6h0c1.4,0,2.8-.5,3.9-1.6l1.5-1.5c.4-.4.4-1,0-1.4s-1-.4-1.4,0Z"/>
</svg>