<?xml version="1.0" encoding="UTF-8"?>
<svg id="_レイヤー_2" data-name="レイヤー 2" xmlns="http://www.w3.org/2000/svg" width="61.16585mm" height="41.07585mm" viewBox="0 0 173.38353 116.43548">
  <g id="_レイヤー_1-2" data-name="レイヤー 1">
    <g>
      <g>
        <g>
          <polygon points="81.75021 40.64811 77.59973 29.38923 77.1073 16.02328 78.1625 6.31538 81.18743 3.29045 84.91583 3.57184 89.207 10.25482 92.5952 12.71696 96.31206 9.83273 102.78399 4.68127 106.23163 2.37594 108.4821 4.68127 105.52753 17.50057 97.64865 27.06777 85.90068 38.81574 81.75021 40.64811" fill="#c30d23"/>
          <path d="M33.2852,59.74508c-1.36335,0-2.46344-.06194-3.46195-.19481-.98674-.13163-1.9456-.41718-2.96053-.71946-.44846-.13349-.89723-.26697-1.34755-.38652-.02973-.0161-.13565-.06194-.27255-.06194h-.035l-.04491.00527c-.16105.02168-.31776.03128-.47262.03128-.81268,0-1.5978-.26356-2.42937-.5423-.88391-.2967-1.79787-.60332-2.80133-.60332-.10933,0-.21897.00372-.32984.01146h-.00093c-.23104,0-.57049-.21277-.86998-.40046-.15207-.09508-.3029-.18923-.45032-.26883-.14835-.08022-.28772-.18552-.42709-.28896-.27347-.20255-.5838-.43236-.96413-.53425-2.36526-.63553-4.5639-1.6458-6.53428-3.00265-1.79911-1.23915-3.86643-2.75767-5.56148-4.62553-1.09607-1.20787-1.91618-2.75271-2.70935-4.24706-.18211-.34316-.36391-.68539-.54819-1.02328-.69964-1.28003-1.14593-2.38075-1.05116-3.59141.01518-.19419.02385-.38931.03252-.58442.0158-.36081.03066-.7018.08827-1.02731.1307-.73804.53952-1.1608,1.24937-1.29273.10406-.0192.2072-.0288.30878-.0288.59,0,1.08523.32922,1.3587.90343l.34378.71698c.59217,1.22924,1.20447,2.50061,1.62753,3.79024.55314,1.68669,1.70898,2.82209,2.94566,3.93116.55655.49863,1.1896.89444,1.80159,1.27694.33046.20658.66092.41284.97776.63522.13472.09477.26542.23538.40386.38435.09632.10375.19326.2072.29546.30321.06349.06008.12543.12419.18768.1883.201.20689.42864.44134.73247.59155.84675.41811,1.70465.81423,2.56255,1.21066.42461.19605.84954.3924,1.27322.59124.06597.03097.1341.0607.20255.09044.17189.07495.34966.15207.43545.23786,1.17318,1.17257,2.6471,1.42993,4.07239,1.67832l.06256.01115c.37599.06535.80618.1499,1.15212.32179,1.7477.86905,3.26714,1.27415,4.78132,1.27415.14618,0,.2933-.00372.44134-.01177l.13287-.00836c.0734-.00527.14897-.01115.22268-.01115.09105,0,.12141.01053.12265.01115,1.02607.54076,2.14723.78357,3.62857.78357.59062,0,1.18588-.03748,1.76133-.0734.55965-.03531,1.1385-.07154,1.69691-.07154.50947,0,.95577.03035,1.36428.0926.60053.09167,1.24999.13627,1.98463.13627.88763,0,1.78332-.06504,2.64958-.12791l.32427-.02354c1.10009-.07867,2.19523-.27967,3.25413-.47386.2775-.0511.555-.10189.8325-.15083,1.46524-.25737,3.00543-.5516,4.57784-.87462.27193-.05575.4974-.18521.69561-.2998.07805-.0446.15547-.09013.23538-.1276.11273-.05327.22485-.1115.33697-.17034.23228-.1211.45156-.23569.65721-.28308.31157-.07247.62376-.15145.93657-.23042.97063-.2456,1.88738-.47726,2.81279-.52186,1.79323-.08641,3.39319-.70924,4.94051-1.31163.38776-.15114.77552-.30197,1.16513-.44413.68632-.24994,1.26486-.69778,1.8242-1.13075.30723-.23786.59712-.46209.89878-.65225.40882-.25644.88268-.44846,1.41476-.65504.77861-.3029,1.56032-.5965,2.34203-.89042.63429-.23817,1.26858-.47664,1.90039-.71946.29175-.11181.61137-.26728.77428-.57235.39395-.73804,1.08709-1.06819,1.88986-1.45038.22671-.10778.45342-.21587.67331-.33356l.19821-.10344c.319-.16539.64853-.33635.94028-.59279.68198-.60022,1.45936-1.00873,2.44795-1.28561.76499-.21432,1.25557-.56305,1.499-1.06602.25334-.52434.21122-1.17411-.12946-1.98741-1.14345-2.73351-2.32593-5.56024-2.49999-8.65766-.01982-.34781-.14433-.66216-.25396-.93935-.04522-.11397-.09105-.22764-.12698-.34223-.03964-.12698-.08238-.25334-.12574-.37971-.10035-.29546-.19574-.57482-.24157-.8483l-.04088-.23972c-.11645-.68043-.23662-1.3841-.23662-2.05307-.00062-.75322-.05637-1.50922-.11026-2.23983-.1084-1.47144-.21122-2.86111.09725-4.25357l.03097-.13534c.08176-.354.17406-.75508.07495-1.15894-.23352-.94802-.14309-1.90596-.04708-2.91995.06938-.73556.14123-1.4959.08362-2.26739-.00929-.12326-.02664-.35555.00124-.42709.61137-.93068.82197-1.97162,1.02576-2.97849.14618-.71915.2837-1.39834.56058-2.02551.19388-.43669.2614-.98519.18149-1.46617-.11459-.68725.09105-1.24318.68818-1.8595.65535-.67796,1.22336-1.32247,1.735-1.971.87091-1.10381,2.02923-1.71146,3.26126-1.71146,1.08461,0,2.14382.48346,2.90633,1.32649.50111.55376,1.04992,1.06386,1.58138,1.55754.44846.41718.91303.8483,1.33361,1.29397.13008.13844.22485.37444.3252.62438.07929.19698.16167.40108.27502.5996l.17654.31064c.31281.55438.63677,1.12735,1.0493,1.64364.32334.40479.68446.7718,1.03381,1.12673.29113.29608.56677.57575.82135.87493.4689.55129.95701.83095,1.45131.83095.35803,0,.8833-.15269,1.35282-.87958.52589-.81516,1.0301-1.52192,1.87251-1.9168.25025-.11738.38404-.33046.48129-.48625.02602-.04119.05079-.08393.08052-.11924.19078-.22795.37475-.46426.55872-.70088.40386-.51908.78543-1.00904,1.2376-1.40485,1.3491-1.17969,2.95836-2.54799,4.66548-3.75308.80525-.56832,1.65943-.86843,2.46901-.86843.41501,0,.81454.08052,1.18867.23972,1.25805.53487,2.18346,1.47763,2.60715,2.65422.30661.85109.56987,1.80561.82879,3.00389.05761.26728.00434.6188-.04708.95856l-.02973.19976c-.02044.14402-.06566.28555-.1084.4274-.07371.24281-.15671.51784-.16167.81795-.01301.9186-.2744,1.82296-.84613,2.93296-.29051.56429-.45342,1.17226-.61075,1.7604-.06814.2552-.13627.51071-.21494.76065l-.07929.25272c-.08858.2871-.17715.57482-.28865.85325l-.04398.11026c-.35245.8802-.71667,1.79075-1.11062,2.66382-.16786.37196-.39829.76406-.70552,1.19858-.1499.21184-.31962.41192-.48872.61199-.29051.34378-.59031.69933-.81578,1.11929-.89568,1.66593-2.0602,3.25568-3.66388,5.00245-.16662.18087-.29423.3732-.41749.55903-.07495.11243-.14928.22547-.23228.33077-.24281.30754-.47262.62438-.70304.94152-.73278,1.00997-1.42467,1.96419-2.49937,2.57215-.56553.31993-.98116.82073-1.38317,1.30481-.08548.10282-.17096.20534-.25644.30476-.22919.2648-.44103.54602-.65287.82724-.55438.73618-1.07779,1.43148-1.90534,1.77774-.31219.13008-.51969.41408-.66464.64699-.7941,1.2695-1.58882,1.89264-2.65794,2.08281-.43855.07836-.81392.40231-1.05178.66061-.91922.9982-1.82544,2.00755-2.74837,3.03548l-1.15336,1.28251.12574.3125c.01858.09508.07495.33139.26387.51226l.31219.29825c2.08126,1.99175,4.23375,4.05102,6.38004,6.04772.2775.2583.62066.40015.92294.52527.1276.05265.25582.10499.37599.16724.625.32613,1.2822.55098,1.91773.76808.99727.34099,1.93879.66278,2.7397,1.34353.64977.5519,1.58014.64946,2.48016.74362.22981.02385.45589.04739.67145.07929,1.00904.14897,2.03604.2456,3.02897.33882.34935.03283,1.30017.1276,1.30017.1276.32334.035.65721.07123.99913.07123.0607,0,.12141-.00124.18149-.00372,1.96109-.07929,3.92156-.17127,5.88203-.26325l1.96419-.09167.13318.0031c.09539,0,.23848-.00898.38714-.08424,1.26858-.64668,2.64803-.69716,4.10862-.75074l.56367-.02199c.40077-.01734.75508-.19047,1.06726-.34285.12141-.05915.24219-.11893.36422-.16601.1307-.05017.26387-.11614.39705-.18273.16229-.08114.36484-.18242.46085-.18242.17282.02168.33635.0319.49554.0319,1.18991,0,2.124-.55376,3.02773-1.08894l.1945-.1149c.05327-.03159.1084-.06783.16353-.10468.05141-.03469.12946-.08672.16043-.09756,1.53245-.04181,2.86359-.70583,4.15074-1.34786l.08734-.04336c.71977-.35895,1.49281-.66774,2.24045-.9663.49925-.19945.99913-.39922,1.49095-.61509.8164-.35834,1.60616-.76251,2.3377-1.14593.77118-.40448,1.53679-.81826,2.30301-1.23203.47386-.25613.94833-.51257,1.42343-.76653.34502-.18428.69375-.3636,1.05054-.52341.07185-.03221.15114-.05048.22857-.07092.16229-.04274.36484-.09601.55376-.21525,1.04249-.65875,2.0794-1.3268,3.11631-1.99485l1.4575-.9378c.15609-.10004.31405-.19543.47262-.29082.28122-.16972.56243-.33944.82879-.53022.45218-.32396.88825-.67331,1.31008-1.01121l.23972-.19202c.30785-.24591.60951-.49832.91055-.75074l1.18991-.99572c.64977-.54478,1.29893-1.08956,1.95613-1.62598.54943-.44908,1.11248-.88175,1.67554-1.31472l.31467-.24188c.10654-.08176.21866-.15702.33077-.23259.22423-.15145.45589-.30754.6665-.51598.71791-.70893,1.42839-1.42684,2.13824-2.14444.5358-.54199,1.07222-1.08399,1.61174-1.62227.22547-.22516.45404-.4528.68322-.56646,2.0187-1.00594,3.24577-2.71338,4.43258-4.36445.37723-.52465.93657-.94833,1.52873-1.3968.16972-.12853.33882-.25675.50297-.38683,1.24628-.98674,2.53901-1.9741,3.84289-2.93451.36422-.2679.69066-.40386.97001-.40386.21184,0,.41377.07774.61818.23755.73092.57266.44165,1.33578.33573,1.5563-.15981.33263-.31405.6699-.46828,1.0078-.76251,1.67089-1.4829,3.24887-2.95031,4.32976-.33697.24746-.6411.57482-.85728.92108-1.05178,1.6839-2.70873,2.79762-4.17057,3.78033-.41935.28215-.77923.70769-.96196,1.1385-.58411,1.37295-1.34167,2.15837-2.45415,2.54551-.34873.1211-.67331.35803-.86781.63367-1.42591,2.02179-3.42478,3.30121-5.54073,4.65619-.35803.22919-.71605.45837-1.0716.69158-.49678.32613-.97435.68415-1.43644,1.03041-.21804.16322-.43545.32644-.65535.48656l-1.22026.88361-1.83287,1.33361c-.04646.03376-.08362.0703-.11026.09973-1.17752.638-2.25717,1.43148-3.30214,2.19957-1.4606,1.07346-2.84067,2.08714-4.48709,2.73815-1.49528.59124-2.95464,1.31379-4.36568,2.01281-.89383.44227-1.81738.89971-2.73537,1.31596-.87029.39488-1.78765.74516-2.67466,1.0843-.5104.19512-1.02143.39024-1.52749.59464-.28431.1149-.56243.24529-.83994.37599-.22175.10406-.44289.20844-.66836.30321l-.24157.10468c-.32272.14061-.62747.27316-.92604.33356-.87338.17623-1.74925.33728-2.62573.49863-.80896.14866-1.61793.29763-2.42442.45806-.33077.06566-.64296.16724-.94524.26542-.22299.07247-.44598.14556-.67331.20038-.52713.1276-1.08213.2168-1.57209.29515-.12698.02044-.25582.02818-.38528.03655-.2168.01456-.46271.03066-.70862.09446-2.08683.54385-4.2418.66959-6.32615.79069-.55005.03221-1.09947.10066-1.63032.16693-.73278.09167-1.42529.17808-2.12833.17808-.28803,0-.55314-.01456-.81144-.04429-.07433-.00867-.15238-.01208-.23104-.01208-.06256,0-.3382.00805-.3382.00805-.09787,0-.12822-.00867-.13318-.01053-.9663-.54881-1.97967-.60548-2.9596-.6603-.42245-.02354-.82197-.04584-1.21345-.10685-.33635-.05234-.67641-.10035-1.01709-.14835-1.42901-.20224-2.90695-.4113-4.16995-.95763-.75322-.3252-1.52935-.61137-2.28009-.88825-1.18619-.43762-2.41265-.8898-3.52141-1.4925-1.84897-1.00532-3.50902-2.25129-4.93431-3.70321-.49554-.50514-.91365-1.08585-1.35653-1.70031-.3475-.48253-.70676-.98147-1.10938-1.44418-.43174-.49585-.92418-.90436-1.44511-1.33733-.22609-.18768-.45651-.3794-.68694-.58288l-.28927-.25551s-.67393.38683-.83994.48377c-.35245.20596-.69561.40727-1.0493.58814-.39643.20255-.76003.44784-1.11124.68477-.62376.42121-1.21283.81888-1.92083.93935-.45094.0765-.76622.47448-.99665.76499-.95639,1.20539-2.25965,1.94313-4.23622,2.40521-.4943.11552-.92418.36391-1.33919.60394-.13256.0765-.26511.153-.39829.22392-.38156.20224-.76003.41223-1.13788.62221-.66092.36732-1.34476.74671-2.03046,1.07284-1.07222.5104-2.18966.98643-3.27055,1.44666l-1.25185.53797c-.36918.1626-.71729.31621-1.06664.39767-1.92826.44815-3.89245.90467-5.67514,1.9168-.0607-.00434-.13318-.0065-.20441-.0065-.86657,0-1.60492.32798-2.31911.64482-.59341.26356-1.15398.51257-1.70279.51908-1.10505.01301-2.14661.21649-3.1541.41346-.65535.12822-1.27415.24901-1.90844.32148-.41439.04708-.82879.10344-1.24411.16012-.99541.13596-2.02458.27626-3.0426.27626-.4624,0-.88918-.02787-1.30543-.08517-.29175-.04026-.59403-.05977-.92387-.05977-.71357,0-1.43396.09415-2.1305.18521-.61013.07991-1.24101.1626-1.84278.17623-.52062.01177-1.04373.02044-1.56714.02044ZM82.48152,4.7937c-1.01895.57575-1.30946,1.43458-1.44883,2.11842-.06132.30011-.10902.60858-.15733.91829-.12326.79658-.23972,1.54917-.57916,2.13174-.71729,1.2311-.80029,2.41389-.83003,3.7218-.01239.55562-.06442,1.12921-.11459,1.6839l-.04893.55407c-.06008.71915-.04831,1.44077-.03717,2.13886.0192,1.19455.03778,2.32314-.27502,3.42943-.07557.26759.00062.5104.05637.68756.01487.04708.03159.09415.03902.13999.2168,1.29304.4336,2.58578.64544,3.87975.07991.49337.11273.99355.14804,1.52316.07619,1.16451.15547,2.36898.76932,3.51801.06318.11862.08672.34719.0477.46921-.33325,1.04496.06999,1.8818.42554,2.62046.07743.16074.15486.32086.22299.48191.2168.51443.53022.96723.86162,1.44635.14742.21277.30104.43452.45342.67362l.34316.53704.90559-.81702c.34192-.30785.67889-.61075,1.01214-.91767.12388-.11397.24219-.236.3605-.35803.19202-.19852.37351-.38621.56739-.51784.5581-.37816,1.12425-.74331,1.69102-1.10846.76746-.49492,1.56094-1.00687,2.32345-1.54608.73463-.52031,1.2853-1.0716,1.63775-1.63899.94524-1.52192,1.92268-3.09587,3.62981-3.95996.25954-.13163.40944-.35276.52961-.53084.03902-.0573.07681-.11583.12017-.16539.66959-.75384,1.23699-1.59098,1.78517-2.40026.9409-1.3875,1.82915-2.6982,3.18507-3.61897.15671-.10747.27564-.271.36546-.5008.35183-.89073.86595-1.68699,1.41042-2.52972.57544-.89073,1.17009-1.81181,1.57829-2.87845.90683-2.36619,1.4767-4.78503,1.95737-7.04623.04026-.18707.04646-.36329.05451-.58659.00434-.1115.04933-.28068.05924-.43647,0,0,.00282-.34519-.17367-.5614-.23515-.28807-1.55677.70086-1.55677.70086-.59898.40913-1.13416.77428-1.66439,1.14531-.15547.10902-.31838.21246-.48191.31621-.45651.29051-.92913.59062-1.29831,1.02297-.22237.25985-.43607.52806-.64915.79596-.74269.93223-1.44387,1.81274-2.49813,2.31664-.33573.1595-.53208.47541-.69066.72906-.03221.05172-.0638.10313-.09601.15114-.82135,1.22088-2.46592,2.00971-4.18915,2.00971-.86781,0-1.66005-.1976-2.29062-.57111-2.13639-1.26641-3.71777-3.03548-4.83521-5.40848-.14742-.31219-.33449-.63367-.57235-.98302-.45837-.67207-.88887-1.27818-1.31503-1.85393-.14618-.19667-.31281-.37754-.48872-.56708-.07371-.07991-.1499-.16136-.22609-.24746,0,0-.20512-.22362-.34239-.22362s-.32597.11244-.32597.11244Z" fill="#40220f"/>
          <path d="M122.40231,26.62734c-.23409-.11356-.71793-.27416-1.11594-.55594-1.00025-.70816-1.50784-1.74855-1.7246-2.92283-.19285-1.04491.2211-1.88695,1.05381-2.50753.81146-.60479,1.6566-.56112,2.56196-.13348,1.35427.63966,2.13107,1.64306,2.24156,3.14597.11126,1.51378-1.31327,3.05436-3.0168,2.9738Z" fill="#40220f"/>
          <path d="M52.22223,42.319c-1.37954-.13753-2.29235-.55612-2.73347-1.69374-.46847-1.20819-.00767-2.35593,1.1925-2.85881.55553-.23281,1.13175-.41929,1.70593-.604,1.35305-.43521,2.5777.15193,3.04644,1.44669.51806,1.43103-.05164,2.92557-1.38287,3.38688-.65331.22639-1.37748.24837-1.82853.32298Z" fill="#40220f"/>
          <path d="M43.27017,23.98098c-.10326,1.13211-1.31568,2.22073-2.6316,2.36286-1.17437.12685-2.07685-.51102-2.38372-1.83864-.19045-.82393-.36435-1.71424-.24884-2.53287.21647-1.53407,1.70171-2.23411,3.11831-1.61599,1.04375.45541,2.24919,2.49156,2.14585,3.62464Z" fill="#40220f"/>
          <path d="M28.66671,39.85963c.04605-1.01531.49593-1.69536,1.38617-2.04958.82091-.32669,1.67949-.11511,2.29499.68637.4866.63362.93278,1.33622,1.21865,2.07696.41299,1.07015.02492,2.15072-.79658,2.69864-.82205.54828-1.94574.46779-2.83128-.20744-1.08806-.82965-1.22731-2.02945-1.27195-3.20495Z" fill="#40220f"/>
          <path d="M130.39321,39.42549c-.98902-.11811-1.94448-.55313-2.60468-1.45803-.58183-.79744-.66402-1.67578-.13507-2.55733.49122-.81868,1.30351-1.15555,2.3538-.9375.49295.10234.98223.24418,1.455.41759,1.19361.4378,1.79737,1.45523,1.57523,2.59819-.23122,1.18966-1.27785,1.99279-2.64428,1.93709Z" fill="#40220f"/>
          <path d="M112.3007,36.82174c-.08394,1.03469-1.19657,2.37219-2.2087,2.65506-1.32221.36954-2.69791-.55549-2.60641-1.91876.05809-.86564.38942-1.77133.81568-2.5382.4657-.83782,1.51347-1.03772,2.40658-.69515,1.01547.38947,1.67938,1.43027,1.59284,2.49705Z" fill="#40220f"/>
        </g>
        <g>
          <path d="M35.37865,100.45786c-.38052,0-.69753-.03432-.99767-.10777-.21344-.05238-.4314-.06262-.64243-.07285-.13096-.00602-.26221-.01204-.39136-.0289-.52563-.06864-1.05005-.14751-1.57447-.22578l-.3453-.05118c-.07044-.01084-.14089-.02649-.21133-.04154-.13668-.0301-.27787-.06141-.42568-.06141-.12584.00361-.21465.00542-.30255.00542-1.71085,0-3.25341-.57741-4.9483-1.27403-.22247-.09152-.45699-.16016-.6909-.22819-.33898-.09814-.65899-.19147-.93746-.35403-.64123-.3745-1.25145-.83691-1.8415-1.28426l-.34771-.26311c-.10627-.07948-.19147-.22398-.27365-.36366l-.06533-.10898c-.02077-.03432-.03853-.09031-.05569-.1451-.03793-.12102-.08068-.2577-.20561-.32935-.59005-.33958-.81313-.90916-1.04915-1.51246-.09543-.24385-.19448-.49673-.31941-.73335-.12283-.23241-.20561-.48649-.29322-.75502l-.22458-.65628c-.18815-.53948-.37631-1.07895-.54068-1.62565-.08249-.27395-.13276-.58463-.15383-.9501-.00933-.15835.00181-.31911.01264-.47927.01385-.20832.0283-.42387.00241-.63882-.15564-1.29932.00361-2.5303.48679-3.76338.07406-.18936.11741-.40882.13668-.6906.08459-1.21472.45699-2.43095,1.13796-3.71762.13126-.24836.26131-.49733.38925-.7472.12162-.23753.23331-.48047.3447-.72281.37842-.82336.73576-1.60066,1.47724-2.17536.30135-.23391.51058-.56717.71288-.88929.13366-.21314.27185-.43351.432-.61414.29021-.32784.55633-.68247.81373-1.02567.52563-.70114,1.02235-1.36344,1.72981-1.84993.19959-.13698.40671-.26372.61353-.39046.289-.17702.58794-.35975.8643-.57018.33386-.25438.65628-.52472.9787-.79506.4311-.36156.87725-.73576,1.34207-1.05878.82968-.5765,1.65786-1.10454,2.66667-1.22947.17641-.02198.33416-.09603.48649-.16768.08008-.03763.16016-.07556.24204-.10386.18605-.06382.37089-.13306.55573-.2023.44164-.16527.89862-.33657,1.35561-.42267.73606-.13848,1.48085-.22458,2.26899-.3158.3447-.04004.69572-.08068,1.05547-.12674l.7192.12072,1.9258.30436c.48469.07586.96937.15203,1.45195.23783l.1737.0274c.20652.03101.42026.06322.55573.15865.28298.19989.57078.39377.85858.58764.85136.57379,1.73162,1.16686,2.46798,1.90412.19929.2002.35463.46813.50516.72733l.04636.08008c.22759.38986.20832.76797-.0566,1.12441-.17762.23843-.47325.52262-.87605.52262-.07707,0-.15654-.01084-.23602-.03191-.41484-.11018-.85858-.3176-1.28366-.59938-.51479-.34169-1.01995-.72191-1.50824-1.08949-.22157-.16678-.44344-.33386-.66682-.49793-.07376-.05419-.15564-.10597-.25378-.1153-.55814-.05148-1.11869-.19056-1.66087-.32513-.70746-.17551-1.439-.35674-2.19674-.35674-.16196,0-.32543.00813-.4901.02619-.33446.03673-.69813.05298-1.1789.05298-1.01483,0-1.81892.26432-2.47972.80801-.10657.0876-.26492.20712-.40702.23421-1.00881.19207-1.88244.69-2.72718,1.17197l-.21705.12343c-.55332.31339-1.07564.60902-1.50042,1.01031-.37842.35734-.79537.6897-1.19847,1.01091-.64394.51359-1.30985,1.04433-1.85776,1.70362-.3462.41605-.777.78332-1.19395,1.13826-.57891.49342-.85557,1.15813-1.05005,1.74306-.2589.77881-.58192,1.31768-1.04764,1.74697-.43682.4022-.5461.91157-.59577,1.35682-.05901.52894-.22127,1.06811-.45639,1.51818-.46903.89652-.65929,1.6386-.61654,2.40657.00301.05359.00843.10868.01385.16407.01505.15052.0301.30647-.01234.40792-.29322.70234-.27154,1.38391-.24897,2.10462l.00662.21435c.01686.62317.04997,1.23429.26372,1.85686.12915.37631.22729.77489.32182,1.16084.05961.24204.11921.48469.18665.72492.17491.62136.40431,1.25777,1.10695,1.60337.15082.07466.28931.31429.34831.41605.65959,1.14157,1.62084,1.80146,2.93882,2.01761.98593.16196,1.93964.35042,2.76903.87605.1424.09031.32393.15353.51088.17822,1.18883.15414,2.37827.29984,3.568.44254.19658.02348.39437.03191.59246.03191.18665,0,.3736-.00723.56085-.01445.18243-.00662.36517-.01385.5476-.01385.33868,0,.78242.02168,1.21231.18966.1138.04395.23391.0849.345.0849.06352,0,.11952-.01385.16708-.04034.29834-.16859.62889-.24686,1.04012-.24686.26281,0,.53616.03131.80078.06202.27245.03131.55423.06322.8333.06322l.18484-.00181c.84353,0,1.73072.18665,2.51344.35102.2008.04215.67043.19869.6894.73395.01385.38775-.19809.54008-.67826.73516l-.06021.02469c-.92993.37811-1.80839.73576-2.78438.73576-.13246,0-.26673-.00662-.4028-.02107-.0289-.00301-.0581-.00421-.0873-.00421-.14781,0-.29021.03552-.42779.07044-.12192.03071-.23692.05961-.34048.05961-.26492-.0283-.47264-.03793-.68037-.03793-.34048,0-.68097.02649-1.02175.05298-.33115.02589-.6626.05178-.99375.05178Z" fill="#40220f"/>
          <path d="M138.32425,99.71066c-.23301,0-.47264-.03552-.71288-.10597-.21013-.06081-.42568-.07346-.68398-.07346h-.38353c-1.09942-.02408-1.97426-.63641-2.39994-1.67984-.38414-.93927-.18966-1.85324.07767-2.70099.01686-.05298.05058-.11199.0861-.17461.06563-.1144.13969-.24385.13607-.39256-.01626-.84715.36788-1.53353.77429-2.26026.16738-.29924.34018-.60872.48167-.92843.23-.52201.5178-1.04885,1.06269-1.37036.23602-.13908.3733-.39678.42147-.50094.53225-1.15602,1.48416-1.99052,2.90992-2.55227.69241-.27245,1.30775-.40461,1.88154-.40461.5762,0,1.09701.13186,1.59133.4037.38955.21404.72974.5458,1.01091.84143.20772.21916.39678.45639.58584.69301.19448.24445.39618.49733.61775.72913.60811.63581.72071,1.18311.345,1.67322-.26372.3438-.77971.575-1.28487.575-.29743,0-.55573-.07887-.74599-.22819-.2872-.22458-.52262-.51359-.77188-.82005-.10838-.13306-.21675-.26613-.32874-.39317-.06683-.07526-.13366-.1734-.2011-.27034-.17822-.2577-.34681-.50094-.57319-.50094-.8056.04757-1.3505.21254-1.68345.50516l-.06442.0566c-.78573.68879-1.67683,1.46911-2.129,2.4168-.13427.27997-.29202.55694-.45157.83631-.59306,1.03861-1.20599,2.11214-.7779,3.54693l.02168.07346.06924.03372c.1728.08429.3456.12524.52864.12524.3462,0,.64906-.14751.94228-.28961.13788-.06683.27455-.13366.41183-.18063,1.27885-.43291,2.24039-1.30775,3.01227-2.10612.44073-.45578.98141-.89772,1.70091-1.39023.20953-.1439.42869-.21435.66893-.21435.4022,0,.82126.2011,1.18251.38895.51961.27034.73937.69301.67254,1.29269-.03432.31068-.00542.65929.08188.98262.2878,1.0639.79958,1.47814,1.82434,1.47814.08128,0,.16558-.00241.25408-.00723.20832-.01144.41725-.01866.62618-.02589.32031-.01084.64063-.02228.95974-.04817.22578-.01806.44314-.09814.66471-.18605.34199-.13547.73756-.29563,1.11086-.48348.21736-.10898.49552-.26191.7201-.47626.30225-.28961.60691-.4305.93023-.4305.16257,0,.33356.03673.50756.10958.5178.21675.77851.64966.87243,1.44683.0578.49552-.18846.86701-.75322,1.13555-.33356.15775-.67374.30586-1.01633.44615-.7478.30647-1.4968.60932-2.24882.90314-.12945.04997-.2589.10777-.38835.16618-.33236.14872-.64665.28961-.95913.30647-.09633.00542-.19267.00783-.289.00783-.28359,0-.56717-.01987-.85196-.03914-.29442-.02047-.59005-.04094-.88688-.04094-.27756,0-.52563.01806-.75804.05479h-.0012c-.16016,0-.41063-.21615-.59427-.3739-.05961-.05118-.11741-.10115-.1728-.14571-.29924-.24144-.60089-.52623-.9218-.87243-.26974-.29021-.52623-.59246-.8044-.9212l-.49251-.57741-.12764.07948c-.33717.21013-.69602.40461-1.06029.6027-.68277.37029-1.38903.75322-2.03026,1.27644-.59427.48408-1.31919.979-2.19583.979Z" fill="#40220f"/>
          <path d="M50.5234,99.71066c-.23301,0-.47264-.03552-.71288-.10597-.22277-.06442-.4606-.07346-.68458-.07346h-.38293c-1.09942-.02408-1.97426-.63641-2.39994-1.67984-.38414-.93866-.19026-1.85264.07707-2.70099.01686-.05238.05058-.11199.0861-.174.06563-.1144.13969-.24385.13668-.39256-.01626-.84775.36728-1.53353.77309-2.25966.16738-.29984.34078-.60932.48228-.92963.2306-.52201.519-1.04945,1.06269-1.37036.16497-.09694.32212-.28479.42207-.50154.53165-1.15542,1.48356-1.98992,2.90992-2.55167.69241-.27245,1.30775-.40461,1.88154-.40461.5762,0,1.09701.13186,1.59133.4037.39016.21465.72974.5458,1.00971.84143.20772.21856.39618.45518.58523.69181.19508.24445.39738.49793.61955.73034.60811.63581.72071,1.18311.345,1.67322-.26372.3438-.78031.575-1.28547.575-.29743,0-.55573-.07887-.74599-.22819-.2866-.22398-.52141-.51298-.77068-.81945-.10838-.13306-.21675-.26613-.32935-.39377-.06743-.07586-.13487-.174-.2023-.27154-.17822-.25709-.3462-.49974-.57199-.49974-.8056.04757-1.3505.21254-1.68345.50516l-.06442.0566c-.78573.68879-1.67683,1.46911-2.1296,2.4168-.13427.28058-.29202.55754-.45157.83691-.59246,1.03861-1.20539,2.11214-.7773,3.54633l.02168.07346.06924.03372c.1728.08429.3456.12524.52864.12524.3456,0,.64845-.14751.94107-.28961.13848-.06683.27516-.13366.41304-.18063,1.27764-.43291,2.23918-1.30775,3.01227-2.10612.44013-.45518.98021-.89712,1.70031-1.39084.21013-.1433.42869-.21374.66953-.21374.4022,0,.82126.2011,1.18251.38895.51961.27034.73937.69301.67254,1.29269-.03492.30887-.00602.65749.08188.98262.2872,1.0639.79898,1.47814,1.82434,1.47814.08128,0,.16558-.00241.25408-.00723.20832-.01144.41725-.01866.62618-.02589.32031-.01084.64063-.02228.95974-.04817.22458-.01806.43411-.09513.66471-.18605.36005-.1427.74178-.29804,1.11086-.48348.21736-.10898.49612-.26191.7201-.47626.30225-.28961.60691-.4305.93023-.4305.16257,0,.33296.03673.50696.10958.5184.21675.77911.64966.87243,1.44683.0584.49552-.18785.86701-.75322,1.13555-.33416.15775-.67374.30586-1.01573.44615-.7478.30647-1.4968.60932-2.24882.90314-.13005.05058-.2595.10838-.38955.16678-.33236.14872-.64605.289-.95793.30586-.09633.00542-.19267.00783-.289.00783-.28359,0-.56717-.01987-.85196-.03914-.29442-.02047-.59005-.04094-.88688-.04094-.27756,0-.52563.01806-.75804.05479h-.0012c-.16076,0-.41183-.21615-.59487-.3739-.05961-.05118-.11741-.10115-.1728-.14571-.30044-.24264-.60209-.52804-.9218-.87243-.26853-.289-.52322-.59005-.80078-.91759l-.49552-.58102-.12764.07948c-.33777.21073-.69602.40461-1.06089.6027-.68277.37029-1.38843.75322-2.03026,1.27644-.59427.48408-1.31919.979-2.19523.979Z" fill="#40220f"/>
          <path d="M73.62813,99.93223c-.19929,0-.41484-.05118-.63942-.15233-.77128-.34741-1.24453-.85196-1.44683-1.54377-.03552-.12102-.07466-.24084-.1138-.36065-.16016-.49131-.32453-.99707-.22037-1.57387.03914-.21675-.03372-.45037-.11139-.69722-.04516-.1433-.09513-.30165-.11861-.4594-.08429-.58162-.15293-1.17288-.21856-1.74487l-.05419-.46722c-.01084-.09272-.01385-.18785-.01626-.28178-.00542-.17762-.01024-.33416-.05901-.47927-.29924-.89471-.16317-1.78701-.03131-2.64981.03673-.24325.06262-.41123.08369-.57982.01866-.14631.01746-.29683.01445-.45639-.00181-.10537-.00301-.20832.0012-.30948.03251-.75563.18243-4.07858.18243-4.07858l-.0855-.05419c-.26733-.17099-.57801-.25077-.9778-.25077-.06804,0-.13788.00241-.20893.00692-.07526.00482-.14872.00692-.22217.00692-.73516,0-1.41612-.23933-1.96884-.69271-.23843-.19538-.45458-.49191-.60751-.8351-.21194-.47325-.10777-1.01152.25348-1.30865.18846-.15444.40942-.23602.63822-.23602.2312,0,.4612.08008.68458.23813.24987.17702.47746.2598.71589.2598.06984,0,.14209-.00753.21736-.02198.13607-.02679.27094-.04004.40039-.04004.36607,0,.72974.10446,1.11026.31941.19869.11229.32633.13607.39859.13607h.07285l.09332-.06202c.08369-.09844.10777-.2595.08128-.4889-.04516-.4016.03733-.72492.29382-1.15301.43291-.72311.60932-1.31828.57259-1.92941-.02348-.38986.0849-.74449.35162-1.1497.10296-.15594.17581-.33416.24626-.50666.07165-.17491.14089-.34349.23542-.49402l.22097-.35253c.39798-.64093.80921-1.30353,1.29631-1.90051.18846-.2309.43351-.35283.70806-.35283.29924,0,.61414.15233.8628.41815.44133.47144.55694,1.19455.27455,1.71958-.37811.70204-.76466,1.40258-1.1494,2.0995l-.36848.66983c-.54489.99014-.66772,2.01641-.7761,2.92196-.03312.27756-.01746.42598.05419.51238.06081.07285.16979.12524.50576.14541.09874.00572.19809.00813.29743.00813.19267,0,.38534-.00873.57861-.01746.13427-.00632.64424-.02228.64424-.02228.20411-.00572.40822-.01144.61293-.01264l1.36916-.0006c.05178,0,.10356-.00542.15594-.01114.06202-.00632.11921-.01264.17641-.01264.6912.00963,1.20358.35102,1.30353.86972.09513.49793-.2577.99165-.85738,1.20057-.40581.14119-.84112.21314-1.26139.28238l-.32754.05539c-.14872.02649-.30044.03823-.45217.04997-.2288.01836-.43832.03492-.64183.09513-.40039.11891-.82788.17431-1.34508.17431-.4016,0-.81042-.03251-1.24392-.06743l-.15113-.01204-.09513.143-.02107.09393c-.13306.58012-.2583,1.12862-.22277,1.74487.02288.37811-.02649.75924-.07406,1.12712-.06683.51599-.13487,1.04644-.01626,1.57026l.00361.01686-.01024.01385c-.36969.48709-.25107.96636-.12524,1.47332.03793.15173.07586.30466.10055.4588.12042.74118.13126,1.42696.03131,2.03869-.15414.93987.09272,1.78822.38233,2.56492l.05479.13728c.09453.22639.17581.42207.15113.61233-.08309.65568.2017,1.19997.47746,1.7262l.09814.18966c.3161.61414.31128,1.02898-.01626,1.38782-.19688.21675-.45639.33115-.75201.33115Z" fill="#40220f"/>
          <path d="M114.8673,99.74678c-.95432,0-1.95078-.25047-3.1363-.78874-.47987-.21796-.8905-.5473-1.28667-.86581-.38353-.30767-.78031-.62618-1.24513-.85136-.05539-.02709-.1144-.11018-.17099-.19026-.02529-.03552-.05058-.07105-.07647-.10416l-1.02235-1.30413c-.03191-.04034-.07285-.07948-.1138-.11801-.0295-.0277-.07887-.07406-.0867-.09393-.05961-.32754-.18484-.64243-.30526-.94709-.22699-.57199-.44073-1.11267-.23843-1.725.17521-.53165.03974-.98683-.42628-1.43298-.46-.44013-.65809-.98262-.54309-1.48717.115-.50636.53044-.91157,1.14036-1.11146.41304-.13547.61474-.33777.77128-.77309.35222-.97419.88026-1.82224,1.56966-2.52036.20953-.21224.40099-.4901.55393-.80379.22157-.45338.55694-.71468,1.08798-.84654.28238-.07014.55633-.1722.82186-.27064.16678-.06232.33356-.12433.50275-.17852.28118-.09031.52864-.16979.76707-.19086.09694-.00813.19267-.01234.2872-.01234,1.01573,0,1.92248.47746,2.75157.99315.25107.15594.4901.48228.56898.7761.19688.73606.32935,1.49741.39377,2.26267.07346.87243-.50817,1.52029-1.11086,2.10853-.92843.90856-1.82796,1.46008-2.83044,1.73583l-.20351.0566c-.61654.1716-1.19877.33356-1.81953.33356h0c-.0867,0-.17461-.00301-.26311-.00963-.04696-.00361-.09393-.00542-.14149-.00542-.21796,0-.43351.03432-.6617.07105-.12584.02047-.25589.04154-.39136.0572l-.16196.01806.00723.16317c.05901,1.34267.5172,2.4168.90916,3.20253.30044.60149.90856,1.01332,1.62565,1.10183.61474.07526,1.07594.38534,1.48296.70866.39256.31188.91277.4612,1.41131.58704.63641.16136,1.19516.33657,1.57929.85738.20772.28118.27516.57379.19026.82366-.08791.2583-.32995.45699-.68277.55874-.50094.1451-.99285.21555-1.50403.21555ZM113.84314,85.79478c-.50335,0-.95071.18815-1.33002.55874-.42147.41183-.81463.86129-1.19455,1.29601l-.31068.35403c-.07406.08309-.12524.17702-.19628.30647-.03793.06924-.08309.15113-.14209.25167l-.15534.26311h.30586c.12704,0,.24144.00723.3462.01385.09453.00602.18123.01144.26251.01144.13427,0,.24084-.01505.33597-.04757.51479-.17762,1.05968-.38173,1.55701-.67615.6033-.35644,1.61361-.95372.93806-2.22052l-.04215-.07887-.08791-.01204c-.09814-.01355-.19387-.02017-.2866-.02017Z" fill="#40220f"/>
          <path d="M123.79815,106.86774c-.2884,0-.56958-.07586-.81403-.21856-.28359-.16618-.47987-.41424-.53767-.67976-.04937-.22578.0012-.45458.14691-.6617.69241-.98683,1.11869-2.09829,1.53052-3.17363.14932-.38835.29804-.7761.4594-1.15903.15775-.37691.33597-.74419.51419-1.11146l2.33672-4.82216-1.48536-.21314c-.05058-.00723-.10175-.01204-.15293-.01204l-.07647.00361c-.04516.00542-.0873.00783-.12825.00783-.41544,0-.71649-.25529-1.035-.52503-.18183-.15474-.37089-.31489-.58764-.4317-.6039-.32513-1.14759-.68157-1.16927-1.45586-.00723-.25348-.21555-.54008-.41304-.67073-.53285-.35283-.75502-.90194-.91578-1.44322-.04094-.13848-.0849-.27756-.12825-.41605-.20953-.66411-.40762-1.29209-.3438-1.97426.06924-.73696.5744-1.27192,1.19997-1.27192.06864,0,.13848.00632.20953.01957.52442.09754,1.18913.8062,1.24754,1.33063.01385.12704.01024.25529.00783.38414l-.00241.15594c-.00361.90555.45097,1.59374.8911,2.25905.18846.28539.38353.58102.53406.88447.09633.19387.32212.31309.52984.40461.18424.08068.4022.12222.64785.12162.71408,0,1.50343-.3456,1.87612-.82186l.04877-.06382c.08309-.10958.17762-.23361.26914-.27094.42749-.17641.67133-.49673.90796-.8068.06322-.08309.12704-.16738.19568-.24927.45398-.54489.92301-1.10785.9218-1.91706.4612-.54188.82848-1.15,1.18372-1.73885.21736-.36005.43471-.7201.67314-1.06571.16377-.23753.43712-.2872.63762-.2872.11982,0,.24686.01686.37811.05058.48469.12343.85618.41936,1.04704.8336.19448.42267.17581.90976-.05178,1.37127-.08429.17099-.14751.35283-.21073.53406-.07105.20652-.13848.4016-.23722.57681-.10717.18966-.24565.36306-.39256.5461-.12283.15414-.24565.30827-.35102.47264-.20291.3167-.39136.64304-.57982.96877-.11982.20832-.24024.41665-.36487.62256-.14149.23482-.29021.46482-.43893.69542l-.20531.31971c-.03312.05238-.07406.10416-.1144.15594-.10416.13306-.22277.28419-.24626.46602-.08068.61835-.37209,1.14277-.91578,1.64974-.21736.2023-.24866.61474-.23301.82607.04576.60992-.16798,1.09822-.65267,1.49259-.37872.30887-.54309.64665-.53406,1.09581.00301.174-.04757.3745-.13547.53526-.25649.46783-.52262.93023-.78874,1.39324-.21194.36848-.42387.73696-.63099,1.10785l-.06322.11079c-.12644.21976-.26974.46903-.28419.73215-.03191.5756-.27094,1.0645-.52503,1.5823-.0867.17702-.1734.35463-.25167.53586-.21194.4877-.38233.99947-.5467,1.4944-.05901.17702-.11741.35403-.17822.52984-.24204.70144-.92963,1.19094-1.67201,1.19094h0Z" fill="#40220f"/>
          <path d="M100.84997,99.74678c-.18364,0-.36728-.04937-.5467-.14751-.92301-.50335-1.77136-1.14639-1.72741-2.43607.01024-.30827-.01987-.61715-.04937-.91518-.00783-.07647-.01505-.15293-.02228-.2288l.12704-.00723-.00783-.1728c-.01445-.31008-.03613-.62076-.0584-.93084-.04757-.66471-.09694-1.3517-.06021-2.01701.01927-.35162.03613-.70385.05298-1.05607.09272-1.9562.18906-3.97863.76586-5.89991.05359-.17732.12222-.44314.10416-.70324-.08309-1.16234.09754-2.3578.58523-3.87628l.03492-.09814c.04937-.13276.10537-.28328.07647-.43712-.19026-1.02687.10717-1.9562.42207-2.94002.15835-.49342.32152-1.00369.41544-1.5233.13908-.77339.62497-1.53654,1.36856-2.14887.1728-.143.44434-.2875.62798-.2875.72853.16317,1.32159.38534,1.81892.66652.3739.21164.39497.73004.19929,1.10936-.12524.24264-.2601.41996-.4016.52713-.83089.62738-1.1223,1.53805-1.34989,2.4174-.05599.21525-.11861.42959-.18183.64364-.22578.76887-.4594,1.56424-.36728,2.42975.01445.13005-.04516.28569-.10838.45067-.04997.13126-.09995.26402-.12343.39618-.08008.44946-.12764.90916-.174,1.35381-.01325.12885-.00843.23482-.00301.33988.00723.143.01445.27817-.0289.36276-.26191.5166-.29924,1.05336-.33537,1.57267l-.02709.35945c-.09272,1.19275-.18906,2.42583-.41544,3.60834-.23783,1.24573-.17942,2.49026-.12222,3.69384l.01806.39738c.01084.24445-.0006.4901-.01144.73576-.02589.55995-.05178,1.13916.17581,1.71296.03733.09332.06563.18966.09453.2866.04395.14631.08791.29202.15414.42749.25228.52141.16377,1.0639.04395,1.5257-.12764.49131-.50516.80861-.96275.80861h-.0006Z" fill="#40220f"/>
          <path d="M89.33433,99.93223c-.19929,0-.41484-.05118-.64123-.15233-.77008-.34741-1.24332-.85196-1.44563-1.54377-.03071-.10476-.06442-.20953-.09814-.31429-.17521-.53767-.34018-1.04403-.23602-1.62023.03853-.21615-.03372-.44916-.11079-.69542-.04636-.14751-.09633-.30285-.11921-.4606-.0849-.58102-.15353-1.1783-.21435-1.70874l-.0578-.50395c-.01084-.08971-.01385-.18003-.01686-.27034-.00482-.18123-.00963-.3456-.05901-.49071-.29864-.89351-.16317-1.784-.03191-2.645.0301-.19869.05961-.39076.0849-.58343.01806-.1439.01626-.29202.01385-.44976-.00181-.13487-.00301-.22578.0012-.3161.04154-.95793.18304-4.07978.18304-4.07978l-.0855-.05419c-.26733-.17099-.57801-.25077-.9784-.25077-.06804,0-.13728.00241-.20832.00692-.07526.00482-.14872.00692-.22217.00692-.73576,0-1.41673-.23933-1.96884-.69271-.23843-.19538-.45458-.49221-.60811-.8351-.21194-.47355-.10717-1.01152.25408-1.30835.18846-.15474.40882-.23632.63762-.23632.2312,0,.46181.08008.68578.23813.24927.17702.47686.2598.71529.2598.06984,0,.14149-.00753.21675-.02198.13607-.02679.27094-.04004.40099-.04004.36607,0,.72913.10446,1.10966.31941.19929.11229.32694.13607.39919.13607h.07707l.09393-.06774c.09694-.11079.09513-.32363.07647-.48318-.05298-.4612.07887-.79446.29322-1.15301.43351-.72281.61052-1.31798.57319-1.92941-.02408-.39046.08429-.74479.35102-1.1494.10236-.15534.17521-.33356.24565-.50606.07105-.1719.14089-.34259.23662-.49432l.22037-.35313c.39859-.64183.81042-1.30474,1.29631-1.90051.18906-.2309.43411-.35283.70806-.35283.29984,0,.61474.15233.8634.41815.44194.47204.55694,1.19516.27455,1.71928-.36126.67013-.72974,1.33845-1.09641,2.00407l-.42207.76556c-.54489.98864-.66772,2.01581-.7761,2.92196-.03312.27696-.01746.42538.05359.51178.06141.07346.17099.12554.50636.14571.09874.00602.19809.00843.29804.00843.19267,0,.38594-.00873.57921-.01746.13306-.00632.64304-.02228.64304-.02228.20411-.00572.40882-.01144.61293-.01264l1.36916-.0006c.05298,0,.10597-.00542.15895-.01114.05901-.00662.11681-.01264.174-.01264.6906.00963,1.20298.35132,1.30293.87002.09513.49793-.25709.99165-.85678,1.20027-.40521.14089-.83932.21254-1.25837.28208l-.33115.05569c-.14811.02649-.29984.03793-.45037.04997-.2306.01836-.44013.03492-.64304.09543-.40039.11861-.82788.174-1.34568.174-.40581,0-.81704-.03312-1.25296-.06834l-.15113-.01204-.0861.1439-.02107.09393c-.13306.57951-.2583,1.12772-.22217,1.74487.02228.37721-.02709.75713-.07466,1.12471-.06623.51479-.13547,1.04704-.01626,1.57267l.00361.01746-.01084.01445c-.36908.48649-.25047.96455-.12463,1.47091.04034.16437.07707.31188.10175.4606.11982.74238.12945,1.42817.0301,2.03809-.1451.88688.04817,1.6672.38233,2.56492l.04576.1162c.09814.23482.18424.44133.16016.634-.08249.65628.20291,1.20057.47866,1.72741l.09694.18725c.3161.61474.31128,1.03018-.01565,1.38843-.19688.21675-.45699.33115-.75201.33115Z" fill="#40220f"/>
        </g>
      </g>
      <g>
        <path d="M67.1444,102.69134c-.34717,0-.56592.18311-.63281.53027-.10938.59424-.22412,1.5127-.34131,2.72949-.12695,1.34326-.21387,2.22314-.25879,2.62158-.26709-.04932-.55322-.07471-.85303-.07471-.98145,0-1.88721.22412-2.69092.66602-.89062.49023-1.34229,1.10645-1.34229,1.83203,0,.64355.25586,1.13623.76025,1.46436.4248.27393.99805.4126,1.70264.4126.64014,0,1.28467-.10938,1.91553-.3252.63818-.21777,1.10889-.49072,1.40186-.81396.11328-.13232.1709-.27783.1709-.43311,0-.17871-.06787-.33594-.20166-.46729-.26855-.26318-.67725-.2666-.94141.02539-.15576.16992-.47998.33154-.96338.48047-.50537.15186-.99414.229-1.45215.229-1.08789,0-1.08789-.43359-1.08789-.57617,0-.11377.10791-.36133.83008-.74268.61572-.32764,1.24658-.49365,1.875-.49365.41846,0,.79102.08594,1.1084.25537.11523.06006.23291.09033.35059.09033.22705,0,.51465-.09619.5918-.55469.08252-.46582.19531-1.4668.33545-2.9751.13184-1.44971.25732-2.49609.37305-3.11035.00977-.04736.01416-.09277.01416-.13525,0-.19336-.07178-.35352-.21582-.47754-.12793-.10449-.27881-.15723-.44824-.15723Z" fill="#40220f"/>
        <path d="M74.03698,110.26947c0-.90576-.25977-1.58105-.77148-2.00635-.02686-.02197-.05225-.04102-.07715-.05713.00098-.17725-.09326-.41455-.5542-.51904-1.57422-.37305-2.82812-.17627-3.72705.62549-.56445.49902-.85059,1.08057-.85059,1.72852,0,.72119.26611,1.32764.79199,1.8042.52881.47217,1.20361.71143,2.00488.71143.79199,0,1.49707-.17529,2.09668-.521.72119-.4248,1.08691-1.01904,1.08691-1.76611ZM72.28112,110.91351c-.35693.22461-.8374.33838-1.42773.33838-.47705,0-.85645-.12695-1.12842-.37744-.24463-.22363-.36377-.49609-.36377-.8335,0-.24707.14014-.5.41602-.75098.35352-.3208.82568-.4834,1.4043-.4834.2793,0,.62939.0415,1.0415.12402.03516.0791.11182.20801.28027.44434.15186.21533.229.5166.229.89453,0,.2417-.14795.45215-.45117.64404Z" fill="#40220f"/>
        <path d="M78.90612,109.664c-.34082.42773-.9624.64453-1.84766.64453-.19482,0-.3833-.02393-.56396-.07324-.1958-.04443-.31299-.11084-.31299-.17676,0-.35693.38721-.64551,1.15137-.8584.57617-.16406,1.15576-.24707,1.72363-.24707.4209,0,.65234-.23145.65234-.65234s-.23145-.65234-.65234-.65234c-.94922,0-1.81689.15674-2.57812.46631-1.0625.4292-1.60156,1.08301-1.60156,1.94385,0,.54346.25879.95703.76709,1.22852.38818.21631.86426.32617,1.41455.32617.74316,0,1.40186-.146,1.96045-.43457.00049.01709.00049.03467.00049.05176,0,.89844-.30176,1.771-.896,2.59229-.63232.86816-1.35742,1.30811-2.15479,1.30811-1.22656,0-1.51123-.25195-1.5708-.3999-.104-.2749-.30859-.42041-.59131-.42041-.08545,0-.16943.01562-.24951.04639-.08105.03076-.15381.07568-.21631.1333-.06152.05713-.11182.12402-.1499.2002-.04004.07959-.06006.16748-.06006.26074,0,.07471.01807.1582.05518.25635.31641.81494,1.25244,1.22803,2.78271,1.22803,1.41504,0,2.52686-.64111,3.30566-1.90527.61865-1.00342.93262-2.15918.93262-3.43457,0-.49268-.05957-.90918-.17725-1.23779-.23975-.65967-.69678-.73291-1.12354-.19385Z" fill="#40220f"/>
        <path d="M98.55456,111.25189c-.05566-.0625-.12256-.11377-.19922-.15186-.13281-.06689-.26562-.0835-.47998-.0249-.95703.30322-1.83496.37451-2.49072.19775-.4165-.11182-.62793-.2666-.62793-.45947,0-.32812.16357-.60742.5-.85449.33594-.24805.72852-.37402,1.16797-.37402.27002,0,.53076.05371.7749.15869.17676.08398.37988.08496.54053.00391.07617-.03809.14307-.08838.2002-.1499.05762-.0625.10254-.13525.1333-.21631.03076-.08008.04639-.16406.04639-.24951,0-.26807-.13721-.46973-.39648-.58301-.36621-.1626-.79102-.24512-1.26367-.24512-.78125,0-1.46387.20703-2.02979.61523-.64893.46387-.97803,1.10156-.97803,1.89453,0,.43213.16455.80908.48779,1.11963.27197.27197.6416.47412,1.09961.60059.34863.09229.72998.13916,1.1333.13916.64648,0,1.35107-.11816,2.09229-.35107.30371-.08984.46436-.2998.46436-.60596,0-.08545-.01562-.16943-.04639-.24951-.03076-.08057-.07373-.15234-.12842-.21436Z" fill="#40220f"/>
        <path d="M105.05065,111.66742l-1.21777-.57764c.07275.02393.1543.03613.24414.03613.18945,0,.35303-.06641.48584-.19678.1377-.13525.19531-.31494.17139-.53418-.0625-.54297-.30469-.96484-.71973-1.25391-.36768-.26025-.83154-.39209-1.37891-.39209-.6123,0-1.26367.27344-1.93604.81299-.75.604-1.13037,1.28711-1.13037,2.03076,0,.15576.01953.30127.05811.43457.17334.57227.60205.8623,1.27393.8623.34668,0,.79883-.08447,1.34619-.25244l1.05957-.35352,1.18945.56641c.09717.04199.19482.06299.28955.06299.09326,0,.18115-.02002.26074-.06006.07617-.03809.14307-.08838.2002-.1499.05762-.0625.10254-.13525.1333-.21631.03076-.08008.04639-.16406.04639-.24951,0-.25439-.12988-.45166-.37598-.56982ZM102.18981,111.28168c-.56982.20117-.97559.30322-1.20654.30322-.03906,0-.07568-.00146-.10938-.00391.00537-.31885.22461-.65918.65234-1.01123.41211-.34229.78564-.51611,1.10938-.51611.66699,0,.77686.28125.80176.49268.0249.22217.11523.38477.26221.48047l-.01123-.00537c-.08594-.03809-.18408-.05762-.29102-.05762-.20752,0-.60254.104-1.20752.31787Z" fill="#40220f"/>
        <path d="M112.17321,107.93109c-.12646-.13867-.30713-.20557-.51025-.20166-.53857.00781-1.07324.02979-1.58838.06494-.46191.03125-.92432.07275-1.37793.12305.05762-.47607.10498-.87012.14209-1.18213.0415-.34814.06787-.60107.07959-.75732.00928-.11133-.00293-.21436-.03662-.30518-.0332-.09131-.0835-.17041-.14893-.23584-.06494-.06494-.1416-.11475-.22754-.14844-.08447-.03271-.17676-.04932-.27393-.04932-.39844,0-.63867.22559-.67529.63525-.01562.17529-.04492.45459-.0874.83838-.04102.36426-.09766.82861-.16992,1.3916-.271.04785-.49121.0874-.66064.11914-.19385.03662-.32471.06494-.38135.08203-.3501.06641-.53516.2832-.53516.62695,0,.09326.0166.18359.04932.26807.0332.08447.08105.16113.14209.22705.06152.06641.13574.12012.22021.15967.13281.06201.3042.07764.43604.04199.09326-.01953.19922-.04102.31787-.06445l.22461-.04297c-.09229.68604-.17529,1.27148-.24902,1.75586-.07959.521-.14893.93408-.20703,1.22803-.00488.02344-.0083.04834-.01074.07471-.00244.02539-.00342.0498-.00342.07275,0,.20703.07666.37354.2251.49316.13232.11328.29199.1709.47412.1709.35889,0,.58545-.19092.65576-.55273.06299-.32812.13916-.79102.22656-1.37598.08496-.56445.18115-1.25781.28955-2.08008,1.01709-.12061,2.08545-.19336,3.17725-.21582.43115-.00488.66846-.24658.66846-.68164,0-.18359-.06201-.34521-.18506-.47998Z" fill="#40220f"/>
        <path d="M89.36071,110.04486c-.13086.16797-.30615.34619-.52148.5293-.19824.16895-.43506.34863-.7041.53613-.25781-.24268-.48877-.48926-.68799-.73389-.19385-.2373-.3667-.48584-.51514-.73877.12549-.11865.19141-.28125.19141-.47705,0-.17969-.05908-.33594-.17578-.46484-.12061-.1333-.29883-.19141-.51123-.19287l-.0332.00293-.12451-.34033c-.23877-.70654-.12451-1.27148.34961-1.72754.3999-.38867.91455-.58594,1.53027-.58594.4873,0,.80713.13281.94922.39111.11865.23096.31104.35303.55664.35303.08594,0,.17139-.0166.25439-.0498.08252-.0332.15527-.07861.21729-.13574.06152-.05713.11182-.12402.1499-.2002.04004-.07959.06006-.16553.06006-.25488,0-.10596-.02832-.21387-.08447-.32178-.35254-.67139-.99268-1.03711-1.90332-1.08643-.85498-.04199-1.646.19482-2.34277.71094-.76807.57373-1.15771,1.32715-1.15771,2.24023,0,.34814.06104.71045.18408,1.08252.01904.04883.03564.0957.05078.14111l.00732.02197c-.66504.23145-1.18408.61279-1.54395,1.13379-.33398.48047-.50293,1.02539-.50293,1.61914,0,.33545.05615.64502.1665.91895.33154.85449.96826,1.2876,1.89209,1.2876.8125,0,1.78955-.32764,2.9043-.97412.2832.24023.52393.44678.72314.61865.21289.18408.37988.33252.50244.44678.13232.11816.28027.17822.44043.17822.17432,0,.33008-.06738.46338-.20068s.20068-.29102.20068-.46924c0-.18066-.0752-.33984-.22412-.4751-.25049-.21875-.4668-.40674-.64844-.56299-.12451-.10693-.2334-.2002-.32764-.27979.54395-.40576.95752-.7832,1.229-1.12109.10547-.12402.15869-.26367.15869-.41455,0-.17627-.0708-.33105-.20654-.45752-.28174-.28271-.70068-.26953-.96631.05273ZM86.98717,111.81488c-.80273.41943-1.44482.62012-1.9209.58398-.22314-.01318-.39941-.10205-.53662-.26904-.13525-.17041-.20117-.37695-.20117-.63135,0-.31348.10938-.61328.3252-.88965.22949-.29395.55078-.50928.95654-.64209.34717.66748.80957,1.28809,1.37695,1.84814Z" fill="#40220f"/>
      </g>
    </g>
  </g>
</svg>