<svg width="38" height="40" viewBox="0 0 38 40" fill="none" xmlns="http://www.w3.org/2000/svg">
<g clip-path="url(#clip0_1916_22481)">
<path d="M23.9296 27.6532C23.9296 27.6532 25.4661 17.3167 36.4312 15.2214C36.4312 15.2214 26.5137 15.3611 25.047 0.799194C25.047 0.799194 21.3804 14.8373 13.5232 15.3611C13.5232 15.3611 24.174 17.8405 23.9296 27.6532Z" fill="white"/>
<path d="M23.93 28.4523C24.3218 28.4523 24.6604 28.1659 24.7198 27.7721C24.7806 27.3725 26.3253 17.9662 36.5812 16.0061C36.9885 15.9284 37.2684 15.5525 37.2263 15.1404C37.1847 14.732 36.8408 14.4222 36.4313 14.4222C36.4256 14.422 36.4204 14.4217 36.4095 14.4222C35.909 14.4222 27.2019 14.2188 25.8419 0.71909C25.8034 0.334357 25.4944 0.0326096 25.1089 0.0026906C24.727 -0.0290451 24.3722 0.223018 24.2739 0.597086C24.2385 0.731833 20.6607 14.0846 13.4702 14.5637C13.0753 14.59 12.76 14.9011 12.7272 15.2955C12.695 15.6896 12.9562 16.0485 13.3411 16.1391C13.3666 16.1451 15.9237 16.7603 18.3996 18.5102C21.633 20.7949 23.2245 23.8644 23.1304 27.6332C23.1199 28.0554 23.4399 28.413 23.8608 28.4495C23.8842 28.4513 23.9071 28.4523 23.93 28.4523ZM33.1859 15.3137C28.1285 17.2665 25.5517 21.1018 24.2833 23.9578C22.9451 19.2117 18.9178 16.684 16.2364 15.49C20.6191 13.5357 23.3936 7.84015 24.7739 4.19365C26.3643 11.3956 30.3203 14.212 33.1859 15.3137Z" fill="#D8BD97"/>
<path d="M7.27778 24.9009C7.27778 24.9009 8.63969 30.8724 13.9302 32.3915C13.9302 32.3915 6.59682 32.2867 7.38257 39.2009C7.38257 39.2009 7.38257 32.5486 1.51586 32.8105C1.51586 32.8105 7.17309 31.5533 7.27778 24.9009Z" fill="white"/>
<path d="M7.38229 40C7.39738 40 7.41247 39.9995 7.42808 39.9987C7.85105 39.9747 8.18193 39.6246 8.18193 39.2009C8.18193 39.1592 8.17985 38.8481 8.12522 38.3762C8.09297 36.9827 8.45871 35.8535 9.21777 35.0122C10.8691 33.1809 13.8933 33.1903 13.9204 33.1906C14.3371 33.2054 14.6623 32.9023 14.72 32.5067C14.7778 32.111 14.5353 31.7338 14.1509 31.6233C9.39049 30.2566 8.06956 24.7769 8.05655 24.7218C7.96498 24.3282 7.59664 24.0634 7.19344 24.1068C6.7918 24.1495 6.48484 24.4845 6.4786 24.8883C6.38599 30.8021 1.5455 31.9836 1.33948 32.0312C0.936796 32.1238 0.669903 32.5085 0.725574 32.9179C0.781247 33.3274 1.12669 33.6302 1.55174 33.6089C2.92783 33.548 4.04275 33.9135 4.8658 34.6975C6.04158 35.8176 6.41305 37.5519 6.53011 38.5089C6.53895 38.7636 6.55872 39.0245 6.5889 39.2911C6.6352 39.6969 6.97857 40 7.38229 40ZM11.2145 32.0174C10.1454 32.3433 8.95764 32.9185 8.03886 33.933C7.69549 34.312 7.41038 34.7277 7.18355 35.1792C6.8818 34.6015 6.48848 34.0378 5.97603 33.548C5.46045 33.055 4.87256 32.6791 4.21599 32.4219C5.48282 31.5767 6.89637 30.177 7.61069 27.9258C8.33593 29.2949 9.4779 30.8793 11.2145 32.0174Z" fill="#D8BD97"/>
<path d="M3.19678 14.7751C3.19678 15.6578 2.48123 16.3734 1.59851 16.3734C0.715877 16.3734 0.000324011 15.6578 0.000324011 14.7751C0.000324011 13.8924 0.715877 13.1769 1.59851 13.1769C2.48123 13.1769 3.19678 13.8924 3.19678 14.7751Z" fill="#D8BD97"/>
<path d="M29.8672 37.6026C29.8672 38.4853 29.1516 39.2009 28.2689 39.2009C27.3863 39.2009 26.6707 38.4853 26.6707 37.6026C26.6707 36.7199 27.3863 36.0044 28.2689 36.0044C29.1516 36.0044 29.8672 36.7199 29.8672 37.6026Z" fill="#D8BD97"/>
</g>
<defs>
<clipPath id="clip0_1916_22481">
<rect width="37.2304" height="40" fill="white" transform="matrix(-1 0 0 1 37.2305 0)"/>
</clipPath>
</defs>
</svg>
