<svg width="24" height="32" viewBox="0 0 24 32" fill="none" xmlns="http://www.w3.org/2000/svg">
<g clip-path="url(#clip0_1916_22498)">
<path d="M0.239421 13.9097C0.558306 13.5908 1.0749 13.5908 1.39378 13.9097L11.5953 24.111C11.9142 24.4297 11.9142 24.9467 11.5953 25.2654C11.4359 25.4248 11.227 25.5046 11.0181 25.5046C10.8093 25.5046 10.6004 25.4248 10.4409 25.2654L0.239421 15.0641C-0.079464 14.7454 -0.079464 14.2284 0.239421 13.9097Z" fill="#262626"/>
<path d="M14.0586 26.5741L18.0909 30.6064C18.4098 30.9251 18.4098 31.4421 18.0909 31.7608C17.9315 31.9202 17.7226 32 17.5137 32C17.3049 32 17.096 31.9202 16.9366 31.7608L12.9042 27.7285C12.5854 27.4098 12.5854 26.8928 12.9042 26.5741C13.2231 26.2552 13.7397 26.2552 14.0586 26.5741Z" fill="#262626"/>
<path d="M7.41748 0.109905C7.80931 -0.116304 8.30717 0.0180257 8.53278 0.408659L23.6567 26.6043C23.8819 26.9947 23.7484 27.494 23.3577 27.7194C23.229 27.7937 23.0887 27.829 22.9504 27.829C22.6682 27.829 22.3939 27.6825 22.2424 27.4206L7.11853 1.225C6.89331 0.834571 7.02685 0.335315 7.41748 0.109905Z" fill="#262626"/>
</g>
<defs>
<clipPath id="clip0_1916_22498">
<rect width="23.7659" height="32" fill="white" transform="matrix(-1 0 0 1 23.7661 0)"/>
</clipPath>
</defs>
</svg>
